<svg width="275" height="69" viewBox="0 0 275 69" fill="none" xmlns="http://www.w3.org/2000/svg">
<path d="M29.2344 20.9375H22.1562V2.51562H18.6875V66.2656H21.0781V68H8.60938V66.2656H11V2.51562H7.53125V20.9375H0.453125V0.78125H29.2344V20.9375ZM64.3812 58.6719C64.3812 61.4219 63.35 63.75 61.2875 65.6562C59.2562 67.5312 56.6781 68.4688 53.5531 68.4688C50.4281 68.4688 47.8344 67.5312 45.7719 65.6562C43.7094 63.75 42.6781 61.4219 42.6781 58.6719V27.4062C42.6781 24.6562 43.7094 22.3438 45.7719 20.4688C47.8344 18.5625 50.4281 17.6094 53.5531 17.6094C56.6781 17.6094 59.2562 18.5625 61.2875 20.4688C63.35 22.3438 64.3812 24.6562 64.3812 27.4062V58.6719ZM56.8812 62.8906V23.1875C56.8812 20.625 55.7719 19.3438 53.5531 19.3438C51.3031 19.3438 50.1781 20.625 50.1781 23.1875V62.8906C50.1781 65.4531 51.3031 66.7344 53.5531 66.7344C55.7719 66.7344 56.8812 65.4531 56.8812 62.8906ZM102.997 68H93.2937L87.0594 43.5312V66.2656H89.4969V68H77.1687V66.2656H79.6062V2.51562H77.1687V0.78125H87.0594V40.25L96.6687 19.8125H94.1844V18.0781H101.497V19.8125H99.0594L91.9812 35.1875L100.419 66.2656H102.997V68ZM137.113 58.6719C137.113 61.4219 136.081 63.75 134.019 65.6562C131.988 67.5312 129.409 68.4688 126.284 68.4688C123.159 68.4688 120.566 67.5312 118.503 65.6562C116.441 63.75 115.409 61.4219 115.409 58.6719V27.4062C115.409 24.6562 116.441 22.3438 118.503 20.4688C120.566 18.5625 123.159 17.6094 126.284 17.6094C129.409 17.6094 131.988 18.5625 134.019 20.4688C136.081 22.3438 137.113 24.6562 137.113 27.4062V58.6719ZM129.613 62.8906V23.1875C129.613 20.625 128.503 19.3438 126.284 19.3438C124.034 19.3438 122.909 20.625 122.909 23.1875V62.8906C122.909 65.4531 124.034 66.7344 126.284 66.7344C128.503 66.7344 129.613 65.4531 129.613 62.8906ZM158.853 68H151.447V56.4688H158.853V68Z" fill="#37474F"/>
<path d="M200.984 20.9375H193.906V2.51562H190.438V66.2656H192.828V68H180.359V66.2656H182.75V2.51562H179.281V20.9375H172.203V0.78125H200.984V20.9375ZM197.703 19.25V2.51562H195.828V19.25H197.703ZM176.047 19.25V2.51562H174.125V19.25H176.047ZM186.594 66.2656V2.51562H184.672V66.2656H186.594ZM236.131 58.6719C236.131 61.4219 235.1 63.75 233.038 65.6562C231.006 67.5312 228.428 68.4688 225.303 68.4688C222.178 68.4688 219.584 67.5312 217.522 65.6562C215.459 63.75 214.428 61.4219 214.428 58.6719V27.4062C214.428 24.6562 215.459 22.3438 217.522 20.4688C219.584 18.5625 222.178 17.6094 225.303 17.6094C228.428 17.6094 231.006 18.5625 233.038 20.4688C235.1 22.3438 236.131 24.6562 236.131 27.4062V58.6719ZM232.381 60.2188V25.8594C232.381 23.2344 231.225 21.1875 228.913 19.7188C229.944 20.8125 230.459 22.4062 230.459 24.5V61.5781C230.459 63.6719 229.944 65.2656 228.913 66.3594C231.225 64.8906 232.381 62.8438 232.381 60.2188ZM228.631 62.8906V23.1875C228.631 20.625 227.522 19.3438 225.303 19.3438C223.053 19.3438 221.928 20.625 221.928 23.1875V62.8906C221.928 65.4531 223.053 66.7344 225.303 66.7344C227.522 66.7344 228.631 65.4531 228.631 62.8906ZM219.444 65.3281C218.6 64.1094 218.178 62.5 218.178 60.5V25.5781C218.178 23.5781 218.6 21.9688 219.444 20.75C217.319 22.2188 216.256 24.2031 216.256 26.7031V59.375C216.256 61.875 217.319 63.8594 219.444 65.3281ZM274.747 68H265.044L258.809 43.5312V66.2656H261.247V68H248.919V66.2656H251.356V2.51562H248.919V0.78125H258.809V40.25L268.419 19.8125H265.934V18.0781H273.247V19.8125H270.809L263.731 35.1875L272.169 66.2656H274.747V68ZM255.059 66.2656V2.51562H253.137V66.2656H255.059ZM268.512 66.2656L261.622 39.4062L260.45 42.1719L266.591 66.2656H268.512Z" fill="#6900FF"/>
</svg>
