<svg width="452" height="449" viewBox="0 0 452 449" fill="none" xmlns="http://www.w3.org/2000/svg">
<g clip-path="url(#clip0_151_728)">
<path d="M385 225.09C296.59 174.09 153.72 174.09 65.8802 225.09C-21.9598 276.09 -21.4498 358.89 67.0002 409.93C155.45 460.97 298.28 460.98 386.12 409.93C473.96 358.88 473.45 276.13 385 225.09Z" fill="#F5F5F5"/>
<path d="M262.32 357.38C241.79 345.52 208.6 345.52 188.2 357.38C167.8 369.24 167.91 388.46 188.44 400.31C208.97 412.16 242.16 412.17 262.57 400.31C282.98 388.45 282.86 369.24 262.32 357.38Z" fill="#E0E0E0"/>
<path d="M188.19 299.63L179.19 294.43L182.71 292.43C183.285 292.097 183.762 291.619 184.094 291.043C184.426 290.467 184.601 289.814 184.601 289.15C184.601 288.485 184.426 287.833 184.094 287.257C183.762 286.681 183.285 286.203 182.71 285.87L171.4 279.33C169.672 278.33 167.711 277.804 165.715 277.804C163.719 277.804 161.758 278.33 160.03 279.33L46.1898 344.92C45.6173 345.255 45.1423 345.734 44.8123 346.309C44.4823 346.885 44.3086 347.537 44.3086 348.2C44.3086 348.863 44.4823 349.515 44.8123 350.091C45.1423 350.666 45.6173 351.145 46.1898 351.48L57.4799 358.1C59.2163 359.112 61.1901 359.645 63.1998 359.645C65.2096 359.645 67.1834 359.112 68.9198 358.1L79.7299 351.86L88.6298 357.09C90.0144 357.891 91.5855 358.312 93.1848 358.312C94.7842 358.312 96.3553 357.891 97.7398 357.09L188.22 304.79C188.666 304.522 189.035 304.142 189.29 303.688C189.545 303.234 189.677 302.722 189.674 302.201C189.671 301.681 189.533 301.17 189.272 300.719C189.012 300.268 188.639 299.893 188.19 299.63Z" fill="#E0E0E0"/>
<path d="M250.45 205.4C260.06 210.95 260.11 219.94 250.56 225.49C241.01 231.04 225.48 231.04 215.86 225.49C206.24 219.94 206.2 210.95 215.75 205.4C225.3 199.85 240.83 199.85 250.45 205.4Z" fill="#E0E0E0"/>
<path d="M361.61 316.69L314.09 289.26C313.77 289.074 313.505 288.808 313.321 288.488C313.136 288.168 313.039 287.805 313.039 287.435C313.039 287.065 313.136 286.702 313.321 286.382C313.505 286.062 313.77 285.795 314.09 285.61L356 261.27C356.32 261.084 356.684 260.986 357.055 260.986C357.426 260.986 357.79 261.084 358.11 261.27L406.69 289.32C407.01 289.504 407.276 289.769 407.46 290.089C407.645 290.408 407.742 290.771 407.742 291.14C407.742 291.509 407.645 291.872 407.46 292.191C407.276 292.511 407.01 292.776 406.69 292.96L365.86 316.69C365.216 317.069 364.482 317.269 363.735 317.269C362.988 317.269 362.254 317.069 361.61 316.69Z" fill="#E0E0E0"/>
<path d="M349.24 50.36L348.97 156.54L354.36 159.66L354.64 53.47L349.24 50.36Z" fill="#E0E0E0"/>
<path d="M354.64 53.47L354.36 159.66L359.06 156.93L359.31 56.17L354.64 53.47Z" fill="#F0F0F0"/>
<path opacity="0.2" d="M354.63 57.83L354.64 53.47L349.24 50.36L349.23 54.71L354.63 57.83Z" fill="black"/>
<path opacity="0.2" d="M354.63 57.83L358.41 55.65L354.64 53.47L354.63 57.83Z" fill="black"/>
<path d="M284.31 12.87L289 10.14L288.72 116.32L284.03 119.05L284.31 12.87Z" fill="#F0F0F0"/>
<path d="M284.03 119.05L288.72 116.32L424 194.43L419.31 197.15L284.03 119.05Z" fill="#F5F5F5"/>
<path d="M278.93 3.54999L425 87.88L424.69 206.47L278.62 122.13L278.93 3.54999ZM419.31 197.15L419.59 91L284.3 12.86L284 119.05L419.28 197.15" fill="#E0E0E0"/>
<path d="M278.93 3.55001L283.62 0.820007L429.69 85.16L425 87.88L278.93 3.55001Z" fill="#F5F5F5"/>
<path d="M425 87.88L429.69 85.16L429.38 203.74L424.69 206.47L425 87.88Z" fill="#F0F0F0"/>
<path d="M235.369 139H230.939C230.939 158 231.629 220.61 231.629 220.61C231.646 220.743 231.696 220.87 231.774 220.978C231.853 221.087 231.958 221.173 232.079 221.23C232.411 221.403 232.78 221.493 233.154 221.493C233.529 221.493 233.897 221.403 234.229 221.23C234.353 221.177 234.46 221.091 234.54 220.982C234.619 220.873 234.667 220.744 234.679 220.61C234.679 220.61 235.369 158 235.369 139Z" fill="#E6E6E6"/>
<path d="M226.439 130.37H221.999C218.199 150.05 215.729 211.99 215.729 211.99C215.743 212.124 215.792 212.252 215.871 212.361C215.95 212.47 216.056 212.556 216.179 212.61C216.513 212.778 216.881 212.865 217.255 212.865C217.628 212.865 217.996 212.778 218.329 212.61C218.451 212.555 218.557 212.469 218.634 212.36C218.711 212.251 218.758 212.123 218.77 211.99C218.77 211.99 222.999 149.77 226.439 130.37Z" fill="#E6E6E6"/>
<path d="M239.87 130.37H244.29C248.09 150.05 250.56 211.99 250.56 211.99C250.547 212.124 250.498 212.252 250.419 212.361C250.34 212.47 250.233 212.556 250.11 212.61C249.777 212.778 249.408 212.865 249.035 212.865C248.662 212.865 248.294 212.778 247.96 212.61C247.839 212.554 247.735 212.467 247.658 212.358C247.581 212.249 247.534 212.123 247.52 211.99C247.52 211.99 243.33 149.77 239.87 130.37Z" fill="#E6E6E6"/>
<path d="M257 129.81H256.53C255.63 127.22 253.45 124.75 249.97 122.74C240.65 117.36 225.59 117.36 216.33 122.74C212.88 124.74 210.72 127.21 209.85 129.8H209.41V132.48C209.41 136.01 211.78 139.48 216.41 142.23C225.73 147.61 240.79 147.61 250.05 142.23C254.68 139.54 256.99 136.02 256.97 132.49L257 129.81Z" fill="#F0F0F0"/>
<path d="M249.92 120.07C259.25 125.45 259.3 134.17 250.03 139.56C240.76 144.95 225.71 144.94 216.39 139.56C207.07 134.18 207.02 125.45 216.28 120.07C225.54 114.69 240.6 114.68 249.92 120.07Z" fill="#F5F5F5"/>
<path d="M244.829 112.1H221.479C221.479 119.78 225.059 126.28 226.169 128.21C226.169 128.3 226.259 128.38 226.309 128.47L226.369 128.56C226.797 129.157 227.354 129.649 227.999 130C229.591 130.814 231.352 131.238 233.14 131.238C234.927 131.238 236.688 130.814 238.279 130C239.095 129.577 239.754 128.904 240.16 128.08C241.34 126.1 244.829 119.67 244.829 112.1Z" fill="#EBEBEB"/>
<path d="M241.38 107.32C245.96 109.96 245.98 114.25 241.44 116.89C236.9 119.53 229.5 119.53 224.93 116.89C220.36 114.25 220.33 109.96 224.87 107.32C229.41 104.68 236.81 104.68 241.38 107.32Z" fill="#F5F5F5"/>
<path d="M231.889 109.09C231.855 104.092 230.703 99.1654 228.519 94.67C227.717 93.3203 227.177 91.8307 226.929 90.28C226.819 88.72 227.679 86.95 229.219 86.64C229.831 86.5667 230.451 86.6687 231.007 86.9343C231.563 87.1999 232.032 87.618 232.359 88.14C233.001 89.1954 233.426 90.3683 233.609 91.59C234.759 97 235.719 102.59 234.999 108.03C234.96 108.661 234.832 109.284 234.619 109.88C234.508 110.156 234.327 110.399 234.094 110.585C233.861 110.77 233.584 110.893 233.289 110.94C233.093 110.958 232.895 110.93 232.711 110.859C232.527 110.788 232.363 110.675 232.229 110.53C231.984 110.091 231.866 109.592 231.889 109.09Z" fill="#E0E0E0"/>
<path d="M233.17 109.53C233.145 109.529 233.121 109.523 233.098 109.512C233.075 109.501 233.055 109.486 233.038 109.467C233.022 109.449 233.009 109.427 233 109.403C232.992 109.38 232.989 109.355 232.99 109.33C233.577 102.323 232.384 95.2818 229.52 88.86C229.5 88.8122 229.499 88.7583 229.517 88.7097C229.536 88.6612 229.573 88.6218 229.62 88.6C229.643 88.5901 229.668 88.5848 229.693 88.5845C229.718 88.5842 229.742 88.5888 229.766 88.5981C229.789 88.6074 229.81 88.6211 229.828 88.6386C229.846 88.6561 229.86 88.677 229.87 88.7C232.761 95.1811 233.969 102.288 233.38 109.36C233.373 109.409 233.347 109.454 233.308 109.486C233.269 109.517 233.22 109.533 233.17 109.53Z" fill="white"/>
<path d="M220.53 101C219.53 100.37 218.33 99.68 218.01 98.51C217.904 97.9806 217.961 97.4316 218.173 96.9353C218.386 96.439 218.744 96.0187 219.2 95.73C219.664 95.4509 220.18 95.2689 220.716 95.195C221.252 95.1211 221.798 95.1568 222.32 95.3C223.363 95.5972 224.34 96.0892 225.2 96.75C226.708 97.8106 228.056 99.0838 229.2 100.53C230.553 102.249 231.623 104.174 232.37 106.23C232.875 107.559 233.257 108.931 233.51 110.33C233.68 111.44 234.01 113.28 232.86 114C232.605 114.149 232.315 114.228 232.02 114.228C231.725 114.228 231.435 114.149 231.18 114C230.678 113.683 230.281 113.223 230.04 112.68C229.809 112.138 229.608 111.584 229.44 111.02C228.699 108.843 227.487 106.856 225.89 105.2C224.291 103.575 222.49 102.164 220.53 101Z" fill="#EBEBEB"/>
<path d="M232.31 112.62C232.249 112.632 232.186 112.62 232.134 112.586C232.081 112.553 232.044 112.5 232.03 112.44C231.294 109.136 229.832 106.037 227.752 103.367C225.671 100.696 223.024 98.5218 220 97C219.944 96.9721 219.902 96.9233 219.882 96.8642C219.862 96.8051 219.867 96.7407 219.895 96.685C219.923 96.6293 219.972 96.5869 220.031 96.5672C220.09 96.5475 220.154 96.5521 220.21 96.58C223.303 98.1366 226.012 100.362 228.139 103.095C230.267 105.827 231.76 108.999 232.51 112.38C232.513 112.438 232.494 112.495 232.457 112.539C232.42 112.584 232.367 112.612 232.31 112.62Z" fill="white"/>
<path d="M243.38 98.57C244.21 97.7 245.17 96.74 245.18 95.57C245.15 95.0283 244.956 94.5086 244.624 94.0798C244.292 93.6511 243.837 93.3337 243.32 93.17C242.8 93.0208 242.256 92.9785 241.72 93.0455C241.183 93.1126 240.666 93.2876 240.2 93.56C239.265 94.1051 238.443 94.8248 237.78 95.68C236.611 97.0926 235.645 98.661 234.91 100.34C234.036 102.346 233.492 104.48 233.3 106.66C233.141 108.075 233.118 109.501 233.23 110.92C233.35 112.03 233.49 113.92 234.78 114.3C235.065 114.376 235.366 114.374 235.651 114.295C235.936 114.216 236.194 114.062 236.4 113.85C236.813 113.423 237.082 112.877 237.17 112.29C237.266 111.708 237.323 111.12 237.34 110.53C237.512 108.232 238.195 106.001 239.34 104C240.442 102.02 241.8 100.194 243.38 98.57Z" fill="#EBEBEB"/>
<path d="M234.93 112.84C234.961 112.84 234.991 112.834 235.019 112.822C235.047 112.809 235.073 112.791 235.093 112.769C235.114 112.746 235.13 112.719 235.14 112.69C235.149 112.661 235.153 112.63 235.15 112.6C235.028 109.214 235.659 105.843 236.998 102.73C238.336 99.6177 240.349 96.8408 242.89 94.5999C242.932 94.5554 242.956 94.4963 242.956 94.4349C242.956 94.3736 242.932 94.3145 242.89 94.2699C242.845 94.2299 242.786 94.2078 242.725 94.2078C242.665 94.2078 242.606 94.2299 242.56 94.2699C239.961 96.5586 237.903 99.3972 236.537 102.58C235.17 105.762 234.529 109.209 234.66 112.67C234.666 112.699 234.678 112.727 234.695 112.752C234.712 112.776 234.733 112.797 234.759 112.813C234.784 112.829 234.812 112.839 234.842 112.844C234.871 112.849 234.901 112.847 234.93 112.84Z" fill="white"/>
<path d="M322.64 284.64L318.49 287.05L318.5 282.25L322.64 284.64Z" fill="#E6E6E6"/>
<path d="M318.67 235.58L359.11 258.94L318.67 235.58Z" fill="#CFCFCF"/>
<path d="M322.64 284.64L359.02 305.64V310.45L363.34 312.95L363.5 256.44L314.33 228.05L314.17 284.55L318.5 287.05V282.25L322.64 284.64ZM359.06 277.26L318.62 253.91L318.67 235.58L359.11 258.94L359.06 277.26ZM359 300.6L318.56 277.25L318.6 259V258.95L359.05 282.3L359 300.6Z" fill="#EBEBEB"/>
<path d="M318.55 277.25L318.6 258.98V258.93L359.05 282.28L358.99 300.6L318.55 277.25Z" fill="#F5F5F5"/>
<path d="M318.62 253.91L318.67 235.58L359.11 258.94L359.06 277.26L318.62 253.91Z" fill="#F5F5F5"/>
<path d="M363.5 256.44L406.43 231.49L406.27 288L363.33 312.95L363.5 256.44Z" fill="#E6E6E6"/>
<path d="M363.5 256.44L314.32 228.05L357.25 203.1L406.43 231.49L363.5 256.44Z" fill="#F5F5F5"/>
<path d="M371.86 223.69C364.92 219.69 353.7 219.69 346.8 223.69C339.9 227.69 339.94 234.2 346.88 238.2C353.82 242.2 365.05 242.2 371.94 238.2C378.83 234.2 378.8 227.7 371.86 223.69Z" fill="#E0E0E0"/>
<path d="M373.841 207.07L359.841 207.48L345.841 207.07C345.231 216.51 347.081 226.14 349.621 230.84C350.219 232.049 351.19 233.034 352.391 233.65C354.696 234.828 357.247 235.442 359.836 235.442C362.424 235.442 364.976 234.828 367.281 233.65C368.499 233.021 369.474 232.004 370.051 230.76C372.621 226 374.441 216.47 373.841 207.07Z" fill="#37474F"/>
<path d="M369.71 201.35C375.19 204.51 375.22 209.64 369.78 212.8C364.34 215.96 355.48 215.96 350 212.8C344.52 209.64 344.5 204.51 349.94 201.35C355.38 198.19 364.24 198.18 369.71 201.35Z" fill="#455A64"/>
<path d="M367.55 202.6C371.82 205.07 371.84 209.07 367.6 211.54C365.211 212.757 362.567 213.391 359.885 213.391C357.204 213.391 354.56 212.757 352.17 211.54C347.9 209.07 347.87 205.07 352.12 202.6C354.511 201.387 357.154 200.755 359.835 200.755C362.516 200.755 365.159 201.387 367.55 202.6Z" fill="#263238"/>
<path d="M358.691 207.47C359.812 208.408 361.14 209.066 362.566 209.389C363.992 209.713 365.474 209.692 366.891 209.33C368.257 208.916 369.498 208.168 370.502 207.154C371.506 206.139 372.241 204.89 372.641 203.52C370.986 202.732 369.47 201.682 368.15 200.41C370.249 199.883 372.454 199.959 374.511 200.63C375.079 199.736 375.42 198.716 375.504 197.66C375.588 196.603 375.411 195.543 374.99 194.57C372.605 193.506 369.919 193.322 367.411 194.05C368.451 193.139 369.668 192.454 370.987 192.037C372.305 191.62 373.696 191.482 375.071 191.63C375.268 187.619 374.641 183.61 373.231 179.85C368.021 180.13 362.961 182.37 361.231 183.99C361.151 185.855 361.346 187.722 361.81 189.53C361.136 189.187 360.56 188.679 360.135 188.053C359.71 187.427 359.45 186.703 359.381 185.95C356.121 186.76 354.731 188.39 354.221 189.63C354.69 191.95 355.755 194.107 357.31 195.89C354.24 194.96 353.001 191.55 353.001 191.55C350.001 198.69 350.591 206.77 358.691 207.47Z" fill="#37474F"/>
<path opacity="0.2" d="M358.691 207.47C359.812 208.408 361.14 209.066 362.566 209.389C363.992 209.713 365.474 209.692 366.891 209.33C368.257 208.916 369.498 208.168 370.502 207.154C371.506 206.139 372.241 204.89 372.641 203.52C370.986 202.732 369.47 201.682 368.15 200.41C370.249 199.883 372.454 199.959 374.511 200.63C375.079 199.736 375.42 198.716 375.504 197.66C375.588 196.603 375.411 195.543 374.99 194.57C372.605 193.506 369.919 193.322 367.411 194.05C368.451 193.139 369.668 192.454 370.987 192.037C372.305 191.62 373.696 191.482 375.071 191.63C375.268 187.619 374.641 183.61 373.231 179.85C368.021 180.13 362.961 182.37 361.231 183.99C361.151 185.855 361.346 187.722 361.81 189.53C361.136 189.187 360.56 188.679 360.135 188.053C359.71 187.427 359.45 186.703 359.381 185.95C356.121 186.76 354.731 188.39 354.221 189.63C354.69 191.95 355.755 194.107 357.31 195.89C354.24 194.96 353.001 191.55 353.001 191.55C350.001 198.69 350.591 206.77 358.691 207.47Z" fill="black"/>
<path d="M358.51 208.24C358.471 208.237 358.432 208.227 358.397 208.21C358.361 208.192 358.33 208.168 358.304 208.138C358.278 208.108 358.258 208.074 358.245 208.036C358.233 207.999 358.227 207.959 358.23 207.92C358.73 201.33 362.49 190.47 371.47 181.5C371.527 181.443 371.605 181.411 371.685 181.411C371.766 181.411 371.843 181.443 371.9 181.5C371.957 181.557 371.989 181.634 371.989 181.715C371.989 181.796 371.957 181.873 371.9 181.93C363.04 190.78 359.32 201.48 358.83 207.93C358.832 207.972 358.824 208.014 358.809 208.053C358.793 208.092 358.769 208.127 358.739 208.156C358.709 208.185 358.673 208.208 358.634 208.222C358.594 208.237 358.552 208.243 358.51 208.24Z" fill="#F5F5F5"/>
<path d="M361.001 211C359.956 211.854 358.724 212.449 357.405 212.735C356.087 213.022 354.719 212.992 353.414 212.649C352.109 212.306 350.904 211.658 349.897 210.76C348.89 209.862 348.11 208.738 347.621 207.48C349.117 206.794 350.486 205.861 351.671 204.72C349.69 204.251 347.62 204.313 345.671 204.9C345.082 204.146 344.696 203.254 344.549 202.309C344.402 201.364 344.499 200.397 344.831 199.5C347.104 198.566 349.623 198.415 351.991 199.07C349.882 197.423 347.227 196.636 344.561 196.87C344.107 193.336 344.449 189.745 345.561 186.36C350.561 186.66 355.441 188.72 357.151 190.17C357.342 191.81 357.275 193.471 356.951 195.09C357.553 194.805 358.064 194.359 358.428 193.801C358.792 193.244 358.993 192.596 359.011 191.93C362.121 192.68 363.531 194.14 364.081 195.24C363.785 197.281 362.914 199.195 361.571 200.76C362.445 200.45 363.237 199.946 363.888 199.286C364.539 198.626 365.032 197.828 365.331 196.95C368.541 203.26 368.491 210.38 361.001 211Z" fill="#37474F"/>
<path d="M361.171 211.71C361.099 211.708 361.031 211.681 360.978 211.633C360.924 211.586 360.89 211.521 360.88 211.45C360.02 205.72 355.88 196.2 346.93 188.25C346.876 188.194 346.845 188.119 346.845 188.04C346.845 187.961 346.876 187.886 346.93 187.83C346.958 187.802 346.99 187.779 347.026 187.763C347.062 187.748 347.101 187.74 347.141 187.74C347.18 187.74 347.219 187.748 347.255 187.763C347.291 187.779 347.323 187.802 347.35 187.83C356.4 195.89 360.62 205.56 361.49 211.39C361.502 211.469 361.483 211.55 361.436 211.615C361.389 211.681 361.319 211.725 361.24 211.74L361.171 211.71Z" fill="white"/>
<path d="M172 17.37C171.22 14.63 165.66 9.37 160.13 9.53C159.597 9.54623 159.069 9.65099 158.57 9.84L51.1102 71C49.5422 71.9109 48.2384 73.2142 47.3266 74.7816C46.4149 76.349 45.9268 78.1268 45.9102 79.94V312.46C45.9102 318.38 52.7402 324.03 59.1602 321.31C59.3007 321.267 59.4377 321.214 59.5702 321.15L167.08 259.89C168.658 258.991 169.969 257.69 170.881 256.12C171.792 254.55 172.272 252.766 172.27 250.95V18.49C172.271 18.1005 172.178 17.7164 172 17.37Z" fill="#455A64"/>
<path d="M60.9102 104.5C60.9106 103.593 61.1515 102.703 61.6082 101.919C62.065 101.136 62.7212 100.487 63.5102 100.04L163.32 43.25C163.711 43.0255 164.154 42.9078 164.605 42.9086C165.056 42.9094 165.498 43.0288 165.888 43.2547C166.278 43.4806 166.602 43.8052 166.827 44.1958C167.052 44.5863 167.17 45.0292 167.17 45.48V233C167.168 233.906 166.926 234.796 166.469 235.579C166.013 236.362 165.358 237.011 164.57 237.46L64.7502 294.33C64.3595 294.552 63.9176 294.668 63.4683 294.666C63.019 294.664 62.5781 294.544 62.1895 294.318C61.801 294.093 61.4784 293.769 61.2539 293.38C61.0294 292.991 60.9109 292.549 60.9102 292.1V104.5Z" fill="#37474F"/>
<path opacity="0.2" d="M60.9102 104.5C60.9106 103.593 61.1515 102.703 61.6082 101.919C62.065 101.136 62.7212 100.487 63.5102 100.04L163.32 43.25C163.711 43.0255 164.154 42.9078 164.605 42.9086C165.056 42.9094 165.498 43.0288 165.888 43.2547C166.278 43.4806 166.602 43.8052 166.827 44.1958C167.052 44.5863 167.17 45.0292 167.17 45.48V233C167.168 233.906 166.926 234.796 166.469 235.579C166.013 236.362 165.358 237.011 164.57 237.46L64.7502 294.33C64.3595 294.552 63.9176 294.668 63.4683 294.666C63.019 294.664 62.5781 294.544 62.1895 294.318C61.801 294.093 61.4784 293.769 61.2539 293.38C61.0294 292.991 60.9109 292.549 60.9102 292.1V104.5Z" fill="black"/>
<path opacity="0.3" d="M45.9102 79.93V312.46C45.9102 318.38 52.7402 324.03 59.1602 321.31C58.7742 321.452 58.3597 321.498 57.9519 321.445C57.5441 321.393 57.1551 321.242 56.8182 321.006C56.4813 320.77 56.2064 320.457 56.0169 320.092C55.8275 319.727 55.7291 319.321 55.7302 318.91V86.35C55.735 84.3277 56.3368 82.3517 57.4602 80.67L47.0002 75.42C46.2948 76.8196 45.9218 78.3629 45.9102 79.93Z" fill="black"/>
<path opacity="0.1" d="M160.17 9.52003C159.636 9.53626 159.109 9.64102 158.61 9.83003L51.11 71C49.3255 72.025 47.8927 73.5658 47 75.42L57.52 80.67C58.4105 79.33 59.6023 78.217 61 77.42L168.5 16.26C168.801 16.0953 169.132 15.9933 169.474 15.9601C169.815 15.9269 170.16 15.9633 170.487 16.067C170.814 16.1708 171.117 16.3397 171.377 16.5637C171.637 16.7876 171.849 17.0619 172 17.37C171.26 14.62 165.7 9.41003 160.17 9.52003Z" fill="white"/>
<path d="M127.29 54.65C128.04 54.22 128.67 54.56 128.67 55.42C128.643 55.8962 128.506 56.3596 128.268 56.7729C128.03 57.1862 127.698 57.538 127.3 57.8L106.2 70C105.45 70.44 104.84 70.07 104.84 69.2C104.866 68.7289 105.002 68.2707 105.239 67.8623C105.475 67.454 105.804 67.1072 106.2 66.85L127.29 54.65Z" fill="#263238"/>
<path d="M100.78 70C101.53 69.56 102.14 69.91 102.15 70.78C102.123 71.2534 101.985 71.714 101.749 72.1253C101.513 72.5366 101.185 72.8874 100.79 73.15C100.03 73.58 99.4102 73.23 99.4102 72.36C99.4357 71.8864 99.5731 71.4255 99.8113 71.0152C100.049 70.605 100.381 70.2571 100.78 70Z" fill="#263238"/>
<path d="M114.28 52.88C115.79 52.01 117.01 52.7 117.01 54.44C116.964 55.3864 116.695 56.3084 116.223 57.1305C115.752 57.9527 115.093 58.6516 114.3 59.17C112.79 60.05 111.54 59.33 111.53 57.6C111.586 56.6527 111.865 55.7319 112.342 54.912C112.82 54.092 113.484 53.3959 114.28 52.88Z" fill="#263238"/>
<path d="M114.29 271.79C117.36 270.02 119.84 271.43 119.85 274.96C119.753 276.89 119.201 278.77 118.24 280.447C117.279 282.124 115.936 283.55 114.32 284.61C111.25 286.38 108.71 284.93 108.7 281.4C108.81 279.471 109.374 277.596 110.345 275.926C111.317 274.256 112.668 272.839 114.29 271.79Z" fill="#263238"/>
<path d="M191.71 57.26C191 54.77 186 50 180.94 50.14C180.459 50.155 179.983 50.2461 179.53 50.41L82.0003 105.93C80.5774 106.756 79.394 107.938 78.5665 109.36C77.7389 110.782 77.2956 112.395 77.2803 114.04V325.11C77.2803 330.49 83.4803 335.62 89.2803 333.11C89.4117 333.073 89.5391 333.023 89.6603 332.96L187.24 277.35C188.671 276.534 189.861 275.354 190.688 273.93C191.516 272.505 191.951 270.887 191.95 269.24V58.24C191.945 57.8994 191.863 57.5644 191.71 57.26Z" fill="#37474F"/>
<path opacity="0.2" d="M77.2305 114V325.11C77.2305 330.49 83.4305 335.62 89.2305 333.11C88.8802 333.237 88.5045 333.277 88.1352 333.228C87.7659 333.179 87.4139 333.042 87.1088 332.828C86.8037 332.615 86.5547 332.33 86.3826 332C86.2106 331.67 86.1207 331.303 86.1205 330.93V119.88C86.1244 118.043 86.6705 116.248 87.6905 114.72L78.2005 110C77.5834 111.245 77.252 112.611 77.2305 114Z" fill="white"/>
<path opacity="0.4" d="M180.94 50.14C180.459 50.155 179.983 50.2461 179.53 50.41L82 105.93C80.3749 106.854 79.0675 108.249 78.25 109.93L87.8 114.7C88.6016 113.468 89.6803 112.441 90.95 111.7L188.52 56.19C188.796 56.032 189.101 55.9323 189.417 55.8973C189.733 55.8623 190.053 55.8926 190.357 55.9864C190.661 56.0802 190.942 56.2354 191.184 56.4424C191.425 56.6495 191.621 56.9039 191.76 57.19C191 54.77 186 50 180.94 50.14Z" fill="white"/>
<path opacity="0.3" d="M191.71 57.26C191 54.77 186 50 180.94 50.14C180.459 50.155 179.983 50.2461 179.53 50.41L82.0003 105.93C80.5774 106.756 79.394 107.938 78.5665 109.36C77.7389 110.782 77.2956 112.395 77.2803 114.04V325.11C77.2803 330.49 83.4803 335.62 89.2803 333.11C89.4117 333.073 89.5391 333.023 89.6603 332.96L187.24 277.35C188.671 276.534 189.861 275.354 190.688 273.93C191.516 272.505 191.951 270.887 191.95 269.24V58.24C191.945 57.8994 191.863 57.5644 191.71 57.26Z" fill="white"/>
<path d="M157.74 81.36C158.67 80.82 159.43 81.25 159.44 82.36V92.64C159.408 93.2266 159.238 93.7974 158.944 94.3063C158.651 94.8153 158.242 95.2481 157.75 95.57L94.2303 132.2C93.2903 132.74 92.5403 132.31 92.5303 131.2V120.91C92.562 120.323 92.7315 119.752 93.0251 119.243C93.3187 118.734 93.7282 118.301 94.2203 117.98L157.74 81.36Z" fill="#37474F"/>
<g opacity="0.7">
<path d="M157.74 81.36C158.67 80.82 159.43 81.25 159.44 82.36V92.64C159.408 93.2266 159.238 93.7974 158.944 94.3063C158.651 94.8153 158.242 95.2481 157.75 95.57L94.2303 132.2C93.2903 132.74 92.5403 132.31 92.5303 131.2V120.91C92.562 120.323 92.7315 119.752 93.0251 119.243C93.3187 118.734 93.7282 118.301 94.2203 117.98L157.74 81.36Z" fill="white"/>
</g>
<g opacity="0.5">
<path d="M183.05 70.46C185.23 69.2 187 70.21 187.05 72.71C187.029 73.7038 186.808 74.6833 186.4 75.5899L187.06 77.24L185.37 77.4C184.777 78.26 184.006 78.9829 183.11 79.5199C180.94 80.7799 179.17 79.7699 179.16 77.2699C179.225 75.9085 179.612 74.5817 180.288 73.3981C180.964 72.2146 181.911 71.2078 183.05 70.46Z" fill="white"/>
</g>
<g opacity="0.5">
<path d="M168.631 85.92C169.131 85.64 169.541 85.86 169.541 86.44C169.524 86.7523 169.433 87.0561 169.277 87.327C169.12 87.598 168.903 87.8285 168.641 88C168.141 88.28 167.741 88 167.741 87.48C167.758 87.1686 167.847 86.8654 168.001 86.5945C168.156 86.3236 168.372 86.0926 168.631 85.92Z" fill="white"/>
<path d="M173.13 83.33C173.63 83.04 174.03 83.27 174.04 83.84C174.022 84.1532 173.93 84.4575 173.772 84.7285C173.614 84.9995 173.394 85.2296 173.13 85.4C172.64 85.69 172.23 85.46 172.23 84.88C172.25 84.5694 172.341 84.2676 172.497 83.9985C172.653 83.7294 172.87 83.5005 173.13 83.33Z" fill="white"/>
<path d="M175.011 75.26L174.341 82.21L167.431 86.2L166.711 80.06L175.011 75.26Z" fill="white"/>
</g>
<path d="M92.9405 215C92.9418 214.202 93.1532 213.419 93.5535 212.729C93.9537 212.039 94.5287 211.467 95.2205 211.07L183 161.08C183.347 160.882 183.74 160.78 184.138 160.783C184.537 160.786 184.928 160.895 185.272 161.098C185.615 161.301 185.898 161.591 186.093 161.939C186.288 162.288 186.387 162.681 186.38 163.08V205.43C186.377 206.228 186.164 207.012 185.762 207.702C185.36 208.392 184.783 208.963 184.09 209.36L96.2905 259.36C95.944 259.558 95.5514 259.66 95.1525 259.657C94.7536 259.654 94.3626 259.545 94.0193 259.342C93.6759 259.139 93.3925 258.849 93.1978 258.501C93.003 258.152 92.9039 257.759 92.9105 257.36L92.9405 215Z" fill="#37474F"/>
<path opacity="0.5" d="M92.9405 215C92.9418 214.202 93.1532 213.419 93.5535 212.729C93.9537 212.039 94.5287 211.467 95.2205 211.07L183 161.08C183.347 160.882 183.74 160.78 184.138 160.783C184.537 160.786 184.928 160.895 185.272 161.098C185.615 161.301 185.898 161.591 186.093 161.939C186.288 162.288 186.387 162.681 186.38 163.08V205.43C186.377 206.228 186.164 207.012 185.762 207.702C185.36 208.392 184.783 208.963 184.09 209.36L96.2905 259.36C95.944 259.558 95.5514 259.66 95.1525 259.657C94.7536 259.654 94.3626 259.545 94.0193 259.342C93.6759 259.139 93.3925 258.849 93.1978 258.501C93.003 258.152 92.9039 257.759 92.9105 257.36L92.9405 215Z" fill="white"/>
<path d="M131.131 196.03L131.241 235.01L97.3209 254.59L97.2109 215.62L131.131 196.03Z" fill="#37474F"/>
<g opacity="0.2">
<path d="M131.131 196.03L131.241 235.01L97.3209 254.59L97.2109 215.62L131.131 196.03Z" fill="white"/>
</g>
<g opacity="0.6">
<path d="M153.43 199.34L153.441 201.81L135.031 212.41L135.021 209.94L153.43 199.34Z" fill="white"/>
<path d="M176.001 182.17L176.011 184.63L135.021 208.3L135.011 205.83L176.001 182.17Z" fill="white"/>
<path d="M160.501 215.68L160.51 218.15L135.031 232.77L135.021 230.31L160.501 215.68Z" fill="white"/>
<path d="M166.811 207.72L166.821 210.18L135.021 228.66L135.011 226.19L166.811 207.72Z" fill="white"/>
<path d="M175.99 178.05L176 180.51L135 204.18V201.72L175.99 178.05Z" fill="white"/>
<path d="M157.04 182.06L157.05 185.61L134.99 198.35L134.98 194.81L157.04 182.06Z" fill="white"/>
</g>
<path d="M115.001 217.55C118.731 215.4 121.761 217.14 121.781 221.42C121.657 223.755 120.982 226.027 119.813 228.052C118.643 230.077 117.011 231.796 115.051 233.07C111.321 235.23 108.281 233.5 108.271 229.22C108.395 226.882 109.069 224.607 110.238 222.579C111.408 220.551 113.039 218.828 115.001 217.55Z" fill="#E0E0E0"/>
<path d="M110 210.89L120 205.14V213.94C118.251 213.696 116.474 214.098 115 215.07C113.036 216.253 111.334 217.825 110 219.69V210.89Z" fill="#E0E0E0"/>
<path d="M92.9405 158.71C92.9418 157.912 93.1532 157.129 93.5535 156.439C93.9537 155.749 94.5287 155.177 95.2205 154.78L183 104.83C183.347 104.632 183.74 104.53 184.138 104.533C184.537 104.536 184.928 104.645 185.272 104.848C185.615 105.051 185.898 105.341 186.093 105.689C186.288 106.038 186.387 106.431 186.38 106.83V149.18C186.377 149.978 186.164 150.762 185.762 151.452C185.36 152.142 184.783 152.713 184.09 153.11L96.2905 203.11C95.944 203.308 95.5514 203.41 95.1525 203.407C94.7536 203.404 94.3626 203.295 94.0193 203.092C93.6759 202.889 93.3925 202.599 93.1978 202.251C93.003 201.902 92.9039 201.509 92.9105 201.11L92.9405 158.71Z" fill="#37474F"/>
<path opacity="0.1" d="M92.9405 158.71C92.9418 157.912 93.1532 157.129 93.5535 156.439C93.9537 155.749 94.5287 155.177 95.2205 154.78L183 104.83C183.347 104.632 183.74 104.53 184.138 104.533C184.537 104.536 184.928 104.645 185.272 104.848C185.615 105.051 185.898 105.341 186.093 105.689C186.288 106.038 186.387 106.431 186.38 106.83V149.18C186.377 149.978 186.164 150.762 185.762 151.452C185.36 152.142 184.783 152.713 184.09 153.11L96.2905 203.11C95.944 203.308 95.5514 203.41 95.1525 203.407C94.7536 203.404 94.3626 203.295 94.0193 203.092C93.6759 202.889 93.3925 202.599 93.1978 202.251C93.003 201.902 92.9039 201.509 92.9105 201.11L92.9405 158.71Z" fill="black"/>
<path d="M92.9405 269.92C92.9387 269.122 93.1488 268.337 93.5494 267.647C93.95 266.956 94.5266 266.385 95.2205 265.99L183 216C183.347 215.802 183.74 215.7 184.138 215.703C184.537 215.706 184.928 215.815 185.272 216.018C185.615 216.221 185.898 216.511 186.093 216.859C186.288 217.208 186.387 217.601 186.38 218V260.34C186.379 261.139 186.167 261.923 185.764 262.613C185.362 263.303 184.785 263.875 184.09 264.27L96.2905 314.27C95.944 314.468 95.5514 314.57 95.1525 314.567C94.7536 314.564 94.3626 314.455 94.0193 314.252C93.6759 314.049 93.3925 313.759 93.1978 313.41C93.003 313.062 92.9039 312.669 92.9105 312.27L92.9405 269.92Z" fill="#37474F"/>
<path opacity="0.5" d="M92.9405 269.92C92.9387 269.122 93.1488 268.337 93.5494 267.647C93.95 266.956 94.5266 266.385 95.2205 265.99L183 216C183.347 215.802 183.74 215.7 184.138 215.703C184.537 215.706 184.928 215.815 185.272 216.018C185.615 216.221 185.898 216.511 186.093 216.859C186.288 217.208 186.387 217.601 186.38 218V260.34C186.379 261.139 186.167 261.923 185.764 262.613C185.362 263.303 184.785 263.875 184.09 264.27L96.2905 314.27C95.944 314.468 95.5514 314.57 95.1525 314.567C94.7536 314.564 94.3626 314.455 94.0193 314.252C93.6759 314.049 93.3925 313.759 93.1978 313.41C93.003 313.062 92.9039 312.669 92.9105 312.27L92.9405 269.92Z" fill="white"/>
<path d="M131.131 250.99L131.241 289.97L97.3209 309.55L97.2109 270.57L131.131 250.99Z" fill="#37474F"/>
<g opacity="0.2">
<path d="M131.131 250.99L131.241 289.97L97.3209 309.55L97.2109 270.57L131.131 250.99Z" fill="white"/>
</g>
<g opacity="0.6">
<path d="M153.43 254.3L153.441 256.76L135.031 267.36L135.021 264.9L153.43 254.3Z" fill="white"/>
<path d="M176.001 237.12L176.011 239.58L135.021 263.25L135.011 260.79L176.001 237.12Z" fill="white"/>
<path d="M160.501 270.64L160.51 273.1L135.031 287.73L135.021 285.26L160.501 270.64Z" fill="white"/>
<path d="M166.811 262.68L166.821 265.14L135.021 283.61L135.011 281.15L166.811 262.68Z" fill="white"/>
<path d="M175.99 233L176 235.47L135 259.13V256.67L175.99 233Z" fill="white"/>
<path d="M157.04 237.02L157.05 240.57L134.99 253.31L134.98 249.76L157.04 237.02Z" fill="white"/>
</g>
<path d="M125.42 268.8C126.15 268.38 126.71 268.8 126.6 269.7L124.67 285.57C124.561 286.319 124.295 287.036 123.888 287.674C123.481 288.312 122.943 288.856 122.31 289.27L107 298.11C105.82 298.79 104.82 298.38 104.64 297.11L102.64 283.52C102.621 283.074 102.719 282.631 102.924 282.234C103.13 281.838 103.435 281.502 103.81 281.26L108.39 278.62V281.81L109.59 281.13V278L119.67 272.18V275.38L120.87 274.68V271.48L125.42 268.8Z" fill="#E0E0E0"/>
<path d="M114.581 266.32C118.011 264.32 120.821 265.93 120.831 269.88V274.64L119.631 275.34V270.57C119.631 267.38 117.361 266.08 114.631 267.69C113.172 268.645 111.959 269.93 111.09 271.442C110.222 272.954 109.722 274.649 109.631 276.39V281.16L108.431 281.84V277.08C108.536 274.929 109.149 272.833 110.217 270.964C111.286 269.094 112.781 267.503 114.581 266.32Z" fill="white"/>
<path d="M100.75 165.7C100.75 164.792 100.99 163.899 101.447 163.114C101.904 162.329 102.56 161.679 103.35 161.23L203.17 104.44C203.561 104.218 204.004 104.102 204.454 104.104C204.905 104.107 205.346 104.228 205.735 104.454C206.124 104.681 206.446 105.006 206.67 105.397C206.894 105.787 207.011 106.23 207.01 106.68V154.82C207.007 155.726 206.766 156.616 206.309 157.399C205.853 158.182 205.198 158.831 204.41 159.28L104.6 216.16C104.209 216.384 103.766 216.502 103.315 216.501C102.865 216.501 102.422 216.381 102.032 216.155C101.642 215.929 101.318 215.605 101.093 215.214C100.868 214.824 100.75 214.381 100.75 213.93V165.7Z" fill="#37474F"/>
<path opacity="0.6" d="M100.75 165.7C100.75 164.792 100.99 163.899 101.447 163.114C101.904 162.329 102.56 161.679 103.35 161.23L203.17 104.44C203.561 104.218 204.004 104.102 204.454 104.104C204.905 104.107 205.346 104.228 205.735 104.454C206.124 104.681 206.446 105.006 206.67 105.397C206.894 105.787 207.011 106.23 207.01 106.68V154.82C207.007 155.726 206.766 156.616 206.309 157.399C205.853 158.182 205.198 158.831 204.41 159.28L104.6 216.16C104.209 216.384 103.766 216.502 103.315 216.501C102.865 216.501 102.422 216.381 102.032 216.155C101.642 215.929 101.318 215.605 101.093 215.214C100.868 214.824 100.75 214.381 100.75 213.93V165.7Z" fill="white"/>
<path d="M144.17 144.19L144.29 188.49L105.74 210.75L105.61 166.45L144.17 144.19Z" fill="#37474F"/>
<g opacity="0.2">
<path d="M144.17 144.19L144.29 188.49L105.74 210.75L105.61 166.45L144.17 144.19Z" fill="white"/>
</g>
<path d="M136.71 158V166.74C136.665 167.564 136.426 168.366 136.013 169.08C135.599 169.794 135.023 170.401 134.33 170.85C133.02 171.61 131.95 171 131.94 169.49V160.99L136.71 158Z" fill="#E0E0E0"/>
<path d="M140.93 173.33C140.75 175.764 140.352 178.177 139.74 180.54L133.1 184.38C133.29 182.48 133.47 180.57 133.65 178.67C131.247 181.978 128.571 185.079 125.65 187.94C124.507 189.059 123.231 190.033 121.85 190.84L109.48 198C109.202 197.765 109.027 197.432 108.99 197.07L121.46 189.88C122.683 189.16 123.823 188.308 124.86 187.34C128.295 184.228 131.447 180.818 134.28 177.15L140.93 173.33Z" fill="#E0E0E0"/>
<path d="M138.561 156.92C138.701 158.38 138.971 163.79 139.301 165.02C139.631 166.25 140.051 167.46 140.491 168.69C140.931 170.195 141.08 171.769 140.931 173.33L134.281 177.17C131.448 180.838 128.295 184.248 124.861 187.36C123.824 188.329 122.684 189.18 121.461 189.9L109.001 197.09C108.867 195.642 109.196 194.189 109.941 192.94C110.944 191.461 112.18 190.154 113.601 189.07C115.363 187.525 117.01 185.854 118.531 184.07C122.761 179.2 127.641 172.31 129.261 162.67C130.041 162.21 130.971 161.67 131.961 161.02V169.52C131.961 171.03 133.041 171.64 134.351 170.88C135.043 170.431 135.62 169.824 136.033 169.11C136.447 168.396 136.686 167.594 136.731 166.77V158.03C137.381 157.63 138.001 157.24 138.561 156.92Z" fill="white"/>
<g opacity="0.6">
<path d="M169.52 147.94L169.53 150.75L148.6 162.8L148.59 160L169.52 147.94Z" fill="white"/>
<path d="M195.18 128.42L195.19 131.22L148.59 158.12L148.58 155.32L195.18 128.42Z" fill="white"/>
<path d="M177.56 166.52V169.32L148.6 185.94L148.59 183.14L177.56 166.52Z" fill="white"/>
<path d="M184.73 157.47L184.74 160.27L148.59 181.27L148.58 178.47L184.73 157.47Z" fill="white"/>
<path d="M195.17 123.74V126.54L148.57 153.44V150.64L195.17 123.74Z" fill="white"/>
<path d="M173.63 128.3L173.64 132.34L148.56 146.82L148.54 142.79L173.63 128.3Z" fill="white"/>
</g>
<g opacity="0.8">
<path d="M107.941 131.41L105.191 142.85L102.601 144.35L100.941 139.31L99.2508 146.28L96.6508 147.78L93.8408 139.55L96.3308 138.11L98.0808 143.39L99.8708 136.07L102.101 134.78L103.841 140.13L105.631 132.75L107.941 131.41Z" fill="white"/>
<path d="M111.241 129.5L111.271 139.34L108.841 140.74L108.811 130.91L111.241 129.5Z" fill="white"/>
<path d="M116.311 126.38C117.235 125.782 118.31 125.456 119.411 125.44L118.681 127.94C117.845 127.91 117.019 128.122 116.301 128.55C115.301 129.14 114.921 129.74 114.921 130.23C114.921 131.74 119.781 127.81 119.791 131.44C119.791 133.15 118.551 135.34 116.011 136.81C114.948 137.534 113.675 137.886 112.391 137.81L113.181 135.31C114.171 135.411 115.167 135.178 116.011 134.65C117.011 134.06 117.401 133.51 117.401 133.04C117.401 131.48 112.531 135.43 112.521 131.76C112.521 130 113.761 127.85 116.311 126.38Z" fill="white"/>
<path d="M129.041 119.23L129.061 129.06L126.641 130.47L126.631 126.63L123.331 128.54L123.341 132.37L120.921 133.77L120.891 123.93L123.321 122.53L123.331 126.23L126.621 124.32L126.611 120.63L129.041 119.23Z" fill="white"/>
<path d="M133.181 116.84L133.201 124.47L137.291 122.11V124.31L130.781 128.07L130.751 118.24L133.181 116.84Z" fill="white"/>
<path d="M140.66 112.52L140.68 122.36L138.26 123.76L138.23 113.92L140.66 112.52Z" fill="white"/>
<path d="M145.711 109.4C146.641 108.798 147.723 108.472 148.831 108.46L148.091 110.95C147.255 110.932 146.431 111.147 145.711 111.57C144.711 112.15 144.341 112.75 144.341 113.25C144.341 114.76 149.201 110.83 149.211 114.46C149.211 116.17 147.971 118.35 145.421 119.82C144.359 120.548 143.085 120.9 141.801 120.82L142.591 118.32C143.586 118.421 144.586 118.185 145.431 117.65C146.431 117.08 146.821 116.52 146.821 116.05C146.821 114.48 141.941 118.44 141.931 114.78C141.931 113 143.171 110.87 145.711 109.4Z" fill="white"/>
<path d="M157.051 103.06V105.26L154.431 106.78L154.451 114.41L152.031 115.8L152.011 108.17L149.381 109.69L149.371 107.49L157.051 103.06Z" fill="white"/>
<path d="M187.551 86.87L187.561 90.91L162.481 105.39L162.471 101.36L187.551 86.87Z" fill="white"/>
<path d="M181.001 96.13L181.011 100.16L162.481 110.86L162.471 106.83L181.001 96.13Z" fill="white"/>
</g>
<path d="M110.101 236.7C111.849 236.937 113.624 236.536 115.101 235.57C117.062 234.383 118.762 232.811 120.101 230.95V239.74L110.101 245.49V236.7Z" fill="#E0E0E0"/>
<path d="M120 213.94C122.38 214.4 124 216.62 124 220.17C123.836 224.098 122.463 227.88 120.07 231C118.732 232.861 117.031 234.433 115.07 235.62C113.594 236.586 111.819 236.987 110.07 236.75C107.69 236.27 106.12 234.06 106.07 230.52C106.242 226.61 107.611 222.847 109.99 219.74C111.325 217.875 113.026 216.303 114.99 215.12C116.46 214.128 118.242 213.708 120 213.94ZM115.07 233.07C117.031 231.796 118.663 230.077 119.832 228.052C121.002 226.027 121.676 223.755 121.8 221.42C121.8 217.14 118.8 215.42 115.02 217.55C113.059 218.828 111.427 220.551 110.258 222.579C109.088 224.607 108.414 226.882 108.29 229.22C108.29 233.5 111.34 235.22 115.07 233.07Z" fill="white"/>
<path d="M241.149 396.3C240.409 397.85 238.059 399.3 235.489 399.71C232.919 400.12 230.299 399.58 227.719 399.22C223.88 398.68 219.992 398.58 216.129 398.92C213.738 399.233 211.331 399.406 208.919 399.44C206.489 399.461 204.114 398.708 202.139 397.29C200.775 396.219 199.864 394.673 199.589 392.96C199.481 394.07 199.659 395.189 200.105 396.212C200.551 397.234 201.252 398.125 202.139 398.8C204.116 400.214 206.489 400.967 208.919 400.95C211.331 400.916 213.738 400.743 216.129 400.43C219.992 400.09 223.88 400.19 227.719 400.73C230.299 401.09 233.099 401.83 235.719 401.4C238.339 400.97 240.639 399.54 241.379 397.99L241.149 396.3Z" fill="#263238"/>
<path d="M213 391.71C215.16 391.71 214.37 388.51 216.43 386.37C215.59 386.42 214.75 386.43 213.91 386.43C212.07 389.09 211.55 391.71 213 391.71Z" fill="white"/>
<path d="M217.5 391.55C219.68 391.55 219.11 387.73 221.25 385.5C220.762 385.672 220.265 385.816 219.76 385.93C219.34 386.03 218.91 386.1 218.48 386.16C216.57 388.86 216 391.55 217.5 391.55Z" fill="white"/>
<path d="M238.91 384.23C238.767 383.525 238.368 382.898 237.79 382.47L226.1 382.18C224.85 383.745 223.161 384.901 221.25 385.5C219.11 387.73 219.68 391.55 217.5 391.55C216.02 391.55 216.57 388.86 218.5 386.16C217.833 386.26 217.166 386.33 216.5 386.37C214.44 388.51 215.23 391.71 213.07 391.71C211.61 391.71 212.13 389.09 213.98 386.43H212.34C211.84 386.43 211.34 386.43 210.85 386.35C206.55 389.75 206.18 393.44 206.74 399.22C207.48 399.355 208.228 399.435 208.98 399.46C211.391 399.427 213.799 399.253 216.19 398.94C220.052 398.6 223.94 398.7 227.78 399.24C230.36 399.6 232.98 400.16 235.55 399.73C238.12 399.3 240.47 397.87 241.21 396.32L238.91 384.23Z" fill="#455A64"/>
<path d="M210.79 386.33C208.853 386.02 206.878 386.02 204.94 386.33C202.57 386.91 200.3 388.54 199.68 390.91C199.517 391.564 199.487 392.244 199.59 392.91C199.865 394.623 200.776 396.169 202.14 397.24C203.471 398.245 205.031 398.902 206.68 399.15C206.12 393.42 206.49 389.73 210.79 386.33Z" fill="white"/>
<path d="M225.76 378.85V384.48C225.76 384.784 225.82 385.085 225.937 385.366C226.053 385.647 226.224 385.902 226.44 386.117C226.655 386.332 226.911 386.502 227.193 386.617C227.474 386.733 227.776 386.791 228.08 386.79H234C234.985 386.791 235.933 386.408 236.642 385.723C237.351 385.039 237.766 384.105 237.8 383.12L237.94 378.85H225.76Z" fill="#9C5A5A"/>
<path d="M264.72 376.34C264.397 377.029 263.9 377.622 263.277 378.059C262.654 378.496 261.927 378.762 261.17 378.83C259.593 378.944 258.021 378.555 256.68 377.72C254.68 376.43 253.86 374.41 252.48 372.58C251.032 370.813 249.392 369.213 247.59 367.81C245.648 366.375 244.052 364.523 242.92 362.39C242.639 361.754 242.454 361.08 242.37 360.39C242.193 361.686 242.384 363.006 242.92 364.2C244.052 366.33 245.648 368.178 247.59 369.61C249.392 371.016 251.033 372.62 252.48 374.39C253.86 376.21 254.65 378.24 256.68 379.53C258.024 380.358 259.595 380.743 261.17 380.63C261.927 380.564 262.653 380.3 263.276 379.864C263.899 379.429 264.397 378.838 264.72 378.15C264.958 377.121 265.028 376.061 264.93 375.01C264.935 375.462 264.864 375.912 264.72 376.34Z" fill="#263238"/>
<path d="M251.44 364C251.222 364.285 251.119 364.642 251.15 365C251.187 365.164 251.266 365.316 251.378 365.442C251.49 365.568 251.631 365.664 251.79 365.72C252.019 365.782 252.26 365.783 252.49 365.723C252.72 365.663 252.93 365.545 253.1 365.38C253.443 365.053 253.752 364.691 254.02 364.3C254.798 363.304 255.836 362.543 257.02 362.1C257.6 361.891 258.206 361.76 258.82 361.71L257.36 360.37C256.145 360.435 254.967 360.804 253.932 361.443C252.898 362.083 252.041 362.972 251.44 364.03V364Z" fill="white"/>
<path d="M251.75 359.34C250.38 359.98 249.242 361.028 248.49 362.34C248.271 362.625 248.168 362.982 248.2 363.34C248.236 363.506 248.314 363.66 248.426 363.788C248.538 363.916 248.68 364.013 248.84 364.07C249.071 364.131 249.313 364.132 249.545 364.073C249.776 364.013 249.988 363.895 250.16 363.73C250.5 363.403 250.805 363.041 251.07 362.65C251.771 361.748 252.689 361.037 253.738 360.584C254.786 360.132 255.933 359.951 257.07 360.06L255.62 358.74C254.3 358.585 252.962 358.792 251.75 359.34Z" fill="white"/>
<path d="M254.66 357.87C253.332 356.576 251.776 355.539 250.07 354.81C247.98 354.01 245.38 354.13 243.77 355.68C243.179 356.301 242.743 357.054 242.5 357.876C242.256 358.699 242.212 359.567 242.37 360.41C242.455 361.1 242.64 361.774 242.92 362.41C243.302 363.236 243.789 364.009 244.37 364.71C244.93 359.66 249.3 357.3 254.66 357.87Z" fill="white"/>
<path d="M264.83 371.41C264.858 369.698 264.466 368.006 263.69 366.48L260.85 363.48L258.85 361.64C258.235 361.69 257.63 361.821 257.05 362.03C255.866 362.473 254.828 363.234 254.05 364.23C253.782 364.621 253.473 364.983 253.13 365.31C252.96 365.475 252.749 365.593 252.52 365.653C252.29 365.713 252.049 365.712 251.82 365.65C251.661 365.594 251.519 365.498 251.407 365.372C251.296 365.246 251.217 365.094 251.18 364.93C251.148 364.572 251.252 364.215 251.47 363.93C252.07 362.872 252.927 361.983 253.962 361.343C254.996 360.704 256.175 360.335 257.39 360.27L257 360C255.862 359.891 254.716 360.072 253.667 360.524C252.618 360.977 251.701 361.688 251 362.59C250.735 362.981 250.43 363.343 250.09 363.67C249.918 363.835 249.706 363.953 249.474 364.013C249.243 364.072 249.001 364.071 248.77 364.01C248.61 363.953 248.467 363.856 248.355 363.728C248.243 363.6 248.166 363.446 248.13 363.28C248.097 362.922 248.201 362.565 248.42 362.28C249.121 361.051 250.164 360.052 251.423 359.405C252.682 358.759 254.102 358.493 255.51 358.64H255.46L254.59 357.85C249.23 357.28 244.86 359.64 244.3 364.67C245.275 365.807 246.353 366.851 247.52 367.79C249.322 369.193 250.963 370.793 252.41 372.56C253.79 374.39 254.58 376.41 256.61 377.7C257.952 378.535 259.523 378.924 261.1 378.81C261.858 378.742 262.584 378.476 263.207 378.039C263.83 377.602 264.328 377.009 264.65 376.32C264.792 375.898 264.863 375.455 264.86 375.01C264.912 373.81 264.902 372.609 264.83 371.41Z" fill="#455A64"/>
<path d="M254.58 362.5L254.91 368.55C258.73 370.75 262.74 369.55 264.07 368.16L264.32 362.5H254.58Z" fill="#9C5A5A"/>
<path d="M262.09 231.87C261.763 231.221 261.566 230.515 261.51 229.79L261.19 224.6L224.19 226.98C223.7 229.57 223.19 232.75 222.72 236.34C235.943 239.793 249.978 238.2 262.09 231.87Z" fill="#9C5A5A"/>
<path d="M261.37 210.94L269.24 226.15L262.09 238.15L270 250.65L281.94 232.12C282.744 230.864 283.269 229.449 283.48 227.973C283.69 226.496 283.581 224.991 283.16 223.56C281.121 216.331 278.527 209.27 275.4 202.44L261.37 210.94Z" fill="#9C5A5A"/>
<path d="M255.11 181.56C264.17 179.88 269.35 182.9 277.01 203.39C273.88 210.39 260.61 212.99 260.61 212.99L255.11 181.56Z" fill="#37474F"/>
<path opacity="0.3" d="M255.11 181.56C264.17 179.88 269.35 182.9 277.01 203.39C273.88 210.39 260.61 212.99 260.61 212.99L255.11 181.56Z" fill="black"/>
<path d="M238.15 184L228.26 185.95C226.07 189.95 223.84 193.71 221.66 197.71C220.01 200.71 218.32 203.92 218.44 207.35C218.533 209.182 219.137 210.952 220.183 212.459C221.229 213.967 222.676 215.152 224.36 215.88L223.22 229.38C238.75 234.13 257.74 229.96 261.91 226.38C263.13 220.72 264.22 214.7 265.45 209.04C266.358 205.388 266.917 201.658 267.12 197.9C267.326 194.09 266.419 190.303 264.51 187L264.45 186.9C263.149 184.948 261.309 183.417 259.153 182.492C256.998 181.567 254.62 181.288 252.31 181.69L238.15 184Z" fill="#37474F"/>
<path d="M262.67 232.82C262.448 232.521 262.254 232.203 262.09 231.87C249.989 238.189 235.97 239.783 222.76 236.34C219.98 257.08 217.58 292.19 219.05 315.34C220.27 342.34 225.24 380.49 225.24 380.49C231.71 382.43 236.56 381.24 238.39 379.84C240.55 353.09 245.3 334.76 241.63 317.07C244.08 304.7 245.63 289.17 245.63 289.17L247.5 316.49L253.82 364.49C255.597 365.405 257.585 365.834 259.582 365.734C261.578 365.634 263.513 365.008 265.19 363.92C269.79 336.45 271.51 317.84 267.49 304.21C273.66 259.17 274 247.64 262.67 232.82Z" fill="#455A64"/>
<path opacity="0.3" d="M248.38 283.78L251.77 269.55C255.77 268.9 261.91 266.31 265.16 260.88C260.472 264.556 254.707 266.591 248.75 266.67L245.66 289.18L246.32 298.79L246.58 295.29C246.879 291.412 247.481 287.564 248.38 283.78Z" fill="black"/>
<path d="M164.58 167.69L174.53 193.44C175.168 195.094 176.224 196.555 177.594 197.68C178.965 198.805 180.603 199.556 182.35 199.86L199.35 202.86C201.328 200.76 202.663 198.136 203.194 195.3C203.726 192.464 203.433 189.534 202.35 186.86C197.198 186.785 192.065 186.222 187.02 185.18C187.02 185.18 176.27 172.1 171.78 165.35L174.98 154.74C175.127 154.264 175.175 153.762 175.12 153.267C175.065 152.771 174.908 152.292 174.66 151.86L172.94 148.86C172.494 148.089 171.783 147.507 170.94 147.22L168.46 146.37C167.9 146.18 167.307 146.106 166.717 146.152C166.127 146.199 165.553 146.365 165.03 146.64L161.25 148.64C161.011 148.764 160.812 148.953 160.674 149.184C160.536 149.416 160.465 149.681 160.47 149.95C160.474 150.212 160.548 150.469 160.686 150.692C160.823 150.916 161.018 151.098 161.25 151.22L162.67 151.95L164.67 155.27C163.331 157.06 162.601 159.23 162.584 161.465C162.568 163.7 163.267 165.881 164.58 167.69Z" fill="#9C5A5A"/>
<path d="M226.71 185.74C220.59 186.03 211.4 187.04 202.38 186.86C203.463 189.535 203.756 192.464 203.224 195.3C202.693 198.136 201.358 200.76 199.38 202.86L220.62 206.57C222.862 206.924 225.155 206.43 227.053 205.186C228.952 203.942 230.319 202.037 230.89 199.84C231.55 197.15 232.26 194.89 232.66 192.27C232.786 191.433 232.724 190.579 232.479 189.769C232.233 188.959 231.81 188.214 231.239 187.589C230.669 186.963 229.967 186.472 229.183 186.153C228.4 185.833 227.555 185.692 226.71 185.74Z" fill="#37474F"/>
<path opacity="0.3" d="M226.71 185.74C220.59 186.03 211.4 187.04 202.38 186.86C203.463 189.535 203.756 192.464 203.224 195.3C202.693 198.136 201.358 200.76 199.38 202.86L220.62 206.57C222.862 206.924 225.155 206.43 227.053 205.186C228.952 203.942 230.319 202.037 230.89 199.84C231.55 197.15 232.26 194.89 232.66 192.27C232.786 191.433 232.724 190.579 232.479 189.769C232.233 188.959 231.81 188.214 231.239 187.589C230.669 186.963 229.967 186.472 229.183 186.153C228.4 185.833 227.555 185.692 226.71 185.74Z" fill="black"/>
<path d="M226.1 157.39C224.627 154.59 223.955 151.437 224.16 148.28C224.278 146.707 224.774 145.185 225.606 143.844C226.439 142.504 227.582 141.384 228.94 140.58C231.71 139.1 235.56 139.58 237.49 142.08C242.59 139.54 248.98 139.5 253.72 142.66C256.09 144.266 258.005 146.456 259.281 149.019C260.556 151.582 261.148 154.431 261 157.29C260.79 160.56 259.59 163.78 260 167.04C260.21 168.96 261 170.9 260.47 172.76C260.22 173.528 259.815 174.237 259.28 174.843C258.745 175.448 258.092 175.938 257.36 176.28C255.93 177.03 252.59 176.83 251.01 177.16C246.19 181.54 240.13 179.9 236.28 175.99C232.43 172.08 226.1 157.39 226.1 157.39Z" fill="#37474F"/>
<path d="M225.1 161.74L222.09 166.97L225.38 168.19L225.1 161.74Z" fill="#804040"/>
<path d="M224.76 159.41C225.24 154.82 226.58 150.49 229.57 148.29C228.769 153.999 229.982 159.808 233 164.72C233.296 163.204 234.075 161.826 235.22 160.79C235.777 160.253 236.473 159.882 237.229 159.72C237.985 159.557 238.772 159.609 239.5 159.87C240.495 160.344 241.266 161.187 241.65 162.22C242.055 163.213 242.165 164.302 241.966 165.357C241.767 166.411 241.268 167.385 240.529 168.162C239.789 168.94 238.841 169.487 237.799 169.738C236.756 169.99 235.662 169.935 234.65 169.58C235.065 171.619 236.063 173.493 237.525 174.974C238.986 176.455 240.847 177.478 242.88 177.92C245.563 178.467 248.348 178.203 250.88 177.16L252.12 183.35C247.12 188.72 238.48 185.11 238.48 185.11L237.38 179C227.47 179.59 226.55 179.42 225.46 174C224.56 169.192 224.325 164.282 224.76 159.41Z" fill="#9C5A5A"/>
<path opacity="0.3" d="M246.699 152.74C248.095 148.748 250.896 145.399 254.579 143.32C256.689 144.969 258.37 147.103 259.479 149.54C260.588 151.977 261.092 154.646 260.949 157.32C260.739 160.59 259.539 163.81 259.949 167.07C260.159 168.99 260.949 170.93 260.419 172.79C260.17 173.558 259.765 174.267 259.23 174.873C258.695 175.478 258.041 175.967 257.309 176.31C255.879 177.06 252.539 176.86 250.959 177.19C250.749 177.38 250.539 177.54 250.319 177.71C248.646 174.512 247.331 171.138 246.399 167.65C245.031 162.759 245.135 157.572 246.699 152.74Z" fill="black"/>
<path d="M249.45 149.3C250.227 146.731 251.802 144.476 253.947 142.863C256.092 141.25 258.695 140.363 261.379 140.331C264.063 140.298 266.687 141.122 268.87 142.683C271.054 144.244 272.683 146.46 273.52 149.01C276.52 158.01 268.85 167.67 270.52 177.01C271.12 180.39 272.91 183.47 273.52 186.84C273.888 188.796 273.851 190.806 273.412 192.747C272.974 194.688 272.142 196.519 270.97 198.126C269.797 199.734 268.307 201.084 266.593 202.094C264.878 203.105 262.975 203.753 261 204C263.15 201.63 263.19 198 262 195C260.81 192 258.59 189.61 256.7 187C249 176.54 245.7 161.66 249.45 149.3Z" fill="#37474F"/>
</g>
<defs>
<clipPath id="clip0_151_728">
<rect width="452" height="449" fill="white"/>
</clipPath>
</defs>
</svg>
