<svg width="488" height="498" viewBox="0 0 488 498" fill="none" xmlns="http://www.w3.org/2000/svg">
<g clip-path="url(#clip0_151_365)">
<g opacity="0.3">
<path d="M93.5122 319.36C92.8422 315.31 87.6621 307.7 87.6621 307.69C87.6621 307.68 83.6622 312.63 83.4722 312.98C81.0222 316.98 78.6522 326.12 82.0722 330.1C82.6608 330.745 83.379 331.259 84.1799 331.607C84.9808 331.955 85.8462 332.13 86.7195 332.121C87.5928 332.112 88.4543 331.918 89.2475 331.552C90.0406 331.187 90.7476 330.658 91.3222 330C93.8522 327.36 94.0822 322.81 93.5122 319.36Z" fill="black"/>
<path d="M114.142 302.18C112.502 298.6 106.032 293 105.512 292.56C108.704 288.866 111.647 284.964 114.322 280.88C115.902 278.51 117.412 276.07 118.902 273.61C118.392 274.83 117.902 275.93 117.902 276.09C116.602 280.59 116.732 290.09 121.082 292.98C121.818 293.447 122.643 293.754 123.506 293.881C124.368 294.008 125.247 293.951 126.086 293.715C126.924 293.48 127.704 293.069 128.374 292.512C129.044 291.955 129.588 291.262 129.972 290.48C131.722 287.22 130.742 282.77 129.282 279.59C127.822 276.41 122.382 271.49 120.922 270.22C121.492 269.22 122.062 268.32 122.622 267.37C125.292 262.8 127.942 258.22 130.682 253.82C131.682 252.26 132.682 250.77 133.682 249.27C133.222 250.36 132.852 251.27 132.812 251.43C131.502 255.92 131.632 265.38 135.982 268.31C136.718 268.776 137.543 269.082 138.404 269.209C139.265 269.335 140.144 269.28 140.982 269.045C141.82 268.81 142.6 268.402 143.27 267.846C143.94 267.29 144.486 266.6 144.872 265.82C146.622 262.55 145.642 258.1 144.182 254.92C142.722 251.74 137.802 247.3 136.082 245.78C137.162 244.28 138.232 242.78 139.342 241.36C140.112 240.36 140.802 239.45 141.632 238.54L144.032 235.83C145.612 234.16 147.242 232.42 148.832 230.83C149.922 229.72 150.992 228.68 152.062 227.62C151.062 229.16 149.232 232.21 149.062 232.48C147.062 236.73 145.792 246.09 149.642 249.65C150.299 250.223 151.069 250.651 151.902 250.906C152.735 251.162 153.612 251.24 154.477 251.134C155.342 251.028 156.175 250.742 156.922 250.293C157.669 249.845 158.313 249.244 158.812 248.53C161.032 245.53 160.742 241.02 159.812 237.66C158.752 233.96 153.452 227.66 152.812 226.9C154.582 225.17 156.332 223.49 158.002 221.9C159.242 220.75 160.432 219.66 161.592 218.62L159.812 215.88C158.542 217.07 157.232 218.32 155.862 219.65C154.052 221.41 152.152 223.32 150.212 225.3C148.053 223.776 145.806 222.38 143.482 221.12C144.482 217.29 143.572 209.67 143.482 208.69C145.922 208.22 148.292 207.79 150.542 207.42L153.992 206.87L152.112 203.97L150.002 204.36C147.522 204.82 144.882 205.36 142.182 205.96C141.812 205.02 138.792 197.36 136.032 194.66C133.532 192.22 129.662 189.81 126.032 190.36C125.168 190.462 124.334 190.744 123.585 191.189C122.837 191.634 122.19 192.232 121.688 192.943C121.185 193.654 120.838 194.463 120.668 195.317C120.498 196.171 120.51 197.051 120.702 197.9C122.012 202.98 130.872 206.27 135.552 206.55C135.822 206.55 138.832 206.41 140.732 206.29C139.632 206.53 138.552 206.76 137.422 207.02C135.172 207.53 132.952 208.11 130.552 208.72L127.082 209.72C125.912 210.04 124.722 210.52 123.522 210.92C120.772 211.92 118.042 213.02 115.302 214.21C114.852 212.21 113.142 205.29 111.032 202.49C108.922 199.69 105.472 196.72 101.762 196.72C100.892 196.69 100.025 196.843 99.217 197.17C98.4096 197.496 97.6799 197.989 97.0753 198.617C96.4708 199.244 96.005 199.991 95.7081 200.81C95.4113 201.629 95.29 202.501 95.3523 203.37C95.8823 208.58 104.142 213.18 108.722 214.16C109.002 214.22 112.372 214.56 114.222 214.71C112.582 215.44 110.942 216.16 109.312 216.96C104.602 219.25 99.9023 221.71 95.2023 224.15L90.8823 226.35C90.7323 225.65 88.8823 217.35 86.5123 214.2C84.4023 211.41 80.9523 208.44 77.2423 208.43C76.3721 208.4 75.5053 208.553 74.6983 208.88C73.8913 209.206 73.1622 209.7 72.5584 210.327C71.9547 210.954 71.4898 211.702 71.1941 212.521C70.8984 213.34 70.7786 214.212 70.8423 215.08C71.3623 220.29 79.6223 224.89 84.2023 225.87C84.5423 225.95 89.3823 226.43 90.6223 226.49C87.4423 228.1 84.2723 229.68 81.0723 231.11C76.7648 233.061 72.3355 234.731 67.8123 236.11C67.7423 235.78 65.8123 227.11 63.4223 223.88C61.3223 221.09 57.8623 218.11 54.1623 218.11C53.2918 218.077 52.4241 218.227 51.6159 218.553C50.8077 218.878 50.0772 219.37 49.4721 219.996C48.8671 220.623 48.4012 221.37 48.1048 222.19C47.8084 223.009 47.6883 223.881 47.7523 224.75C48.2723 229.97 56.5323 234.57 61.1123 235.55C61.4723 235.63 66.6823 236.14 67.6323 236.17C67.3623 236.24 67.1023 236.35 66.8423 236.43C62.261 237.692 57.5754 238.538 52.8423 238.96C50.2423 239.23 47.7323 239.34 45.2923 239.4C45.1023 237.75 44.1623 230.2 42.2923 227.06C40.4223 223.92 37.4023 220.72 33.7223 220.31C32.8607 220.183 31.9819 220.239 31.1434 220.474C30.3048 220.709 29.5252 221.119 28.8553 221.675C28.1855 222.232 27.6404 222.923 27.2557 223.705C26.8709 224.486 26.6551 225.34 26.6223 226.21C26.5623 231.45 34.2723 236.93 38.7123 238.41C38.9523 238.49 41.5023 239.04 43.3623 239.41C42.2623 239.41 41.1223 239.41 40.0623 239.41C36.0623 239.41 32.4723 239.09 29.2623 238.81C27.4423 238.64 25.7923 238.45 24.2623 238.26C23.2623 236.73 19.0023 230.63 15.9623 228.74C12.9223 226.85 8.70228 225.37 5.24228 226.74C4.419 227.025 3.66492 227.479 3.02916 228.075C2.3934 228.67 1.89025 229.393 1.55248 230.196C1.21472 230.999 1.04993 231.864 1.06885 232.735C1.08776 233.605 1.28997 234.463 1.66228 235.25C4.02228 239.92 13.3923 241.25 18.0123 240.5C18.4123 240.43 24.5523 238.73 24.5023 238.65L24.4423 238.56C25.9123 238.78 27.5023 238.99 29.2423 239.19C32.4523 239.54 36.0823 239.9 40.0623 240.03C44.3458 240.214 48.6365 240.147 52.9123 239.83C57.7072 239.505 62.4632 238.749 67.1223 237.57L67.2923 237.52C65.9823 238.34 62.4223 240.73 62.1623 240.95C58.6023 243.95 53.4923 251.95 55.4923 256.78C55.8492 257.575 56.3693 258.286 57.0188 258.867C57.6683 259.449 58.4327 259.887 59.2624 260.154C60.0921 260.421 60.9686 260.51 61.8351 260.416C62.7016 260.323 63.5388 260.048 64.2923 259.61C67.5423 257.85 69.1823 253.61 69.7223 250.14C70.3223 246.24 68.0123 238.01 67.8223 237.36C72.5347 236.048 77.1548 234.424 81.6523 232.5C84.2723 231.39 86.8823 230.19 89.4923 228.96C88.3823 229.7 87.4023 230.37 87.2723 230.48C83.7123 233.48 78.6023 241.48 80.6023 246.31C80.9542 247.1 81.4674 247.807 82.1088 248.386C82.7503 248.966 83.5058 249.405 84.327 249.675C85.1481 249.946 86.0167 250.041 86.877 249.956C87.7373 249.87 88.5702 249.606 89.3223 249.18C92.5823 247.43 94.2223 243.18 94.7623 239.72C95.3023 236.26 93.4723 229.15 92.9623 227.29C93.9623 226.81 94.9623 226.34 95.9623 225.85C100.722 223.51 105.452 221.16 110.172 218.99C111.832 218.23 113.502 217.54 115.172 216.84C114.172 217.5 113.372 218.06 113.252 218.16C109.692 221.16 104.582 229.16 106.582 233.99C106.938 234.786 107.457 235.498 108.107 236.081C108.756 236.663 109.521 237.101 110.351 237.368C111.181 237.635 112.058 237.725 112.925 237.63C113.792 237.536 114.629 237.26 115.382 236.82C118.632 235.06 120.272 230.82 120.812 227.35C121.352 223.88 119.702 217.48 119.102 215.26C120.832 214.6 122.552 213.93 124.252 213.37C125.422 213.01 126.522 212.58 127.722 212.28L131.222 211.34C133.462 210.82 135.772 210.27 137.972 209.82C139.502 209.5 140.972 209.22 142.442 208.93C140.782 209.67 137.552 211.19 137.302 211.35C133.877 213.637 131.098 216.768 129.232 220.44C128.839 220.681 128.468 220.955 128.122 221.26C127.457 221.822 126.918 222.518 126.54 223.303C126.162 224.087 125.952 224.942 125.926 225.813C125.9 226.683 126.057 227.549 126.387 228.355C126.717 229.161 127.213 229.888 127.842 230.49C131.732 234 140.942 231.85 144.992 229.49C145.232 229.35 147.652 227.56 149.172 226.41C148.382 227.22 147.612 228 146.812 228.85C145.222 230.52 143.682 232.23 142.022 234.06L139.682 236.83C138.882 237.73 138.162 238.83 137.382 239.83C135.632 242.16 133.962 244.61 132.382 247.12C130.922 245.73 125.662 240.87 122.382 239.7C119.102 238.53 114.562 237.96 111.472 239.99C110.728 240.444 110.089 241.049 109.595 241.767C109.1 242.484 108.763 243.298 108.605 244.155C108.446 245.012 108.47 245.892 108.675 246.739C108.879 247.586 109.26 248.38 109.792 249.07C113.102 253.14 122.532 252.41 126.892 250.71C127.162 250.6 130.152 249.03 131.782 248.13C130.782 249.64 129.852 251.13 128.932 252.71C126.262 257.22 123.702 261.86 121.132 266.49C120.342 267.91 119.542 269.31 118.742 270.71C118.232 270.21 112.102 264.3 108.392 262.99C105.092 261.82 100.572 261.25 97.4823 263.29C96.7385 263.744 96.0987 264.349 95.6046 265.067C95.1105 265.784 94.7732 266.598 94.6147 267.455C94.4561 268.312 94.48 269.192 94.6846 270.039C94.8892 270.886 95.2701 271.68 95.8023 272.37C99.1123 276.43 108.542 275.7 112.902 274C113.232 273.87 117.532 271.6 118.592 271C116.842 274.1 115.062 277.17 113.182 280.13C110.668 284.133 107.896 287.968 104.882 291.61C104.642 291.38 98.2723 285.18 94.4823 283.84C91.1823 282.67 86.6623 282.1 83.5723 284.13C82.8285 284.584 82.1887 285.189 81.6946 285.907C81.2005 286.624 80.8632 287.438 80.7047 288.295C80.5462 289.152 80.57 290.032 80.7746 290.879C80.9793 291.726 81.3601 292.52 81.8923 293.21C85.2023 297.28 94.6323 296.55 98.9923 294.85C99.3323 294.71 103.992 292.27 104.762 291.76C104.592 291.98 104.432 292.21 104.252 292.42C101.131 295.992 97.6972 299.278 93.9923 302.24C91.9923 303.91 89.9923 305.38 87.9323 306.77C86.8623 305.5 81.9323 299.77 78.6323 298.13C75.3323 296.49 71.0523 295.54 67.7623 297.23C66.976 297.593 66.2744 298.116 65.7026 298.766C65.1308 299.416 64.7016 300.179 64.4425 301.005C64.1835 301.831 64.1003 302.703 64.1984 303.563C64.2966 304.423 64.5738 305.253 65.0123 306C67.8623 310.4 77.3123 310.71 81.8323 309.5C82.0823 309.44 84.5023 308.5 86.2623 307.77C85.3423 308.39 84.4123 309.04 83.5223 309.61C80.1923 311.76 77.0123 313.53 74.1823 315.07C72.5623 315.93 71.0823 316.68 69.6923 317.37C67.9923 316.66 61.1023 313.91 57.5223 314.01C53.9423 314.11 49.6023 315.2 47.4523 318.22C46.9231 318.911 46.5455 319.707 46.3441 320.554C46.1427 321.401 46.122 322.281 46.2833 323.137C46.4446 323.992 46.7844 324.804 47.2804 325.52C47.7764 326.236 48.4177 326.839 49.1623 327.29C53.7123 329.89 62.2423 325.81 65.7023 322.65C66.0023 322.38 70.1723 317.57 70.0923 317.53H69.9823C71.3323 316.9 72.7823 316.2 74.3423 315.41C77.2123 313.93 80.4423 312.23 83.8223 310.14C87.5022 307.931 91.0484 305.507 94.4423 302.88C98.2594 299.964 101.807 296.711 105.042 293.16L105.152 293.03C104.512 294.42 102.862 298.39 102.772 298.71C101.472 303.21 101.602 312.66 105.942 315.59C106.678 316.056 107.503 316.362 108.364 316.489C109.225 316.615 110.104 316.56 110.942 316.325C111.78 316.09 112.56 315.682 113.23 315.126C113.9 314.57 114.446 313.88 114.832 313.1C116.582 309.81 115.602 305.36 114.142 302.18Z" fill="black"/>
<path d="M44.5318 240.18C44.5318 240.08 38.5318 242.1 38.1318 242.28C33.8918 244.28 26.8618 250.58 27.5118 255.79C27.6513 256.647 27.969 257.465 28.4443 258.192C28.9197 258.919 29.5421 259.538 30.2715 260.009C31.0009 260.48 31.821 260.793 32.6788 260.927C33.5367 261.062 34.4132 261.015 35.2518 260.79C38.8518 259.96 41.5618 256.29 42.9918 253.1C44.6618 249.39 44.5318 240.19 44.5318 240.18Z" fill="black"/>
</g>
<g opacity="0.3">
<path d="M308.113 28.74C310.643 31.97 318.843 36.16 318.853 36.16C318.863 36.16 319.973 29.92 319.983 29.52C320.213 24.84 317.903 15.67 312.983 13.82C312.159 13.5355 311.285 13.4276 310.417 13.5031C309.549 13.5787 308.706 13.8361 307.944 14.2587C307.182 14.6812 306.517 15.2594 305.993 15.9557C305.469 16.652 305.098 17.4507 304.903 18.3C303.973 21.88 305.963 26 308.113 28.74Z" fill="black"/>
<path d="M298.263 53.71C301.423 56.06 309.783 57.86 310.453 58.01C309.414 62.7859 308.702 67.6271 308.323 72.5C308.073 75.34 307.913 78.2 307.793 81.08C307.653 79.76 307.513 78.58 307.483 78.42C306.483 73.84 301.813 65.61 296.593 65.13C295.724 65.0731 294.853 65.1997 294.037 65.5016C293.22 65.8036 292.476 66.2741 291.854 66.8826C291.231 67.491 290.744 68.2238 290.423 69.0331C290.102 69.8425 289.956 70.7102 289.993 71.58C289.993 75.28 292.993 78.72 295.823 80.8C298.653 82.88 305.763 84.6 307.653 85.02C307.653 86.12 307.563 87.22 307.533 88.33C307.383 93.63 307.243 98.91 306.963 104.09C306.863 105.92 306.693 107.71 306.533 109.51C306.413 108.34 306.293 107.35 306.263 107.2C305.263 102.63 300.603 94.4 295.373 93.91C294.504 93.8531 293.633 93.9797 292.817 94.2816C292 94.5836 291.256 95.0541 290.634 95.6626C290.011 96.271 289.524 97.0038 289.203 97.8131C288.882 98.6225 288.736 99.4902 288.773 100.36C288.773 104.06 291.773 107.5 294.603 109.59C297.433 111.68 303.863 113.22 306.093 113.72C305.873 115.56 305.663 117.4 305.363 119.16C305.133 120.37 305.003 121.54 304.703 122.73C304.403 123.92 304.163 125.1 303.903 126.27C303.313 128.49 302.723 130.8 302.093 132.95C301.663 134.46 301.223 135.88 300.793 137.32C300.913 135.5 301.073 131.94 301.053 131.64C300.743 126.97 297.393 118.13 292.313 116.86C291.462 116.671 290.58 116.663 289.726 116.837C288.872 117.012 288.064 117.364 287.355 117.872C286.647 118.38 286.053 119.031 285.613 119.784C285.173 120.536 284.897 121.373 284.803 122.24C284.273 125.9 286.713 129.75 289.173 132.24C291.883 134.98 299.543 137.94 300.503 138.3C299.773 140.68 299.043 142.98 298.323 145.15C297.789 146.75 297.266 148.283 296.753 149.75L299.633 151.3C300.173 149.65 300.723 147.92 301.283 146.09C302.033 143.68 302.783 141.09 303.523 138.43C306.149 138.727 308.79 138.871 311.433 138.86C312.433 142.69 316.853 148.95 317.433 149.75C315.513 151.34 313.643 152.85 311.843 154.26C310.893 155.01 309.983 155.7 309.083 156.4L312.083 158.03L313.753 156.68C315.703 155.09 317.753 153.34 319.843 151.53C320.613 152.18 326.943 157.45 330.653 158.53C334.023 159.47 338.573 159.73 341.523 157.53C342.233 157.025 342.829 156.376 343.272 155.626C343.715 154.875 343.996 154.04 344.095 153.174C344.194 152.308 344.109 151.431 343.847 150.6C343.585 149.769 343.151 149.002 342.573 148.35C338.993 144.52 329.633 145.89 325.403 147.89C325.153 148.01 322.583 149.59 320.983 150.61C321.833 149.87 322.663 149.15 323.533 148.37C325.263 146.85 326.933 145.27 328.743 143.59C329.583 142.74 330.443 141.89 331.303 141.03C332.163 140.17 332.993 139.19 333.853 138.27C335.793 136.09 337.653 133.79 339.473 131.44C340.813 132.94 345.653 138.22 348.853 139.67C352.053 141.12 356.503 142.06 359.753 140.29C360.531 139.899 361.218 139.348 361.769 138.674C362.32 137.999 362.724 137.217 362.953 136.376C363.182 135.536 363.232 134.657 363.099 133.796C362.967 132.936 362.654 132.112 362.183 131.38C359.183 127.05 349.773 126.99 345.283 128.32C345.003 128.4 341.883 129.72 340.193 130.48C341.273 129.05 342.363 127.63 343.423 126.15C346.423 121.88 349.423 117.47 352.343 113.08L355.073 109.08C355.553 109.63 361.163 116.08 364.743 117.65C367.933 119.09 372.393 120.04 375.643 118.26C376.422 117.871 377.11 117.322 377.662 116.648C378.214 115.975 378.618 115.193 378.847 114.353C379.077 113.513 379.126 112.634 378.993 111.774C378.859 110.914 378.546 110.091 378.073 109.36C375.073 105.03 365.663 104.97 361.173 106.3C360.833 106.4 356.353 108.3 355.243 108.84C357.243 105.9 359.243 102.99 361.403 100.2C364.243 96.4204 367.326 92.8295 370.633 89.45C370.853 89.7 376.683 96.45 380.353 98.07C383.543 99.51 388.003 100.46 391.253 98.69C392.031 98.2986 392.718 97.7479 393.269 97.0736C393.82 96.3994 394.224 95.6167 394.453 94.7765C394.682 93.9362 394.732 93.0571 394.599 92.1963C394.467 91.3355 394.154 90.5122 393.683 89.78C390.683 85.45 381.263 85.39 376.783 86.72C376.423 86.82 371.613 88.87 370.783 89.31C370.973 89.11 371.153 88.89 371.353 88.7C374.749 85.4045 378.43 82.4162 382.353 79.77C384.513 78.28 386.663 76.98 388.773 75.77C389.773 77.13 394.173 83.3 397.313 85.16C400.453 87.02 404.653 88.37 408.073 86.97C408.89 86.6695 409.635 86.1997 410.259 85.5915C410.883 84.9833 411.371 84.2503 411.692 83.4405C412.013 82.6306 412.159 81.7622 412.121 80.8919C412.084 80.0216 411.862 79.169 411.473 78.39C409.003 73.76 399.613 72.66 395.013 73.49C394.763 73.49 392.263 74.27 390.453 74.84C391.453 74.3 392.403 73.73 393.333 73.24C396.833 71.37 400.153 69.88 403.103 68.58C404.783 67.85 406.313 67.23 407.763 66.67C409.393 67.51 416.033 70.83 419.613 71.03C423.193 71.23 427.613 70.5 429.993 67.68C430.579 67.0363 431.024 66.276 431.296 65.4488C431.569 64.6217 431.664 63.7462 431.576 62.8798C431.487 62.0134 431.216 61.1754 430.781 60.4207C430.347 59.666 429.758 59.0115 429.053 58.5C424.733 55.5 415.893 58.87 412.183 61.73C411.863 61.98 407.303 66.42 407.383 66.47H407.483C406.083 66.99 404.583 67.56 402.963 68.22C399.963 69.45 396.623 70.88 393.073 72.68C389.23 74.5614 385.503 76.6719 381.913 79C377.866 81.5897 374.057 84.5346 370.533 87.8L370.413 87.92C371.163 86.58 373.143 82.77 373.263 82.46C374.943 78.09 375.603 68.65 371.523 65.37C370.829 64.8422 370.032 64.4664 369.184 64.2673C368.336 64.0681 367.455 64.05 366.599 64.2142C365.743 64.3784 364.932 64.7211 364.217 65.2201C363.503 65.7191 362.901 66.363 362.453 67.11C360.453 70.21 361.033 74.73 362.223 78.02C363.563 81.73 369.543 87.84 370.023 88.33C366.519 91.7395 363.245 95.3774 360.223 99.22C358.453 101.46 356.743 103.76 355.053 106.09C355.663 104.91 356.203 103.85 356.263 103.69C357.933 99.32 358.603 89.89 354.513 86.61C353.82 86.0823 353.024 85.7067 352.176 85.5076C351.329 85.3086 350.449 85.2906 349.594 85.4548C348.739 85.619 347.928 85.9617 347.214 86.4606C346.501 86.9595 345.9 87.6033 345.453 88.35C343.453 91.45 344.033 95.97 345.223 99.26C346.413 102.55 351.423 107.91 352.763 109.26C352.123 110.16 351.473 111.05 350.843 111.95C347.783 116.28 344.763 120.62 341.663 124.78C340.573 126.25 339.443 127.66 338.323 129.07C338.863 128.07 339.323 127.13 339.373 126.99C341.043 122.62 341.703 113.19 337.623 109.9C336.929 109.372 336.132 108.996 335.284 108.797C334.436 108.598 333.555 108.58 332.699 108.744C331.843 108.908 331.032 109.251 330.317 109.75C329.603 110.249 329.001 110.893 328.553 111.64C326.553 114.74 327.143 119.26 328.333 122.55C329.523 125.84 334.043 130.68 335.633 132.34C334.433 133.75 333.243 135.16 332.023 136.48C331.163 137.35 330.403 138.25 329.493 139.09L326.883 141.59C325.163 143.13 323.393 144.72 321.683 146.17C320.493 147.17 319.343 148.17 318.193 149.1C319.293 147.65 321.393 144.77 321.543 144.51C323.443 140.856 324.379 136.777 324.263 132.66C324.491 132.262 324.682 131.843 324.833 131.41C325.147 130.598 325.287 129.729 325.244 128.859C325.2 127.989 324.974 127.139 324.579 126.362C324.185 125.586 323.632 124.901 322.955 124.353C322.278 123.804 321.494 123.405 320.653 123.18C315.553 121.96 308.503 128.26 306.083 132.26C305.933 132.5 304.663 135.26 303.893 136.97C304.193 135.88 304.493 134.82 304.783 133.7C305.383 131.47 305.913 129.24 306.493 126.83C306.733 125.66 306.973 124.48 307.213 123.28C307.453 122.08 307.613 120.82 307.813 119.58C308.233 116.69 308.523 113.75 308.743 110.77C310.693 111.29 317.633 113.03 321.103 112.47C324.573 111.91 328.803 110.24 330.533 106.97C330.966 106.215 331.235 105.377 331.323 104.511C331.412 103.645 331.317 102.771 331.045 101.944C330.774 101.117 330.331 100.356 329.747 99.7113C329.162 99.0663 328.449 98.5514 327.653 98.2C322.793 96.2 314.873 101.39 311.863 104.97C311.673 105.2 309.803 107.97 308.803 109.58C308.923 107.79 309.053 106.01 309.113 104.19C309.293 98.96 309.303 93.65 309.343 88.36C309.343 86.74 309.343 85.13 309.413 83.51C310.103 83.7 318.313 85.94 322.203 85.32C325.653 84.76 329.893 83.09 331.623 79.82C332.057 79.0653 332.328 78.2275 332.417 77.3612C332.506 76.495 332.412 75.6196 332.14 74.7922C331.868 73.9649 331.425 73.204 330.84 72.5592C330.255 71.9144 329.54 71.4002 328.743 71.05C323.883 69.05 315.963 74.24 312.953 77.82C312.733 78.09 310.043 82.15 309.413 83.21C309.473 79.65 309.553 76.11 309.783 72.61C310.069 67.89 310.66 63.1936 311.553 58.55C311.873 58.64 320.433 61.02 324.413 60.38C327.863 59.82 332.113 58.15 333.843 54.88C334.277 54.1253 334.548 53.2875 334.637 52.4212C334.726 51.555 334.632 50.6796 334.36 49.8522C334.088 49.0249 333.645 48.264 333.06 47.6192C332.475 46.9744 331.76 46.4602 330.963 46.11C326.103 44.11 318.183 49.3 315.173 52.88C314.933 53.17 312.053 57.53 311.583 58.36C311.633 58.09 311.663 57.81 311.723 57.54C312.745 52.9087 314.177 48.3776 316.003 44C317.003 41.57 318.053 39.3 319.153 37.12C320.703 37.72 327.813 40.42 331.453 40.23C335.093 40.04 339.343 38.87 341.453 35.81C341.96 35.1079 342.315 34.3074 342.495 33.46C342.675 32.6125 342.675 31.7368 342.496 30.8892C342.317 30.0416 341.963 29.2408 341.456 28.5382C340.949 27.8357 340.301 27.247 339.553 26.81C334.943 24.32 326.503 28.58 323.123 31.81C322.933 31.99 321.263 33.98 320.063 35.45C320.573 34.45 321.063 33.45 321.583 32.53C323.473 29.04 325.413 25.97 327.163 23.26C328.163 21.72 329.103 20.36 329.993 19.09C331.823 18.89 339.193 18 342.283 16.19C345.373 14.38 348.663 11.34 349.093 7.67001C349.225 6.80888 349.176 5.92943 348.946 5.08883C348.717 4.24824 348.313 3.46531 347.762 2.79095C347.21 2.11659 346.522 1.56588 345.744 1.17463C344.965 0.783378 344.113 0.560339 343.243 0.520011C338.003 0.430011 332.473 8.10001 330.963 12.52C330.833 12.91 329.473 19.13 329.573 19.12H329.683C328.793 20.32 327.863 21.62 326.873 23.12C325.073 25.79 323.053 28.84 321.083 32.29C318.918 35.9966 316.971 39.8265 315.253 43.76C313.306 48.1505 311.754 52.705 310.613 57.37V57.54C310.503 56.01 310.043 51.74 309.973 51.41C308.973 46.84 304.313 38.61 299.093 38.12C298.223 38.0631 297.35 38.19 296.533 38.4924C295.715 38.7949 294.97 39.2661 294.347 39.8755C293.723 40.4849 293.235 41.2187 292.914 42.0293C292.593 42.8398 292.446 43.7089 292.483 44.58C292.453 48.19 295.453 51.62 298.263 53.71Z" fill="black"/>
<path d="M389.083 74.7C389.133 74.78 393.453 70.11 393.693 69.79C396.463 66.01 399.593 57.09 396.523 52.79C395.993 52.0994 395.324 51.5282 394.558 51.1135C393.793 50.6988 392.949 50.4498 392.081 50.3828C391.213 50.3158 390.341 50.4324 389.521 50.7248C388.702 51.0172 387.953 51.4789 387.323 52.08C384.553 54.54 383.943 59.08 384.223 62.54C384.553 66.68 389.083 74.69 389.083 74.7Z" fill="black"/>
</g>
<path d="M332.302 271.1L249.942 229.52L333.712 62.57L416.072 104.15L332.302 271.1Z" fill="#FAFAFA" stroke="#263238" stroke-miterlimit="10"/>
<path d="M397.792 120.5C396.482 119.84 395.315 118.929 394.359 117.817C393.402 116.705 392.674 115.416 392.217 114.022C391.76 112.628 391.582 111.158 391.695 109.696C391.807 108.233 392.208 106.807 392.872 105.5C393.084 105.094 393.318 104.7 393.572 104.32L346.322 80.48C346.175 80.915 345.998 81.3393 345.792 81.75C344.462 84.3847 342.14 86.3832 339.336 87.3058C336.533 88.2285 333.477 87.9998 330.842 86.67C330.636 86.5686 330.436 86.4551 330.242 86.33L266.982 212.58L267.612 212.86C270.247 214.19 272.246 216.513 273.168 219.316C274.091 222.12 273.862 225.175 272.532 227.81C272.323 228.222 272.086 228.62 271.822 229L319.112 252.87C319.263 252.436 319.44 252.012 319.642 251.6C320.303 250.291 321.215 249.125 322.327 248.169C323.439 247.213 324.729 246.485 326.122 246.028C327.515 245.571 328.985 245.394 330.447 245.506C331.909 245.617 333.335 246.016 334.642 246.68C335.052 246.889 335.446 247.126 335.822 247.39L399.062 121C398.628 120.862 398.204 120.695 397.792 120.5ZM324.002 183.18C320.783 181.553 318.118 179.008 316.345 175.867C314.572 172.725 313.77 169.129 314.041 165.532C314.311 161.935 315.643 158.499 317.866 155.658C320.089 152.818 323.105 150.7 326.531 149.573C329.958 148.447 333.642 148.361 337.117 149.328C340.592 150.294 343.703 152.27 346.056 155.004C348.408 157.738 349.897 161.109 350.335 164.689C350.772 168.27 350.138 171.9 348.512 175.12C346.33 179.438 342.522 182.713 337.926 184.224C333.33 185.735 328.322 185.36 324.002 183.18Z" fill="white" stroke="#263238" stroke-linecap="round" stroke-linejoin="round"/>
<path d="M331.152 271.46L253.782 221.21L355.132 64.3L432.502 114.55L331.152 271.46Z" fill="#FAFAFA" stroke="#263238" stroke-miterlimit="10"/>
<path d="M412.563 128.83C410.087 127.222 408.351 124.696 407.736 121.809C407.121 118.921 407.677 115.908 409.283 113.43C409.54 113.049 409.817 112.682 410.113 112.33L365.693 83.47C365.493 83.886 365.269 84.29 365.023 84.68C364.23 85.9102 363.203 86.972 362 87.8048C360.797 88.6376 359.442 89.225 358.011 89.5334C356.581 89.8417 355.104 89.865 353.664 89.6019C352.225 89.3388 350.851 88.7945 349.623 88C349.433 87.88 349.253 87.73 349.063 87.6L272.553 206.21C272.753 206.32 272.953 206.43 273.143 206.56C274.375 207.356 275.438 208.387 276.271 209.595C277.103 210.803 277.688 212.163 277.993 213.598C278.298 215.033 278.316 216.514 278.047 217.956C277.777 219.398 277.225 220.772 276.423 222C276.168 222.386 275.891 222.757 275.593 223.11L320.013 251.96C320.215 251.545 320.438 251.141 320.683 250.75C322.293 248.276 324.819 246.542 327.706 245.929C330.594 245.316 333.606 245.874 336.083 247.48C336.464 247.737 336.831 248.014 337.183 248.31L413.763 129.5C413.35 129.3 412.949 129.076 412.563 128.83ZM332.423 183.16C329.395 181.195 327.017 178.376 325.591 175.06C324.165 171.744 323.755 168.079 324.411 164.53C325.068 160.98 326.763 157.705 329.281 155.119C331.8 152.533 335.028 150.751 338.559 150C342.09 149.249 345.764 149.562 349.117 150.899C352.47 152.236 355.351 154.537 357.396 157.512C359.441 160.487 360.558 164.001 360.605 167.611C360.653 171.22 359.629 174.763 357.663 177.79C355.027 181.848 350.888 184.694 346.155 185.701C341.421 186.708 336.482 185.794 332.423 183.16Z" fill="white" stroke="#263238" stroke-linecap="round" stroke-linejoin="round"/>
<path d="M329.643 271.73L259.963 211.25L382.063 69.89L451.733 130.36L329.643 271.73Z" fill="#FAFAFA" stroke="#263238" stroke-miterlimit="10"/>
<path d="M430.003 141.74C428.806 140.709 427.844 139.435 427.18 138.002C426.516 136.569 426.166 135.011 426.152 133.432C426.139 131.853 426.463 130.289 427.103 128.845C427.743 127.401 428.684 126.111 429.863 125.06L389.863 90.34C389.608 90.7226 389.331 91.0899 389.033 91.44C388.075 92.5452 386.908 93.4506 385.6 94.1046C384.291 94.7585 382.867 95.1482 381.408 95.2513C379.949 95.3544 378.484 95.1689 377.096 94.7054C375.709 94.2419 374.427 93.5095 373.323 92.55C373.143 92.39 372.983 92.23 372.823 92.07L280.633 199C280.813 199.14 281.003 199.27 281.173 199.43C282.369 200.461 283.332 201.735 283.996 203.168C284.66 204.601 285.01 206.159 285.023 207.738C285.037 209.317 284.712 210.881 284.072 212.325C283.433 213.769 282.492 215.059 281.313 216.11L321.313 250.83C321.569 250.449 321.846 250.081 322.143 249.73C323.165 248.521 324.437 247.546 325.871 246.873C327.305 246.201 328.867 245.846 330.451 245.832C332.034 245.819 333.602 246.148 335.047 246.796C336.492 247.445 337.78 248.398 338.823 249.59L431.103 142.59C430.716 142.334 430.348 142.05 430.003 141.74ZM343.123 184.46C340.396 182.094 338.432 178.973 337.48 175.492C336.527 172.01 336.628 168.324 337.77 164.899C338.913 161.475 341.045 158.466 343.898 156.254C346.75 154.042 350.194 152.725 353.795 152.47C357.396 152.216 360.992 153.035 364.127 154.824C367.262 156.613 369.797 159.291 371.409 162.521C373.022 165.75 373.641 169.385 373.188 172.967C372.735 176.548 371.23 179.914 368.863 182.64C367.293 184.45 365.381 185.934 363.238 187.005C361.094 188.076 358.76 188.715 356.37 188.884C353.98 189.053 351.579 188.749 349.306 187.99C347.033 187.231 344.932 186.031 343.123 184.46Z" fill="white" stroke="#263238" stroke-linecap="round" stroke-linejoin="round"/>
<path d="M329.433 276.27L268.473 207.03L408.373 83.25L469.333 152.5L329.433 276.27Z" fill="#FAFAFA" stroke="#263238" stroke-miterlimit="10"/>
<path d="M446.322 160.87C444.374 158.653 443.385 155.754 443.572 152.808C443.76 149.863 445.109 147.112 447.322 145.16C447.671 144.857 448.038 144.576 448.422 144.32L413.422 104.56C412.384 105.752 411.103 106.707 409.664 107.362C408.225 108.017 406.663 108.356 405.082 108.356C403.502 108.356 401.939 108.017 400.501 107.362C399.062 106.707 397.781 105.752 396.742 104.56C396.582 104.38 396.452 104.2 396.312 104.02L290.592 197.64C290.752 197.81 290.922 197.96 291.072 198.14C292.038 199.237 292.779 200.514 293.251 201.897C293.724 203.28 293.919 204.743 293.827 206.202C293.734 207.661 293.354 209.087 292.71 210.4C292.066 211.712 291.17 212.884 290.072 213.85C289.725 214.15 289.361 214.431 288.982 214.69L323.982 254.45C324.292 254.094 324.626 253.759 324.982 253.45C326.079 252.483 327.355 251.741 328.739 251.268C330.122 250.795 331.586 250.599 333.045 250.692C334.504 250.785 335.931 251.164 337.243 251.809C338.555 252.454 339.727 253.352 340.692 254.45C340.995 254.795 341.276 255.159 341.532 255.54L447.292 161.82C446.95 161.523 446.626 161.206 446.322 160.87ZM354.512 191.58C352.13 188.872 350.604 185.518 350.127 181.942C349.65 178.367 350.244 174.73 351.834 171.493C353.424 168.255 355.938 165.561 359.059 163.752C362.18 161.943 365.767 161.1 369.366 161.329C372.966 161.558 376.417 162.85 379.283 165.04C382.149 167.23 384.301 170.221 385.467 173.635C386.634 177.048 386.762 180.731 385.835 184.217C384.909 187.703 382.969 190.836 380.262 193.22C378.462 194.81 376.366 196.029 374.094 196.808C371.822 197.586 369.419 197.908 367.022 197.756C364.625 197.604 362.282 196.98 360.127 195.92C357.971 194.86 356.047 193.385 354.462 191.58H354.512Z" fill="white" stroke="#263238" stroke-linecap="round" stroke-linejoin="round"/>
<path d="M311.563 352.73L483.153 281C484.609 280.384 485.763 279.218 486.364 277.755C486.965 276.293 486.965 274.652 486.363 273.19L443.623 170.93C443.007 169.471 441.839 168.315 440.374 167.714C438.909 167.113 437.266 167.115 435.803 167.72L264.213 239.43C262.756 240.046 261.602 241.212 261.001 242.675C260.4 244.137 260.401 245.778 261.003 247.24L303.743 349.52C304.359 350.979 305.527 352.135 306.991 352.736C308.456 353.337 310.099 353.335 311.563 352.73Z" fill="#263238" stroke="#263238" stroke-linecap="round" stroke-linejoin="round"/>
<path d="M282.363 260.643L292.695 265.135C295.235 266.239 298.19 265.075 299.295 262.535L303.787 252.203C304.891 249.663 303.727 246.708 301.187 245.603L290.855 241.111C288.315 240.007 285.36 241.171 284.255 243.711L279.763 254.043C278.659 256.583 279.823 259.538 282.363 260.643Z" fill="white" stroke="#263238" stroke-width="1.00319" stroke-miterlimit="10"/>
<path d="M448.654 276.65L467.984 268.572L464.641 260.572L445.311 268.65L448.654 276.65Z" fill="white" stroke="#263238" stroke-miterlimit="10"/>
<path d="M422.997 287.385L442.327 279.307L438.984 271.307L419.654 279.385L422.997 287.385Z" fill="white" stroke="#263238" stroke-miterlimit="10"/>
<path d="M397.335 298.1L416.665 290.022L413.322 282.023L393.992 290.101L397.335 298.1Z" fill="white" stroke="#263238" stroke-miterlimit="10"/>
<path d="M371.678 308.825L391.008 300.747L387.665 292.748L368.335 300.826L371.678 308.825Z" fill="white" stroke="#263238" stroke-miterlimit="10"/>
<path d="M346.02 319.55L365.35 311.472L362.007 303.472L342.677 311.55L346.02 319.55Z" fill="white" stroke="#263238" stroke-miterlimit="10"/>
<path d="M320.353 330.275L339.683 322.197L336.34 314.197L317.01 322.275L320.353 330.275Z" fill="white" stroke="#263238" stroke-miterlimit="10"/>
<path d="M417.91 258.192L453.793 243.196C455.479 242.491 456.275 240.553 455.57 238.866L445.032 213.649C444.328 211.963 442.389 211.167 440.702 211.872L404.819 226.867C403.133 227.572 402.337 229.511 403.042 231.197L413.58 256.414C414.284 258.101 416.223 258.897 417.91 258.192Z" fill="white" stroke="#263238" stroke-miterlimit="10"/>
<path d="M342.861 227.703L434.842 189.264L432.891 184.595L340.909 223.034L342.861 227.703Z" fill="white" stroke="#263238" stroke-miterlimit="10"/>
<path d="M314.502 59.66V371.16C314.499 375.265 312.868 379.201 309.965 382.103C307.063 385.006 303.127 386.637 299.022 386.64H164.432C160.327 386.637 156.392 385.006 153.489 382.103C150.587 379.201 148.955 375.265 148.952 371.16V59.65C148.952 55.5471 150.582 51.6122 153.483 48.7111C156.384 45.8099 160.319 44.18 164.422 44.18H222.192V44.36C223.632 49.54 226.942 52.91 230.622 52.91H232.732C236.412 52.91 239.732 49.54 241.162 44.36L241.222 44.18H299.022C301.055 44.18 303.068 44.5804 304.946 45.3583C306.824 46.1363 308.531 47.2765 309.968 48.714C311.406 50.1514 312.546 51.8579 313.324 53.7361C314.102 55.6142 314.502 57.6271 314.502 59.66Z" fill="white" stroke="#263238" stroke-linecap="round" stroke-linejoin="round"/>
<path d="M314.502 135.3V59.66C314.502 57.6271 314.102 55.6142 313.324 53.7361C312.546 51.8579 311.406 50.1514 309.968 48.714C308.531 47.2765 306.824 46.1363 304.946 45.3583C303.068 44.5804 301.055 44.18 299.022 44.18H241.322L241.262 44.36C239.822 49.54 236.512 52.91 232.832 52.91H230.722C227.042 52.91 223.722 49.54 222.292 44.36V44.18H164.422C160.319 44.18 156.384 45.8099 153.483 48.7111C150.582 51.6122 148.952 55.5471 148.952 59.65V135.3H314.502Z" fill="#FAFAFA" stroke="#263238" stroke-miterlimit="10"/>
<path d="M280.143 236.09H182.273C176.971 236.09 172.673 240.388 172.673 245.69V276.14C172.673 281.442 176.971 285.74 182.273 285.74H280.143C285.445 285.74 289.743 281.442 289.743 276.14V245.69C289.743 240.388 285.445 236.09 280.143 236.09Z" fill="#FAFAFA" stroke="#263238" stroke-miterlimit="10"/>
<path d="M314.502 74.15V59.66C314.502 57.6271 314.102 55.6142 313.324 53.7361C312.546 51.8579 311.406 50.1514 309.968 48.714C308.531 47.2765 306.824 46.1363 304.946 45.3583C303.068 44.5804 301.055 44.18 299.022 44.18H241.322L241.262 44.36C239.822 49.54 236.512 52.91 232.832 52.91H230.722C227.042 52.91 223.722 49.54 222.292 44.36V44.18H164.422C160.319 44.18 156.384 45.8099 153.483 48.7111C150.582 51.6122 148.952 55.5471 148.952 59.65V74.15H314.502Z" fill="#DBDBDB" stroke="#263238" stroke-linecap="round" stroke-linejoin="round"/>
<path d="M148.952 368.72V371.16C148.955 375.265 150.587 379.201 153.489 382.103C156.392 385.006 160.327 386.637 164.432 386.64H299.022C303.127 386.637 307.063 385.006 309.965 382.103C312.868 379.201 314.499 375.265 314.502 371.16V368.72H148.952Z" fill="#DBDBDB" stroke="#263238" stroke-linecap="round" stroke-linejoin="round"/>
<path d="M325.032 134.06V103H322.222V63.12C322.22 56.608 319.631 50.3637 315.025 45.7599C310.42 41.1562 304.174 38.57 297.662 38.57H165.792C159.28 38.57 153.035 41.1562 148.429 45.7599C143.824 50.3637 141.235 56.608 141.232 63.12V379.62C141.235 386.132 143.824 392.376 148.429 396.98C153.035 401.584 159.28 404.17 165.792 404.17H297.662C304.174 404.17 310.42 401.584 315.025 396.98C319.631 392.376 322.22 386.132 322.222 379.62V160.62H325.032V142.19H322.222V134.06H325.032ZM314.502 362.06C314.502 368.572 311.916 374.817 307.312 379.423C302.709 384.029 296.464 386.617 289.952 386.62H173.502C166.99 386.617 160.746 384.029 156.142 379.423C151.539 374.817 148.952 368.572 148.952 362.06V68.73C148.952 62.2189 151.539 55.9746 156.143 51.3705C160.747 46.7665 166.991 44.18 173.502 44.18H222.192V44.36C223.632 49.54 226.942 52.91 230.622 52.91H232.732C236.412 52.91 239.732 49.54 241.162 44.36L241.222 44.18H289.902C296.413 44.18 302.658 46.7665 307.262 51.3705C311.866 55.9746 314.452 62.2189 314.452 68.73L314.502 362.06Z" fill="#FAFAFA" stroke="#263238" stroke-linecap="round" stroke-linejoin="round"/>
<path d="M295.692 42H167.762C161.482 42 155.459 44.4948 151.018 48.9357C146.577 53.3766 144.082 59.3997 144.082 65.68V377.11C144.082 383.39 146.577 389.413 151.018 393.854C155.459 398.295 161.482 400.79 167.762 400.79H295.692C301.972 400.79 307.995 398.295 312.436 393.854C316.877 389.413 319.372 383.39 319.372 377.11V65.63C319.359 59.3583 316.858 53.3481 312.419 48.918C307.979 44.488 301.964 42 295.692 42ZM314.502 363C314.502 369.281 312.008 375.305 307.567 379.748C303.126 384.19 297.103 386.687 290.822 386.69H172.632C166.351 386.687 160.328 384.19 155.887 379.748C151.447 375.305 148.952 369.281 148.952 363V67.85C148.952 64.7416 149.564 61.6637 150.754 58.7919C151.943 55.9201 153.687 53.3107 155.885 51.1128C158.083 48.9148 160.692 47.1713 163.564 45.9818C166.436 44.7922 169.514 44.18 172.622 44.18H222.192V44.36C223.632 49.54 226.942 52.91 230.622 52.91H232.732C236.412 52.91 239.732 49.54 241.162 44.36L241.222 44.18H290.822C297.102 44.18 303.125 46.6748 307.566 51.1157C312.007 55.5566 314.502 61.5797 314.502 67.86V363Z" fill="#263238" stroke="#263238" stroke-linecap="round" stroke-linejoin="round"/>
<path d="M233.522 45.35C233.522 44.8927 233.387 44.4457 233.132 44.0656C232.878 43.6855 232.517 43.3895 232.094 43.2149C231.671 43.0404 231.206 42.9952 230.758 43.0852C230.31 43.1751 229.898 43.3961 229.575 43.7202C229.253 44.0442 229.034 44.4568 228.946 44.9055C228.858 45.3543 228.905 45.8191 229.081 46.241C229.257 46.6629 229.555 47.023 229.936 47.2756C230.317 47.5282 230.765 47.662 231.222 47.66C231.525 47.66 231.825 47.6002 232.105 47.484C232.385 47.3678 232.639 47.1975 232.852 46.9828C233.066 46.7682 233.235 46.5135 233.35 46.2333C233.465 45.9531 233.524 45.6529 233.522 45.35Z" fill="white"/>
<path d="M163.663 54.19C163.663 56.52 161.043 57.36 161.033 59.19V59.31H163.573V60H160.183V59.34C160.183 56.84 162.803 56.34 162.803 54.18C162.803 53.38 162.543 52.96 161.903 52.96C161.263 52.96 160.993 53.42 160.993 54.1V54.79H160.183V54.2C160.183 53.02 160.723 52.2 161.923 52.2C163.123 52.2 163.663 53 163.663 54.19Z" fill="#263238"/>
<path d="M167.902 54.18V54.37C167.939 54.7024 167.868 55.0378 167.698 55.3262C167.529 55.6146 167.271 55.8404 166.962 55.97C167.272 56.0982 167.531 56.3238 167.7 56.6125C167.87 56.9012 167.941 57.2374 167.902 57.57V58.17C167.902 59.35 167.342 60.17 166.152 60.17C164.962 60.17 164.422 59.4 164.422 58.17V57.63H165.222V58.22C165.222 58.92 165.512 59.34 166.132 59.34C166.752 59.34 167.042 58.93 167.042 58.14V57.55C167.042 56.78 166.712 56.42 166.042 56.4H165.582V55.62H166.092C166.226 55.6213 166.359 55.5937 166.481 55.5391C166.603 55.4844 166.712 55.404 166.801 55.3034C166.889 55.2027 166.954 55.0842 166.993 54.9559C167.031 54.8276 167.041 54.6926 167.022 54.56V54.21C167.022 53.41 166.742 53 166.112 53C165.482 53 165.202 53.44 165.202 54.13V54.53H164.402V54.18C164.402 52.99 164.952 52.18 166.132 52.18C167.312 52.18 167.902 53 167.902 54.18Z" fill="#263238"/>
<path d="M169.572 54.76V55.83H168.742V54.76H169.572ZM169.572 58.97V60H168.742V59L169.572 58.97Z" fill="#263238"/>
<path d="M171.323 55.46C171.436 55.2569 171.603 55.0895 171.807 54.9764C172.01 54.8633 172.24 54.8092 172.473 54.82C173.473 54.82 173.913 55.55 173.913 56.65V58.17C173.913 59.35 173.353 60.17 172.163 60.17C170.973 60.17 170.433 59.4 170.433 58.17V57.65H171.233V58.22C171.233 58.92 171.523 59.34 172.143 59.34C172.763 59.34 173.053 58.92 173.053 58.22V56.72C173.053 56.02 172.763 55.6 172.143 55.6C172.031 55.596 171.919 55.6144 171.814 55.6542C171.71 55.694 171.614 55.7543 171.533 55.8317C171.452 55.909 171.387 56.0018 171.342 56.1046C171.298 56.2073 171.274 56.318 171.273 56.43V56.61H170.463L170.673 52.31H173.673V53.08H171.393L171.323 55.46Z" fill="#263238"/>
<path d="M178.203 54.16V54.31H177.393V54.11C177.393 53.41 177.113 53 176.483 53C175.853 53 175.543 53.42 175.543 54.25V56C175.631 55.7458 175.8 55.5273 176.024 55.3776C176.248 55.2279 176.514 55.155 176.783 55.17C177.783 55.17 178.223 55.89 178.223 57V58.18C178.223 59.36 177.643 60.18 176.453 60.18C175.263 60.18 174.673 59.41 174.673 58.18V54.18C174.673 52.95 175.233 52.18 176.453 52.18C177.673 52.18 178.203 53 178.203 54.16ZM175.543 57.06V58.22C175.543 58.92 175.823 59.34 176.453 59.34C177.083 59.34 177.373 58.92 177.373 58.22V57.06C177.373 56.36 177.073 55.94 176.453 55.94C175.833 55.94 175.543 56.36 175.543 57.06Z" fill="#263238"/>
<path d="M262.653 54.5H260.473V59.96H262.653V54.5Z" fill="#263238"/>
<path d="M265.563 53.41H263.383V59.96H265.563V53.41Z" fill="#263238"/>
<path d="M268.472 52.63H266.292V59.96H268.472V52.63Z" fill="#263238"/>
<path d="M271.393 51.28H269.213V59.96H271.393V51.28Z" fill="#263238"/>
<path d="M298.422 59.82H285.322V51.82H298.422V59.82ZM286.042 59.09H297.692V52.53H286.042V59.09Z" fill="#263238"/>
<path d="M294.053 53.33H287.133V58.3H294.053V53.33Z" fill="#263238"/>
<path d="M299.613 54.87H297.963V56.76H299.613V54.87Z" fill="#263238"/>
<path d="M280.513 58.07C280.424 58.0717 280.337 58.0474 280.263 58C277.593 56.42 275.833 57.89 275.753 58C275.706 58.0429 275.65 58.0758 275.59 58.0966C275.53 58.1174 275.466 58.1257 275.402 58.1211C275.338 58.1164 275.276 58.0988 275.22 58.0694C275.163 58.04 275.113 57.9994 275.073 57.95C275.028 57.9054 274.993 57.8524 274.968 57.7941C274.944 57.7357 274.932 57.6732 274.932 57.61C274.932 57.5468 274.944 57.4843 274.968 57.4259C274.993 57.3676 275.028 57.3146 275.073 57.27C275.173 57.18 277.423 55.27 280.723 57.21C280.834 57.2765 280.914 57.3844 280.946 57.5099C280.978 57.6355 280.959 57.7685 280.893 57.88C280.849 57.9393 280.792 57.9874 280.725 58.0204C280.659 58.0534 280.587 58.0704 280.513 58.07Z" fill="#263238"/>
<path d="M281.503 56.43C281.414 56.433 281.327 56.4085 281.253 56.36C277.393 54.07 274.803 56.28 274.773 56.36C274.724 56.4027 274.667 56.4354 274.606 56.4562C274.545 56.477 274.48 56.4856 274.416 56.4814C274.351 56.4772 274.288 56.4604 274.23 56.4318C274.172 56.4033 274.12 56.3636 274.078 56.315C274.035 56.2664 274.002 56.2099 273.981 56.1487C273.96 56.0874 273.952 56.0227 273.956 55.9582C273.96 55.8936 273.977 55.8305 274.006 55.7725C274.034 55.7145 274.074 55.6627 274.123 55.62C274.123 55.62 277.283 52.92 281.753 55.62C281.862 55.6883 281.94 55.7961 281.972 55.9209C282.004 56.0457 281.986 56.1779 281.923 56.29C281.867 56.3428 281.801 56.3827 281.728 56.4069C281.656 56.4311 281.579 56.439 281.503 56.43Z" fill="#263238"/>
<path d="M282.392 54.52C282.304 54.5206 282.217 54.4964 282.142 54.45C277.262 51.55 274.012 54.28 273.872 54.4C273.828 54.4463 273.774 54.4831 273.715 54.5082C273.655 54.5334 273.592 54.5463 273.527 54.5463C273.463 54.5463 273.399 54.5334 273.34 54.5082C273.281 54.4831 273.227 54.4463 273.182 54.4C273.101 54.3024 273.06 54.1768 273.07 54.0499C273.079 53.923 273.137 53.8047 273.232 53.72C273.232 53.72 277.122 50.38 282.642 53.66C282.753 53.7266 282.834 53.8344 282.866 53.9599C282.897 54.0855 282.878 54.2186 282.812 54.33C282.765 54.3951 282.701 54.4468 282.627 54.4801C282.554 54.5133 282.473 54.5271 282.392 54.52Z" fill="#263238"/>
<path d="M279.042 58.89C279.044 59.1337 278.974 59.3725 278.84 59.576C278.706 59.7796 278.514 59.9388 278.29 60.0335C278.065 60.1281 277.817 60.1539 277.578 60.1076C277.339 60.0612 277.119 59.9449 276.946 59.7733C276.773 59.6017 276.655 59.3825 276.606 59.1436C276.558 58.9048 276.582 58.657 276.675 58.4316C276.767 58.2063 276.925 58.0136 277.128 57.878C277.33 57.7424 277.568 57.67 277.812 57.67C278.136 57.67 278.448 57.7982 278.678 58.0267C278.909 58.2552 279.039 58.5655 279.042 58.89Z" fill="#263238"/>
<path d="M202.623 185.49V163.34H204.042V185.49H202.623ZM207.399 169.985C207.295 169.108 206.874 168.427 206.136 167.943C205.397 167.458 204.492 167.216 203.419 167.216C202.634 167.216 201.948 167.343 201.36 167.597C200.777 167.85 200.321 168.199 199.993 168.644C199.67 169.088 199.508 169.592 199.508 170.158C199.508 170.631 199.62 171.037 199.845 171.378C200.076 171.712 200.37 171.992 200.728 172.217C201.086 172.436 201.461 172.618 201.853 172.762C202.245 172.901 202.606 173.013 202.934 173.1L204.734 173.584C205.196 173.705 205.709 173.872 206.274 174.086C206.845 174.299 207.39 174.591 207.91 174.96C208.434 175.323 208.867 175.79 209.207 176.361C209.548 176.933 209.718 177.633 209.718 178.464C209.718 179.422 209.467 180.287 208.965 181.06C208.469 181.833 207.742 182.447 206.785 182.903C205.833 183.358 204.676 183.586 203.315 183.586C202.046 183.586 200.947 183.381 200.018 182.972C199.096 182.562 198.369 181.991 197.838 181.259C197.313 180.526 197.016 179.675 196.947 178.706H199.162C199.22 179.375 199.445 179.929 199.837 180.368C200.235 180.8 200.737 181.123 201.342 181.337C201.954 181.544 202.611 181.648 203.315 181.648C204.134 181.648 204.87 181.515 205.521 181.25C206.173 180.979 206.69 180.604 207.07 180.125C207.451 179.641 207.641 179.075 207.641 178.429C207.641 177.841 207.477 177.362 207.148 176.993C206.819 176.624 206.387 176.324 205.85 176.093C205.314 175.863 204.734 175.661 204.111 175.488L201.931 174.865C200.546 174.467 199.45 173.898 198.643 173.16C197.835 172.422 197.431 171.456 197.431 170.262C197.431 169.269 197.7 168.404 198.236 167.666C198.778 166.922 199.505 166.345 200.417 165.935C201.334 165.52 202.358 165.312 203.488 165.312C204.63 165.312 205.645 165.517 206.534 165.927C207.422 166.33 208.126 166.884 208.645 167.588C209.17 168.292 209.447 169.091 209.476 169.985H207.399ZM218.61 183.517C217.422 183.517 216.372 183.307 215.461 182.885C214.555 182.459 213.849 181.873 213.341 181.129C212.833 180.379 212.583 179.525 212.588 178.568C212.583 177.818 212.73 177.126 213.03 176.491C213.33 175.851 213.739 175.317 214.258 174.891C214.783 174.458 215.369 174.184 216.015 174.069V173.965C215.167 173.746 214.492 173.27 213.99 172.537C213.488 171.799 213.24 170.959 213.246 170.019C213.24 169.119 213.468 168.315 213.929 167.605C214.391 166.896 215.025 166.336 215.833 165.927C216.646 165.517 217.572 165.312 218.61 165.312C219.637 165.312 220.554 165.517 221.362 165.927C222.169 166.336 222.804 166.896 223.265 167.605C223.733 168.315 223.969 169.119 223.975 170.019C223.969 170.959 223.712 171.799 223.205 172.537C222.703 173.27 222.037 173.746 221.206 173.965V174.069C221.846 174.184 222.423 174.458 222.937 174.891C223.45 175.317 223.86 175.851 224.165 176.491C224.471 177.126 224.627 177.818 224.632 178.568C224.627 179.525 224.367 180.379 223.854 181.129C223.346 181.873 222.64 182.459 221.734 182.885C220.834 183.307 219.793 183.517 218.61 183.517ZM218.61 181.614C219.412 181.614 220.104 181.484 220.687 181.224C221.27 180.965 221.719 180.598 222.037 180.125C222.354 179.652 222.516 179.099 222.521 178.464C222.516 177.795 222.342 177.204 222.002 176.69C221.662 176.177 221.197 175.773 220.609 175.479C220.027 175.185 219.36 175.038 218.61 175.038C217.855 175.038 217.18 175.185 216.586 175.479C215.997 175.773 215.533 176.177 215.193 176.69C214.858 177.204 214.694 177.795 214.699 178.464C214.694 179.099 214.847 179.652 215.158 180.125C215.475 180.598 215.928 180.965 216.517 181.224C217.105 181.484 217.803 181.614 218.61 181.614ZM218.61 173.203C219.245 173.203 219.807 173.076 220.298 172.823C220.794 172.569 221.183 172.214 221.466 171.758C221.748 171.303 221.893 170.769 221.898 170.158C221.893 169.558 221.751 169.036 221.474 168.592C221.197 168.142 220.814 167.796 220.324 167.553C219.833 167.305 219.262 167.181 218.61 167.181C217.947 167.181 217.367 167.305 216.871 167.553C216.375 167.796 215.992 168.142 215.72 168.592C215.449 169.036 215.317 169.558 215.322 170.158C215.317 170.769 215.452 171.303 215.729 171.758C216.012 172.214 216.401 172.569 216.897 172.823C217.393 173.076 217.964 173.203 218.61 173.203ZM233.728 183.517C232.425 183.517 231.314 183.162 230.397 182.453C229.48 181.738 228.779 180.702 228.295 179.347C227.81 177.985 227.568 176.341 227.568 174.415C227.568 172.5 227.81 170.864 228.295 169.509C228.785 168.147 229.489 167.109 230.406 166.394C231.329 165.673 232.436 165.312 233.728 165.312C235.02 165.312 236.125 165.673 237.042 166.394C237.965 167.109 238.669 168.147 239.153 169.509C239.644 170.864 239.889 172.5 239.889 174.415C239.889 176.341 239.647 177.985 239.162 179.347C238.678 180.702 237.977 181.738 237.06 182.453C236.142 183.162 235.032 183.517 233.728 183.517ZM233.728 181.614C235.02 181.614 236.024 180.991 236.739 179.745C237.455 178.499 237.812 176.722 237.812 174.415C237.812 172.88 237.648 171.574 237.319 170.495C236.996 169.416 236.529 168.595 235.917 168.029C235.312 167.464 234.582 167.181 233.728 167.181C232.448 167.181 231.447 167.813 230.726 169.076C230.005 170.334 229.644 172.113 229.644 174.415C229.644 175.949 229.806 177.253 230.129 178.326C230.452 179.398 230.916 180.215 231.522 180.774C232.133 181.334 232.869 181.614 233.728 181.614ZM244.081 183.413C243.654 183.413 243.288 183.26 242.982 182.955C242.676 182.649 242.524 182.283 242.524 181.856C242.524 181.429 242.676 181.063 242.982 180.757C243.288 180.451 243.654 180.298 244.081 180.298C244.508 180.298 244.874 180.451 245.18 180.757C245.486 181.063 245.638 181.429 245.638 181.856C245.638 182.138 245.566 182.398 245.422 182.635C245.284 182.871 245.096 183.061 244.86 183.206C244.629 183.344 244.369 183.413 244.081 183.413ZM254.743 165.312C255.47 165.318 256.197 165.457 256.923 165.728C257.65 165.999 258.313 166.449 258.913 167.077C259.513 167.7 259.995 168.551 260.358 169.63C260.722 170.709 260.903 172.061 260.903 173.688C260.903 175.263 260.753 176.661 260.453 177.884C260.159 179.101 259.732 180.128 259.173 180.965C258.619 181.801 257.944 182.435 257.148 182.868C256.358 183.301 255.464 183.517 254.466 183.517C253.474 183.517 252.588 183.321 251.81 182.929C251.037 182.531 250.402 181.98 249.906 181.276C249.416 180.567 249.102 179.745 248.963 178.81H251.074C251.265 179.623 251.642 180.295 252.208 180.826C252.779 181.351 253.532 181.614 254.466 181.614C255.833 181.614 256.912 181.016 257.702 179.822C258.498 178.628 258.896 176.941 258.896 174.761H258.758C258.435 175.245 258.051 175.664 257.607 176.015C257.163 176.367 256.67 176.638 256.127 176.829C255.585 177.019 255.008 177.114 254.397 177.114C253.382 177.114 252.45 176.863 251.602 176.361C250.76 175.854 250.085 175.159 249.577 174.276C249.076 173.388 248.825 172.373 248.825 171.231C248.825 170.146 249.067 169.154 249.551 168.254C250.042 167.349 250.728 166.628 251.611 166.091C252.499 165.555 253.543 165.295 254.743 165.312ZM254.743 167.216C254.016 167.216 253.361 167.398 252.779 167.761C252.202 168.119 251.743 168.603 251.403 169.215C251.069 169.82 250.901 170.492 250.901 171.231C250.901 171.969 251.063 172.641 251.386 173.247C251.715 173.847 252.162 174.325 252.727 174.683C253.298 175.035 253.947 175.211 254.674 175.211C255.222 175.211 255.732 175.104 256.205 174.891C256.678 174.671 257.091 174.374 257.442 173.999C257.8 173.619 258.08 173.189 258.282 172.71C258.484 172.226 258.585 171.721 258.585 171.196C258.585 170.504 258.417 169.855 258.083 169.249C257.754 168.644 257.298 168.153 256.716 167.778C256.139 167.403 255.481 167.216 254.743 167.216ZM269.947 165.312C270.674 165.318 271.401 165.457 272.128 165.728C272.855 165.999 273.518 166.449 274.118 167.077C274.718 167.7 275.199 168.551 275.563 169.63C275.926 170.709 276.108 172.061 276.108 173.688C276.108 175.263 275.958 176.661 275.658 177.884C275.364 179.101 274.937 180.128 274.377 180.965C273.824 181.801 273.149 182.435 272.353 182.868C271.562 183.301 270.668 183.517 269.67 183.517C268.678 183.517 267.793 183.321 267.014 182.929C266.241 182.531 265.607 181.98 265.111 181.276C264.62 180.567 264.306 179.745 264.168 178.81H266.279C266.469 179.623 266.847 180.295 267.412 180.826C267.983 181.351 268.736 181.614 269.67 181.614C271.038 181.614 272.116 181.016 272.906 179.822C273.703 178.628 274.101 176.941 274.101 174.761H273.962C273.639 175.245 273.255 175.664 272.811 176.015C272.367 176.367 271.874 176.638 271.332 176.829C270.79 177.019 270.213 177.114 269.601 177.114C268.586 177.114 267.654 176.863 266.807 176.361C265.964 175.854 265.289 175.159 264.782 174.276C264.28 173.388 264.029 172.373 264.029 171.231C264.029 170.146 264.271 169.154 264.756 168.254C265.246 167.349 265.933 166.628 266.815 166.091C267.704 165.555 268.748 165.295 269.947 165.312ZM269.947 167.216C269.221 167.216 268.566 167.398 267.983 167.761C267.406 168.119 266.948 168.603 266.608 169.215C266.273 169.82 266.106 170.492 266.106 171.231C266.106 171.969 266.267 172.641 266.59 173.247C266.919 173.847 267.366 174.325 267.931 174.683C268.502 175.035 269.151 175.211 269.878 175.211C270.426 175.211 270.937 175.104 271.41 174.891C271.883 174.671 272.295 174.374 272.647 173.999C273.005 173.619 273.284 173.189 273.486 172.71C273.688 172.226 273.789 171.721 273.789 171.196C273.789 170.504 273.622 169.855 273.287 169.249C272.958 168.644 272.503 168.153 271.92 167.778C271.343 167.403 270.686 167.216 269.947 167.216Z" fill="black"/>
<path d="M196.232 114.08V97.23H202.322V98.45H197.832V104.78H201.492V106H197.832V113H202.362V114.18L196.232 114.08Z" fill="black"/>
<path d="M203.963 107.9V106.7H208.373V107.9H203.963Z" fill="black"/>
<path d="M212.823 114.08L209.973 97.23H211.323L213.553 110.92L216.093 97.48H217.403L220.003 110.94L222.063 97.23H223.393L220.673 114.08H219.443L216.753 100.18L214.113 114.08H212.823Z" fill="black"/>
<path d="M224.042 114.08L227.602 97.23H229.262L232.842 114.08H231.322L230.492 109.57H226.492L225.642 114.08H224.042ZM226.662 108.42H230.242L228.432 99.33L226.662 108.42Z" fill="black"/>
<path d="M234.883 114.08V97.23H236.463V112.9H241.253V114.08H234.883Z" fill="black"/>
<path d="M242.832 114.08V97.23H244.412V112.9H249.202V114.08H242.832Z" fill="black"/>
<path d="M250.763 114.08V97.23H256.863V98.45H252.323V104.78H255.983V106H252.323V113H256.863V114.18L250.763 114.08Z" fill="black"/>
<path d="M261.143 114.08V98.45H257.963V97.23H265.803V98.45H262.723V114.08H261.143Z" fill="black"/>
<path d="M215.032 269V251H221.032C221.958 250.964 222.877 251.178 223.692 251.62C224.391 252.022 224.936 252.645 225.242 253.39C225.605 254.285 225.779 255.245 225.752 256.21C225.817 257.312 225.582 258.411 225.072 259.39C224.645 260.095 223.988 260.632 223.212 260.91C222.363 261.2 221.47 261.342 220.572 261.33H218.972V269H215.032ZM219.032 258.6H220.322C220.71 258.623 221.095 258.533 221.432 258.34C221.692 258.145 221.871 257.86 221.932 257.54C222.02 257.096 222.06 256.643 222.052 256.19C222.058 255.784 222.025 255.379 221.952 254.98C221.902 254.653 221.731 254.357 221.472 254.15C221.13 253.915 220.716 253.805 220.302 253.84H218.992L219.032 258.6Z" fill="#263238"/>
<path d="M225.772 269L229.162 251H233.682L237.032 269H233.372L232.782 265.21H230.142L229.522 269H225.772ZM230.492 262.83H232.402L231.402 255.83L230.492 262.83Z" fill="#263238"/>
<path d="M240.222 269V261.7L236.812 251.08H240.552L242.262 256.76L243.792 251.08H247.382L244.033 261.7V269H240.222Z" fill="#263238"/>
<path d="M139.572 62.92C121.992 55 103.982 45 93.4319 28.22C91.1119 24.54 89.3119 20.91 88.1619 19.22C87.0119 20.96 85.2219 24.59 82.9019 28.22C72.3219 45 54.3219 55 36.7519 62.92C35.9719 63.28 23.4119 67.66 23.4219 67.79C23.4319 67.92 26.0719 132.79 46.0619 161.25C63.1319 185.53 82.7819 194.16 88.1619 196.16C93.5419 194.16 113.162 185.53 130.262 161.25C150.262 132.82 152.902 67.8 152.902 67.79C152.902 67.78 140.322 63.28 139.572 62.92Z" fill="#FAFAFA"/>
<path d="M134.042 67.74C118.352 60.68 102.282 51.74 92.8621 36.74C90.7921 33.45 89.1821 30.21 88.1621 28.66C87.1621 30.21 85.5321 33.45 83.4621 36.74C74.0521 51.72 57.9721 60.68 42.3221 67.74C41.6221 68.05 30.4121 71.96 30.4121 72.08C30.4121 72.2 32.7821 130.08 50.6221 155.49C65.8221 177.15 83.3221 184.85 88.1621 186.64C92.9621 184.85 110.502 177.15 125.732 155.49C143.572 130.12 145.942 72.09 145.942 72.08C145.942 72.07 134.732 68.05 134.042 67.74Z" fill="white"/>
<path d="M88.5819 153.25C110.9 153.25 128.992 135.158 128.992 112.84C128.992 90.5222 110.9 72.43 88.5819 72.43C66.2641 72.43 48.1719 90.5222 48.1719 112.84C48.1719 135.158 66.2641 153.25 88.5819 153.25Z" fill="#263238" stroke="#263238" stroke-linecap="round" stroke-linejoin="round"/>
<path d="M86.0814 125.53H85.7114C85.0415 125.474 84.3934 125.265 83.8176 124.918C83.2418 124.571 82.7537 124.096 82.3914 123.53L70.3214 104.34C69.9912 103.856 69.7618 103.311 69.647 102.736C69.5322 102.162 69.5344 101.57 69.6533 100.997C69.7723 100.423 70.0056 99.8792 70.3394 99.3978C70.6732 98.9164 71.1005 98.5071 71.596 98.1945C72.0914 97.882 72.6448 97.6724 73.223 97.5784C73.8012 97.4844 74.3924 97.5079 74.9614 97.6475C75.5303 97.7871 76.0653 98.0399 76.5343 98.3908C77.0034 98.7418 77.3969 99.1836 77.6914 99.69L86.6914 113.97L111.581 86.19C111.954 85.7331 112.415 85.3564 112.937 85.0829C113.46 84.8093 114.032 84.6445 114.62 84.5983C115.207 84.5522 115.798 84.6257 116.357 84.8145C116.915 85.0032 117.43 85.3033 117.869 85.6965C118.308 86.0897 118.663 86.5679 118.912 87.1022C119.161 87.6364 119.3 88.2157 119.319 88.8049C119.337 89.3941 119.237 89.9811 119.022 90.5302C118.808 91.0794 118.485 91.5794 118.071 92L89.3214 124.08C88.9141 124.536 88.4148 124.902 87.8565 125.151C87.2981 125.401 86.6932 125.53 86.0814 125.53Z" fill="#FAFAFA" stroke="#263238" stroke-miterlimit="10"/>
<path opacity="0.18" d="M101.081 117C78.2728 124.545 58.3858 139.017 44.1914 158.4C44.8014 159.4 45.4214 160.33 46.0614 161.24C63.1314 185.52 82.7814 194.15 88.1614 196.15C93.5414 194.15 113.161 185.52 130.261 161.24C141.621 145.09 147.381 117.12 150.261 95.98C138.901 102.43 122.981 109.82 101.081 117Z" fill="black"/>
<path d="M139.572 62.92C121.992 55 103.982 45 93.4319 28.22C91.1119 24.54 89.3119 20.91 88.1619 19.22C87.0119 20.96 85.2219 24.59 82.9019 28.22C72.3219 45 54.3219 55 36.7519 62.92C35.9719 63.28 23.4119 67.66 23.4219 67.79C23.4319 67.92 26.0719 132.79 46.0619 161.25C63.1319 185.53 82.7819 194.16 88.1619 196.16C93.5419 194.16 113.162 185.53 130.262 161.25C150.262 132.82 152.902 67.8 152.902 67.79C152.902 67.78 140.322 63.28 139.572 62.92Z" stroke="#263238" stroke-miterlimit="10"/>
<path d="M105.387 462.805C124.788 443.404 124.788 411.948 105.387 392.547C85.986 373.146 54.5303 373.146 35.1291 392.547C15.7278 411.948 15.7278 443.404 35.1291 462.805C54.5303 482.206 85.986 482.206 105.387 462.805Z" fill="white" stroke="#263238" stroke-miterlimit="10"/>
<path d="M79.7617 468.296C102.197 463.046 116.129 440.603 110.879 418.168C105.629 395.733 83.1859 381.801 60.7506 387.051C38.3153 392.301 24.3837 414.744 29.6335 437.179C34.8832 459.614 57.3264 473.546 79.7617 468.296Z" fill="white" stroke="#263238" stroke-miterlimit="10"/>
<path d="M78.8328 465.64L77.4228 459C72.4761 459.86 68.4761 459.07 65.4228 456.63C62.3695 454.19 60.1261 450.063 58.6928 444.25L68.3928 440.4C68.8619 442.396 69.5319 444.339 70.3928 446.2C70.9439 447.477 71.8366 448.577 72.9728 449.38C73.4758 449.69 74.0364 449.895 74.6207 449.982C75.205 450.07 75.801 450.039 76.3728 449.89C76.9748 449.831 77.5486 449.606 78.0306 449.241C78.5126 448.876 78.8837 448.384 79.1028 447.82C79.4452 446.697 79.4866 445.504 79.2228 444.36C78.8337 442.182 77.7867 440.175 76.2228 438.61C74.5206 437.033 72.6174 435.688 70.5628 434.61L63.3828 430.68C61.7972 429.741 60.277 428.695 58.8328 427.55C57.427 426.423 56.2173 425.072 55.2528 423.55C54.1547 421.744 53.3892 419.756 52.9928 417.68C52.0661 413.227 52.6095 409.467 54.6228 406.4C56.8631 403.211 60.1799 400.938 63.9628 400L62.6128 393.64L66.0428 392.91L67.3928 399.27C69.6242 398.838 71.9287 398.975 74.0928 399.67C75.8523 400.283 77.4255 401.337 78.6628 402.73C79.8669 404.135 80.8544 405.713 81.5928 407.41C82.3381 409.084 82.9565 410.813 83.4428 412.58L73.5428 416.25C73.1828 414.687 72.7082 413.153 72.1228 411.66C71.7115 410.54 71.0235 409.542 70.1228 408.76C69.6836 408.439 69.1734 408.228 68.6354 408.146C68.0974 408.064 67.5477 408.114 67.0328 408.29C66.4357 408.411 65.8773 408.677 65.4067 409.064C64.936 409.451 64.5673 409.947 64.3328 410.51C63.8577 411.641 63.7459 412.892 64.0128 414.09C64.3257 415.998 65.2777 417.744 66.7128 419.04C68.0937 420.185 69.5614 421.222 71.1028 422.14L78.1028 426.02C79.9805 427.115 81.7694 428.355 83.4528 429.73C85.1463 431.126 86.6255 432.764 87.8428 434.59C89.1581 436.631 90.0712 438.906 90.5328 441.29C91.0711 443.669 91.0471 446.141 90.4628 448.51C89.9045 450.774 88.7474 452.847 87.1128 454.51C85.3473 456.267 83.1665 457.55 80.7728 458.24L82.2028 464.96L78.8328 465.64Z" fill="#263238"/>
<path d="M390.282 448.599C401.865 423.726 391.091 394.173 366.218 382.591C341.345 371.008 311.792 381.782 300.209 406.655C288.627 431.528 299.401 461.081 324.274 472.664C349.147 484.246 378.7 473.472 390.282 448.599Z" fill="white" stroke="#263238" stroke-miterlimit="10"/>
<path d="M355.178 468.174C377.561 462.705 391.272 440.127 385.804 417.744C380.335 395.361 357.756 381.649 335.374 387.118C312.991 392.587 299.279 415.165 304.748 437.548C310.217 459.931 332.795 473.643 355.178 468.174Z" fill="white" stroke="#263238" stroke-miterlimit="10"/>
<path d="M353.832 465.64L352.412 459C347.472 459.86 343.472 459.07 340.412 456.63C337.352 454.19 335.105 450.063 333.672 444.25L343.382 440.4C343.847 442.397 344.517 444.341 345.382 446.2C345.93 447.479 346.823 448.58 347.962 449.38C348.463 449.69 349.022 449.895 349.605 449.983C350.187 450.071 350.782 450.039 351.352 449.89C351.955 449.834 352.53 449.611 353.013 449.245C353.496 448.879 353.866 448.386 354.082 447.82C354.432 446.699 354.477 445.504 354.212 444.36C353.819 442.183 352.772 440.178 351.212 438.61C349.508 437.035 347.605 435.691 345.552 434.61L338.362 430.68C336.78 429.741 335.263 428.695 333.822 427.55C332.414 426.426 331.204 425.074 330.242 423.55C329.144 421.744 328.378 419.756 327.982 417.68C327.029 413.207 327.559 409.45 329.572 406.41C331.812 403.209 335.132 400.926 338.922 399.98L337.572 393.62L341.002 392.89L342.352 399.25C344.58 398.818 346.881 398.955 349.042 399.65C350.803 400.261 352.376 401.315 353.612 402.71C354.823 404.113 355.814 405.69 356.552 407.39C357.294 409.065 357.909 410.793 358.392 412.56L348.502 416.23C348.137 414.668 347.663 413.134 347.082 411.64C346.67 410.52 345.982 409.523 345.082 408.74C344.645 408.419 344.136 408.208 343.6 408.126C343.063 408.044 342.515 408.094 342.002 408.27C341.405 408.391 340.847 408.657 340.376 409.044C339.905 409.431 339.536 409.927 339.302 410.49C338.822 411.62 338.71 412.873 338.982 414.07C339.288 415.978 340.237 417.725 341.672 419.02C343.055 420.163 344.522 421.199 346.062 422.12L353.062 426C354.941 427.092 356.73 428.333 358.412 429.71C360.108 431.103 361.588 432.741 362.802 434.57C364.121 436.611 365.037 438.885 365.502 441.27C366.035 443.65 366.011 446.121 365.432 448.49C364.868 450.754 363.708 452.826 362.072 454.49C360.31 456.247 358.133 457.53 355.742 458.22L357.162 464.94L353.832 465.64Z" fill="#263238"/>
<path d="M470.803 356.81V354.08" stroke="#263238" stroke-miterlimit="10"/>
<path d="M473.182 350.93H389.662V357.03H473.182V350.93Z" fill="white" stroke="#263238" stroke-miterlimit="10"/>
<path d="M393.353 357.57V353.78" stroke="#263238" stroke-miterlimit="10"/>
<path d="M395.933 351.2V354.99" stroke="#263238" stroke-miterlimit="10"/>
<path d="M467.772 351.51V355.14" stroke="#263238" stroke-miterlimit="10"/>
<path d="M463.832 351.51V354.99" stroke="#263238" stroke-miterlimit="10"/>
<path d="M454.133 351.35V355.75" stroke="#263238" stroke-miterlimit="10"/>
<path d="M402.143 351.81V353.78" stroke="#263238" stroke-miterlimit="10"/>
<path d="M403.662 356.35V352.87" stroke="#263238" stroke-miterlimit="10"/>
<path d="M414.422 351.35V355.75" stroke="#263238" stroke-miterlimit="10"/>
<path d="M433.362 351.81V354.84" stroke="#263238" stroke-miterlimit="10"/>
<path d="M476.843 362.81V360.08" stroke="#263238" stroke-miterlimit="10"/>
<path d="M479.222 356.93H395.702V363.03H479.222V356.93Z" fill="white" stroke="#263238" stroke-miterlimit="10"/>
<path d="M399.393 363.56V359.77" stroke="#263238" stroke-miterlimit="10"/>
<path d="M401.973 357.2V360.99" stroke="#263238" stroke-miterlimit="10"/>
<path d="M473.803 357.5V361.14" stroke="#263238" stroke-miterlimit="10"/>
<path d="M469.862 357.5V360.99" stroke="#263238" stroke-miterlimit="10"/>
<path d="M460.162 357.35V361.75" stroke="#263238" stroke-miterlimit="10"/>
<path d="M408.183 357.8V359.77" stroke="#263238" stroke-miterlimit="10"/>
<path d="M409.702 362.35V358.87" stroke="#263238" stroke-miterlimit="10"/>
<path d="M420.462 357.35V361.75" stroke="#263238" stroke-miterlimit="10"/>
<path d="M439.402 357.8V360.84" stroke="#263238" stroke-miterlimit="10"/>
<path d="M474.723 368.8V366.07" stroke="#263238" stroke-miterlimit="10"/>
<path d="M477.102 362.92H393.582V369.02H477.102V362.92Z" fill="white" stroke="#263238" stroke-miterlimit="10"/>
<path d="M397.272 369.56V365.77" stroke="#263238" stroke-miterlimit="10"/>
<path d="M399.853 363.2V366.98" stroke="#263238" stroke-miterlimit="10"/>
<path d="M471.692 363.5V367.14" stroke="#263238" stroke-miterlimit="10"/>
<path d="M467.742 363.5V366.98" stroke="#263238" stroke-miterlimit="10"/>
<path d="M458.053 363.35V367.74" stroke="#263238" stroke-miterlimit="10"/>
<path d="M406.062 363.8V365.77" stroke="#263238" stroke-miterlimit="10"/>
<path d="M407.582 368.35V364.86" stroke="#263238" stroke-miterlimit="10"/>
<path d="M418.343 363.35V367.74" stroke="#263238" stroke-miterlimit="10"/>
<path d="M437.282 363.8V366.83" stroke="#263238" stroke-miterlimit="10"/>
<path d="M476.843 374.8V372.07" stroke="#263238" stroke-miterlimit="10"/>
<path d="M479.232 368.92H395.712V375.02H479.232V368.92Z" fill="white" stroke="#263238" stroke-miterlimit="10"/>
<path d="M399.402 375.56V371.77" stroke="#263238" stroke-miterlimit="10"/>
<path d="M401.982 369.19V372.98" stroke="#263238" stroke-miterlimit="10"/>
<path d="M473.812 369.5V373.13" stroke="#263238" stroke-miterlimit="10"/>
<path d="M469.872 369.5V372.98" stroke="#263238" stroke-miterlimit="10"/>
<path d="M460.172 369.34V373.74" stroke="#263238" stroke-miterlimit="10"/>
<path d="M408.192 369.8V371.77" stroke="#263238" stroke-miterlimit="10"/>
<path d="M409.712 374.34V370.86" stroke="#263238" stroke-miterlimit="10"/>
<path d="M420.473 369.34V373.74" stroke="#263238" stroke-miterlimit="10"/>
<path d="M439.412 369.8V372.83" stroke="#263238" stroke-miterlimit="10"/>
<path d="M470.803 380.8V378.07" stroke="#263238" stroke-miterlimit="10"/>
<path d="M473.182 374.92H389.662V381.02H473.182V374.92Z" fill="white" stroke="#263238" stroke-miterlimit="10"/>
<path d="M393.353 381.55V377.76" stroke="#263238" stroke-miterlimit="10"/>
<path d="M395.933 375.19V378.98" stroke="#263238" stroke-miterlimit="10"/>
<path d="M467.772 375.49V379.13" stroke="#263238" stroke-miterlimit="10"/>
<path d="M463.832 375.49V378.98" stroke="#263238" stroke-miterlimit="10"/>
<path d="M454.133 375.34V379.74" stroke="#263238" stroke-miterlimit="10"/>
<path d="M402.143 375.79V377.76" stroke="#263238" stroke-miterlimit="10"/>
<path d="M403.662 380.34V376.86" stroke="#263238" stroke-miterlimit="10"/>
<path d="M414.422 375.34V379.74" stroke="#263238" stroke-miterlimit="10"/>
<path d="M433.362 375.79V378.83" stroke="#263238" stroke-miterlimit="10"/>
<path d="M470.803 386.79V384.06" stroke="#263238" stroke-miterlimit="10"/>
<path d="M473.182 380.91H389.662V387.01H473.182V380.91Z" fill="white" stroke="#263238" stroke-miterlimit="10"/>
<path d="M393.353 387.55V383.76" stroke="#263238" stroke-miterlimit="10"/>
<path d="M395.933 381.18V384.97" stroke="#263238" stroke-miterlimit="10"/>
<path d="M467.772 381.49V385.13" stroke="#263238" stroke-miterlimit="10"/>
<path d="M463.832 381.49V384.97" stroke="#263238" stroke-miterlimit="10"/>
<path d="M454.133 381.34V385.73" stroke="#263238" stroke-miterlimit="10"/>
<path d="M402.143 381.79V383.76" stroke="#263238" stroke-miterlimit="10"/>
<path d="M403.662 386.34V382.85" stroke="#263238" stroke-miterlimit="10"/>
<path d="M414.422 381.34V385.73" stroke="#263238" stroke-miterlimit="10"/>
<path d="M433.362 381.79V384.82" stroke="#263238" stroke-miterlimit="10"/>
<path d="M470.803 392.79V390.06" stroke="#263238" stroke-miterlimit="10"/>
<path d="M473.182 386.91H389.662V393.01H473.182V386.91Z" fill="white" stroke="#263238" stroke-miterlimit="10"/>
<path d="M393.353 393.55V389.76" stroke="#263238" stroke-miterlimit="10"/>
<path d="M395.933 387.18V390.97" stroke="#263238" stroke-miterlimit="10"/>
<path d="M467.772 387.48V391.12" stroke="#263238" stroke-miterlimit="10"/>
<path d="M463.832 387.48V390.97" stroke="#263238" stroke-miterlimit="10"/>
<path d="M454.133 387.33V391.73" stroke="#263238" stroke-miterlimit="10"/>
<path d="M402.143 387.79V389.76" stroke="#263238" stroke-miterlimit="10"/>
<path d="M403.662 392.33V388.85" stroke="#263238" stroke-miterlimit="10"/>
<path d="M414.422 387.33V391.73" stroke="#263238" stroke-miterlimit="10"/>
<path d="M433.362 387.79V390.82" stroke="#263238" stroke-miterlimit="10"/>
<path d="M477.332 398.79V396.06" stroke="#263238" stroke-miterlimit="10"/>
<path d="M479.712 392.91H396.192V399.01H479.712V392.91Z" fill="white" stroke="#263238" stroke-miterlimit="10"/>
<path d="M399.893 399.54V395.75" stroke="#263238" stroke-miterlimit="10"/>
<path d="M402.462 393.18V396.97" stroke="#263238" stroke-miterlimit="10"/>
<path d="M474.303 393.48V397.12" stroke="#263238" stroke-miterlimit="10"/>
<path d="M470.362 393.48V396.97" stroke="#263238" stroke-miterlimit="10"/>
<path d="M460.662 393.33V397.72" stroke="#263238" stroke-miterlimit="10"/>
<path d="M408.683 393.78V395.75" stroke="#263238" stroke-miterlimit="10"/>
<path d="M410.192 398.33V394.85" stroke="#263238" stroke-miterlimit="10"/>
<path d="M420.952 393.33V397.72" stroke="#263238" stroke-miterlimit="10"/>
<path d="M439.902 393.78V396.82" stroke="#263238" stroke-miterlimit="10"/>
<path d="M479.612 404.78V402.05" stroke="#263238" stroke-miterlimit="10"/>
<path d="M482.002 398.9H398.482V405H482.002V398.9Z" fill="white" stroke="#263238" stroke-miterlimit="10"/>
<path d="M402.172 405.54V401.75" stroke="#263238" stroke-miterlimit="10"/>
<path d="M404.752 399.17V402.96" stroke="#263238" stroke-miterlimit="10"/>
<path d="M476.582 399.48V403.12" stroke="#263238" stroke-miterlimit="10"/>
<path d="M472.643 399.48V402.96" stroke="#263238" stroke-miterlimit="10"/>
<path d="M462.942 399.33V403.72" stroke="#263238" stroke-miterlimit="10"/>
<path d="M410.962 399.78V401.75" stroke="#263238" stroke-miterlimit="10"/>
<path d="M412.482 404.33V400.84" stroke="#263238" stroke-miterlimit="10"/>
<path d="M423.242 399.33V403.72" stroke="#263238" stroke-miterlimit="10"/>
<path d="M442.183 399.78V402.81" stroke="#263238" stroke-miterlimit="10"/>
<path d="M476.853 410.78V408.05" stroke="#263238" stroke-miterlimit="10"/>
<path d="M479.232 404.9H395.712V411H479.232V404.9Z" fill="white" stroke="#263238" stroke-miterlimit="10"/>
<path d="M399.412 411.54V407.75" stroke="#263238" stroke-miterlimit="10"/>
<path d="M401.982 405.17V408.96" stroke="#263238" stroke-miterlimit="10"/>
<path d="M473.822 405.47V409.11" stroke="#263238" stroke-miterlimit="10"/>
<path d="M469.883 405.47V408.96" stroke="#263238" stroke-miterlimit="10"/>
<path d="M460.183 405.32V409.72" stroke="#263238" stroke-miterlimit="10"/>
<path d="M408.202 405.78V407.75" stroke="#263238" stroke-miterlimit="10"/>
<path d="M409.712 410.32V406.84" stroke="#263238" stroke-miterlimit="10"/>
<path d="M420.473 405.32V409.72" stroke="#263238" stroke-miterlimit="10"/>
<path d="M439.422 405.78V408.81" stroke="#263238" stroke-miterlimit="10"/>
<path d="M470.803 416.78V414.05" stroke="#263238" stroke-miterlimit="10"/>
<path d="M473.182 410.9H389.662V417H473.182V410.9Z" fill="white" stroke="#263238" stroke-miterlimit="10"/>
<path d="M393.353 417.53V413.74" stroke="#263238" stroke-miterlimit="10"/>
<path d="M395.933 411.17V414.96" stroke="#263238" stroke-miterlimit="10"/>
<path d="M467.772 411.47V415.11" stroke="#263238" stroke-miterlimit="10"/>
<path d="M463.832 411.47V414.96" stroke="#263238" stroke-miterlimit="10"/>
<path d="M454.133 411.32V415.71" stroke="#263238" stroke-miterlimit="10"/>
<path d="M402.143 411.77V413.74" stroke="#263238" stroke-miterlimit="10"/>
<path d="M403.662 416.32V412.84" stroke="#263238" stroke-miterlimit="10"/>
<path d="M414.422 411.32V415.71" stroke="#263238" stroke-miterlimit="10"/>
<path d="M433.362 411.77V414.81" stroke="#263238" stroke-miterlimit="10"/>
<path d="M468.782 422.77V420.04" stroke="#263238" stroke-miterlimit="10"/>
<path d="M471.163 416.89H387.643V422.99H471.163V416.89Z" fill="white" stroke="#263238" stroke-miterlimit="10"/>
<path d="M391.343 423.53V419.74" stroke="#263238" stroke-miterlimit="10"/>
<path d="M393.912 417.16V420.95" stroke="#263238" stroke-miterlimit="10"/>
<path d="M465.752 417.47V421.1" stroke="#263238" stroke-miterlimit="10"/>
<path d="M461.812 417.47V420.95" stroke="#263238" stroke-miterlimit="10"/>
<path d="M452.112 417.32V421.71" stroke="#263238" stroke-miterlimit="10"/>
<path d="M400.133 417.77V419.74" stroke="#263238" stroke-miterlimit="10"/>
<path d="M401.643 422.32V418.83" stroke="#263238" stroke-miterlimit="10"/>
<path d="M412.402 417.32V421.71" stroke="#263238" stroke-miterlimit="10"/>
<path d="M431.353 417.77V420.8" stroke="#263238" stroke-miterlimit="10"/>
<path d="M468.383 428.77V426.04" stroke="#263238" stroke-miterlimit="10"/>
<path d="M470.762 422.89H387.242V428.99H470.762V422.89Z" fill="white" stroke="#263238" stroke-miterlimit="10"/>
<path d="M390.933 429.53V425.74" stroke="#263238" stroke-miterlimit="10"/>
<path d="M393.513 423.16V426.95" stroke="#263238" stroke-miterlimit="10"/>
<path d="M465.353 423.46V427.1" stroke="#263238" stroke-miterlimit="10"/>
<path d="M461.412 423.46V426.95" stroke="#263238" stroke-miterlimit="10"/>
<path d="M451.712 423.31V427.71" stroke="#263238" stroke-miterlimit="10"/>
<path d="M399.723 423.77V425.74" stroke="#263238" stroke-miterlimit="10"/>
<path d="M401.242 428.31V424.83" stroke="#263238" stroke-miterlimit="10"/>
<path d="M412.002 423.31V427.71" stroke="#263238" stroke-miterlimit="10"/>
<path d="M430.942 423.77V426.8" stroke="#263238" stroke-miterlimit="10"/>
<path d="M468.582 434.77V432.04" stroke="#263238" stroke-miterlimit="10"/>
<path d="M470.962 428.89H387.442V434.99H470.962V428.89Z" fill="white" stroke="#263238" stroke-miterlimit="10"/>
<path d="M391.143 435.52V431.73" stroke="#263238" stroke-miterlimit="10"/>
<path d="M393.712 429.16V432.95" stroke="#263238" stroke-miterlimit="10"/>
<path d="M465.553 429.46V433.1" stroke="#263238" stroke-miterlimit="10"/>
<path d="M461.612 429.46V432.95" stroke="#263238" stroke-miterlimit="10"/>
<path d="M451.912 429.31V433.7" stroke="#263238" stroke-miterlimit="10"/>
<path d="M399.933 429.76V431.73" stroke="#263238" stroke-miterlimit="10"/>
<path d="M401.442 434.31V430.82" stroke="#263238" stroke-miterlimit="10"/>
<path d="M412.202 429.31V433.7" stroke="#263238" stroke-miterlimit="10"/>
<path d="M431.152 429.76V432.8" stroke="#263238" stroke-miterlimit="10"/>
<path d="M467.372 440.76V438.03" stroke="#263238" stroke-miterlimit="10"/>
<path d="M469.752 434.88H386.232V440.98H469.752V434.88Z" fill="white" stroke="#263238" stroke-miterlimit="10"/>
<path d="M389.933 441.52V437.73" stroke="#263238" stroke-miterlimit="10"/>
<path d="M392.502 435.15V438.94" stroke="#263238" stroke-miterlimit="10"/>
<path d="M464.343 435.46V439.09" stroke="#263238" stroke-miterlimit="10"/>
<path d="M460.402 435.46V438.94" stroke="#263238" stroke-miterlimit="10"/>
<path d="M450.702 435.31V439.7" stroke="#263238" stroke-miterlimit="10"/>
<path d="M398.723 435.76V437.73" stroke="#263238" stroke-miterlimit="10"/>
<path d="M400.232 440.31V436.82" stroke="#263238" stroke-miterlimit="10"/>
<path d="M410.992 435.31V439.7" stroke="#263238" stroke-miterlimit="10"/>
<path d="M429.942 435.76V438.79" stroke="#263238" stroke-miterlimit="10"/>
<path d="M467.572 446.76V444.03" stroke="#263238" stroke-miterlimit="10"/>
<path d="M469.953 440.88H386.433V446.98H469.953V440.88Z" fill="white" stroke="#263238" stroke-miterlimit="10"/>
<path d="M390.133 447.52V443.73" stroke="#263238" stroke-miterlimit="10"/>
<path d="M392.702 441.15V444.94" stroke="#263238" stroke-miterlimit="10"/>
<path d="M464.542 441.45V445.09" stroke="#263238" stroke-miterlimit="10"/>
<path d="M460.603 441.45V444.94" stroke="#263238" stroke-miterlimit="10"/>
<path d="M450.902 441.3V445.7" stroke="#263238" stroke-miterlimit="10"/>
<path d="M398.922 441.76V443.73" stroke="#263238" stroke-miterlimit="10"/>
<path d="M400.433 446.3V442.82" stroke="#263238" stroke-miterlimit="10"/>
<path d="M411.192 441.3V445.7" stroke="#263238" stroke-miterlimit="10"/>
<path d="M430.143 441.76V444.79" stroke="#263238" stroke-miterlimit="10"/>
<path d="M468.383 452.75V450.03" stroke="#263238" stroke-miterlimit="10"/>
<path d="M470.762 446.88H387.242V452.98H470.762V446.88Z" fill="white" stroke="#263238" stroke-miterlimit="10"/>
<path d="M390.933 453.51V449.72" stroke="#263238" stroke-miterlimit="10"/>
<path d="M393.513 447.15V450.94" stroke="#263238" stroke-miterlimit="10"/>
<path d="M465.353 447.45V451.09" stroke="#263238" stroke-miterlimit="10"/>
<path d="M461.412 447.45V450.94" stroke="#263238" stroke-miterlimit="10"/>
<path d="M451.712 447.3V451.69" stroke="#263238" stroke-miterlimit="10"/>
<path d="M399.723 447.75V449.72" stroke="#263238" stroke-miterlimit="10"/>
<path d="M401.242 452.3V448.81" stroke="#263238" stroke-miterlimit="10"/>
<path d="M412.002 447.3V451.69" stroke="#263238" stroke-miterlimit="10"/>
<path d="M430.942 447.75V450.78" stroke="#263238" stroke-miterlimit="10"/>
<path d="M468.582 458.75V456.02" stroke="#263238" stroke-miterlimit="10"/>
<path d="M470.962 452.87H387.442V458.97H470.962V452.87Z" fill="white" stroke="#263238" stroke-miterlimit="10"/>
<path d="M391.143 459.51V455.72" stroke="#263238" stroke-miterlimit="10"/>
<path d="M393.712 453.14V456.93" stroke="#263238" stroke-miterlimit="10"/>
<path d="M465.553 453.45V457.08" stroke="#263238" stroke-miterlimit="10"/>
<path d="M461.612 453.45V456.93" stroke="#263238" stroke-miterlimit="10"/>
<path d="M451.912 453.3V457.69" stroke="#263238" stroke-miterlimit="10"/>
<path d="M399.933 453.75V455.72" stroke="#263238" stroke-miterlimit="10"/>
<path d="M401.442 458.3V454.81" stroke="#263238" stroke-miterlimit="10"/>
<path d="M412.202 453.3V457.69" stroke="#263238" stroke-miterlimit="10"/>
<path d="M431.152 453.75V456.78" stroke="#263238" stroke-miterlimit="10"/>
<path d="M470.803 464.75V462.02" stroke="#263238" stroke-miterlimit="10"/>
<path d="M473.182 458.87H389.662V464.97H473.182V458.87Z" fill="white" stroke="#263238" stroke-miterlimit="10"/>
<path d="M393.353 465.51V461.72" stroke="#263238" stroke-miterlimit="10"/>
<path d="M395.933 459.14V462.93" stroke="#263238" stroke-miterlimit="10"/>
<path d="M467.772 459.44V463.08" stroke="#263238" stroke-miterlimit="10"/>
<path d="M463.832 459.44V462.93" stroke="#263238" stroke-miterlimit="10"/>
<path d="M454.133 459.29V463.69" stroke="#263238" stroke-miterlimit="10"/>
<path d="M402.143 459.75V461.72" stroke="#263238" stroke-miterlimit="10"/>
<path d="M403.662 464.29V460.81" stroke="#263238" stroke-miterlimit="10"/>
<path d="M414.422 459.29V463.69" stroke="#263238" stroke-miterlimit="10"/>
<path d="M433.362 459.75V462.78" stroke="#263238" stroke-miterlimit="10"/>
<path d="M470.803 470.74V468.02" stroke="#263238" stroke-miterlimit="10"/>
<path d="M473.182 464.86H389.662V470.95H473.182V464.86Z" fill="white" stroke="#263238" stroke-miterlimit="10"/>
<path d="M393.353 471.5V467.71" stroke="#263238" stroke-miterlimit="10"/>
<path d="M395.933 465.14V468.93" stroke="#263238" stroke-miterlimit="10"/>
<path d="M467.772 465.44V469.08" stroke="#263238" stroke-miterlimit="10"/>
<path d="M463.832 465.44V468.93" stroke="#263238" stroke-miterlimit="10"/>
<path d="M454.133 465.29V469.68" stroke="#263238" stroke-miterlimit="10"/>
<path d="M402.143 465.74V467.71" stroke="#263238" stroke-miterlimit="10"/>
<path d="M403.662 470.29V466.8" stroke="#263238" stroke-miterlimit="10"/>
<path d="M414.422 465.29V469.68" stroke="#263238" stroke-miterlimit="10"/>
<path d="M433.362 465.74V468.77" stroke="#263238" stroke-miterlimit="10"/>
<path d="M470.803 476.74V474.01" stroke="#263238" stroke-miterlimit="10"/>
<path d="M473.182 470.86H389.662V476.95H473.182V470.86Z" fill="white" stroke="#263238" stroke-miterlimit="10"/>
<path d="M393.353 477.5V473.71" stroke="#263238" stroke-miterlimit="10"/>
<path d="M395.933 471.13V474.92" stroke="#263238" stroke-miterlimit="10"/>
<path d="M467.772 471.44V475.07" stroke="#263238" stroke-miterlimit="10"/>
<path d="M463.832 471.44V474.92" stroke="#263238" stroke-miterlimit="10"/>
<path d="M454.133 471.29V475.68" stroke="#263238" stroke-miterlimit="10"/>
<path d="M402.143 471.74V473.71" stroke="#263238" stroke-miterlimit="10"/>
<path d="M403.662 476.29V472.8" stroke="#263238" stroke-miterlimit="10"/>
<path d="M414.422 471.29V475.68" stroke="#263238" stroke-miterlimit="10"/>
<path d="M433.362 471.74V474.77" stroke="#263238" stroke-miterlimit="10"/>
<path d="M215.532 301.67H182.742V386.49H215.532V301.67Z" fill="#263238" stroke="#263238" stroke-linecap="round" stroke-linejoin="round"/>
<path d="M292.122 315.08V314.08C292.122 310.786 290.814 307.627 288.484 305.298C286.155 302.969 282.996 301.66 279.702 301.66H182.702V301.78C185.691 302.166 188.437 303.628 190.426 305.892C192.416 308.156 193.513 311.066 193.512 314.08V335.68H193.732V462.18C193.732 464.141 194.118 466.082 194.869 467.893C195.619 469.705 196.719 471.351 198.105 472.737C199.491 474.124 201.137 475.223 202.949 475.974C204.76 476.724 206.702 477.11 208.662 477.11H292.102V315.11L292.122 315.08Z" fill="#DBDBDB" stroke="#263238" stroke-linecap="round" stroke-linejoin="round"/>
<path d="M226.442 454.93V464.7C226.44 467.484 225.502 470.187 223.779 472.374C222.056 474.561 219.648 476.106 216.942 476.76V477.12H259.792V454.93H226.442Z" fill="#263238" stroke="#263238" stroke-linecap="round" stroke-linejoin="round"/>
<path d="M233.122 443.1V464.7C233.119 467.711 232.022 470.618 230.035 472.881C228.048 475.144 225.308 476.607 222.322 477V477.11H308.322C309.953 477.11 311.568 476.789 313.075 476.165C314.582 475.541 315.951 474.626 317.105 473.472C318.258 472.319 319.173 470.95 319.797 469.443C320.421 467.936 320.742 466.321 320.742 464.69V443.1H233.122Z" fill="#DBDBDB" stroke="#263238" stroke-linecap="round" stroke-linejoin="round"/>
<path d="M212.853 318.56H277.483" stroke="#263238" stroke-miterlimit="10"/>
<path d="M212.853 330.34H277.483" stroke="#263238" stroke-miterlimit="10"/>
<path d="M212.853 340.34H277.483" stroke="#263238" stroke-miterlimit="10"/>
<path d="M212.853 409.97H277.483" stroke="#263238" stroke-miterlimit="10"/>
<path d="M212.853 427.12H277.483" stroke="#263238" stroke-miterlimit="10"/>
<path d="M212.853 350.7H251.423" stroke="#263238" stroke-miterlimit="10"/>
<path d="M212.853 359.98H251.423" stroke="#263238" stroke-miterlimit="10"/>
<path d="M212.853 369.26H251.423" stroke="#263238" stroke-miterlimit="10"/>
<path d="M212.853 378.55H251.423" stroke="#263238" stroke-miterlimit="10"/>
<path d="M212.853 387.83H251.423" stroke="#263238" stroke-miterlimit="10"/>
<path d="M212.853 397.12H251.423" stroke="#263238" stroke-miterlimit="10"/>
<path d="M121.992 462.39C121.992 462.39 126.432 468.5 128.372 469.33C130.312 470.16 133.922 470.72 135.032 473.22C135.649 474.434 136.029 475.754 136.152 477.11H108.662C108.662 477.11 107.552 473.5 108.662 471.28C109.347 469.878 109.815 468.382 110.052 466.84L121.992 462.39Z" fill="white" stroke="#263238" stroke-linecap="round" stroke-linejoin="round"/>
<path d="M108.192 474.33H135.482C135.848 475.217 136.074 476.154 136.152 477.11H108.662C108.406 476.203 108.248 475.271 108.192 474.33Z" fill="white" stroke="#263238" stroke-linecap="round" stroke-linejoin="round"/>
<path d="M92.5618 468.5L92.0118 477.38H78.6818C78.3705 475.715 78.4666 474 78.9618 472.38C79.7918 469.88 80.6318 467.66 80.6318 467.66L92.5618 468.5Z" fill="white" stroke="#263238" stroke-linecap="round" stroke-linejoin="round"/>
<path d="M92.0116 477.38H78.6816C78.4775 476.282 78.4471 475.158 78.5916 474.05H92.2216L92.0116 477.38Z" fill="white" stroke="#263238" stroke-linecap="round" stroke-linejoin="round"/>
<path d="M132.812 333C132.812 333 130.592 361.87 130.042 372.14C129.492 382.41 121.992 462.37 121.992 462.37C121.992 462.37 111.162 469.04 109.772 469.04C108.382 469.04 106.772 372.7 106.772 372.7L92.5618 468.5C91.0335 468.99 89.4456 469.269 87.8418 469.33C85.6218 469.33 80.6318 467.67 80.6318 467.67L85.3218 352.18V333C85.3218 333 113.322 336.89 120.852 335.78C124.919 335.24 128.924 334.309 132.812 333Z" fill="#263238" stroke="#263238" stroke-linecap="round" stroke-linejoin="round"/>
<path d="M98.9521 350.51L105.052 355.23L106.722 372.72" stroke="#808080" stroke-linecap="round" stroke-linejoin="round"/>
<path d="M96.4316 215.72C96.4316 215.72 107.752 214.3 111.082 218.17C114.412 222.04 115.082 229.54 117.392 231.34C119.702 233.14 120.992 230.9 122.022 233.24C123.052 235.58 121.372 238.47 121.372 238.47C121.372 238.47 121.652 249.74 120.372 250.28C119.092 250.82 113.372 250.83 113.372 250.83L114.302 255.46L99.9816 256.06L98.7316 251.22C98.7316 251.22 87.8416 244.9 84.9016 240.11C81.9616 235.32 82.6616 224.71 85.6016 221C88.5416 217.29 96.4316 215.72 96.4316 215.72Z" fill="white" stroke="#263238" stroke-linecap="round" stroke-linejoin="round"/>
<path d="M121.372 238.47C121.372 238.47 114.732 236.38 114.372 237.37C114.012 238.36 115.162 251 115.162 251C115.162 251 119.852 251.54 120.372 250.28C120.892 249.02 121.892 247.47 121.372 238.47ZM119.972 249.08C119.592 250.08 116.232 249.66 116.232 249.66C116.232 249.66 115.382 239.48 115.662 238.66C115.942 237.84 120.662 239.55 120.662 239.55C121.072 246.82 120.322 248.07 119.972 249.08Z" fill="#263238"/>
<path d="M113.972 230.79C114.322 231.64 114.882 232.21 115.222 232.07C115.562 231.93 115.552 231.13 115.222 230.28C114.892 229.43 114.312 228.86 113.972 229C113.632 229.14 113.622 229.94 113.972 230.79Z" fill="#263238"/>
<path d="M120.231 240.29C119.635 240.592 118.947 240.657 118.304 240.472C117.662 240.286 117.114 239.864 116.771 239.29" stroke="#263238" stroke-linecap="round" stroke-linejoin="round"/>
<path d="M113.851 226.85C113.851 226.85 112.401 226.06 112.231 228.47" stroke="#263238" stroke-linecap="round" stroke-linejoin="round"/>
<path d="M85.602 221C88.542 217.3 96.432 215.72 96.432 215.72C96.432 215.72 107.752 214.3 111.082 218.17C111.082 218.17 104.822 216.59 105.632 219.26C106.442 221.93 112.932 226.01 110.702 227.59C108.472 229.17 105.962 227.97 107.002 230.31C108.042 232.65 109.342 234.94 108.252 235.15C107.162 235.36 104.112 232.87 102.812 233.41C101.512 233.95 100.032 237.93 101.282 239.95C102.123 241.188 103.415 242.046 104.882 242.34C104.882 242.34 102.652 248.17 100.692 249.69C99.8426 250.362 98.7719 250.69 97.692 250.61C94.922 248.92 87.262 244.01 84.872 240.11C81.962 235.32 82.662 224.71 85.602 221Z" fill="#263238" stroke="#263238" stroke-linecap="round" stroke-linejoin="round"/>
<path d="M84.8919 263.63C84.8919 263.63 76.8219 268.91 74.6519 272.94C72.4819 276.97 67.2019 314.82 66.5819 318.86C65.9619 322.9 75.4319 351.29 75.4319 351.29C75.4319 351.29 74.6519 357.79 75.4319 361.29C76.2119 364.79 78.5219 366.83 79.6919 367.03C80.8619 367.23 81.8519 363.7 81.8519 363.7C82.6319 364.48 83.6119 363.5 83.6119 362.53C83.6119 361.56 84.2019 354.53 84.0019 353.53C83.8019 352.53 82.9319 349.3 82.9319 349.3L84.9319 324.42L84.8919 263.63Z" fill="white" stroke="#263238" stroke-linecap="round" stroke-linejoin="round"/>
<path d="M67.3223 315.34C70.5902 316.67 74.0664 317.414 77.5923 317.54C82.7323 317.54 84.1923 316.81 84.1923 316.81L84.4423 310.21C84.4423 310.21 72.7023 310.21 71.4423 309.72C70.1823 309.23 68.0123 308.5 68.0123 308.5L67.3223 315.34Z" fill="#FAFAFA" stroke="#263238" stroke-linecap="round" stroke-linejoin="round"/>
<path d="M74.6523 272.94C72.9823 276.03 69.5023 298.94 67.6523 311.35C73.2013 313.144 79.0499 313.823 84.8623 313.35V263.63C84.8623 263.63 76.8223 268.91 74.6523 272.94Z" fill="#FAFAFA" stroke="#263238" stroke-linecap="round" stroke-linejoin="round"/>
<path d="M79.9016 297.1L72.8916 292.78" stroke="#263238" stroke-linecap="round" stroke-linejoin="round"/>
<path d="M75.5723 299.58L80.5123 298.96" stroke="#263238" stroke-linecap="round" stroke-linejoin="round"/>
<path d="M81.452 354.33C81.2408 355.291 80.7664 356.174 80.082 356.88L79.082 357.66L78.502 361.19C78.502 361.19 78.892 363.34 79.082 364.51" stroke="#263238" stroke-linecap="round" stroke-linejoin="round"/>
<path d="M81.8523 363.73L81.6523 358.64" stroke="#263238" stroke-linecap="round" stroke-linejoin="round"/>
<path d="M81.2615 308.91C80.8815 295.19 77.8715 283.66 77.6415 281.41C77.3815 278.76 76.7014 272.02 81.7014 266.15C84.2446 263.673 87.1516 261.599 90.3215 260C92.0915 259.47 93.4514 259.22 93.4514 259.22L92.5614 258.94C94.1104 258.275 95.7044 257.721 97.3315 257.28C101.501 256.17 112.601 255.61 115.931 258.67C115.931 258.67 125.551 261.67 130.281 265.11C132.663 268.085 134.154 271.673 134.581 275.46C135.081 280.97 136.061 307.61 136.421 317.67C136.501 319.95 136.681 322.2 136.961 324.46C137.591 329.46 138.401 346.62 138.401 346.62C138.401 346.62 127.871 350.26 110.931 349.71C93.9915 349.16 83.6614 344.81 83.6614 344.81L81.1714 343.49C81.1714 343.49 81.1714 327.22 81.1714 324.49C81.2014 319.16 81.3215 309 81.2615 308.91Z" fill="#FAFAFA" stroke="#263238" stroke-linecap="round" stroke-linejoin="round"/>
<path d="M111.322 298.31C112.068 299.675 112.949 300.961 113.952 302.15Z" fill="#FAFAFA"/>
<path d="M111.322 298.31C112.068 299.675 112.949 300.961 113.952 302.15" stroke="#263238" stroke-linecap="round" stroke-linejoin="round"/>
<path d="M103.582 276.56C105.093 283.079 107.216 289.44 109.922 295.56Z" fill="#FAFAFA"/>
<path d="M103.582 276.56C105.093 283.079 107.216 289.44 109.922 295.56" stroke="#263238" stroke-linecap="round" stroke-linejoin="round"/>
<path d="M104.212 288.44C104.882 289.72 105.502 290.88 105.992 291.77Z" fill="#FAFAFA"/>
<path d="M104.212 288.44C104.882 289.72 105.502 290.88 105.992 291.77" stroke="#263238" stroke-linecap="round" stroke-linejoin="round"/>
<path d="M98.2617 276.8C98.2617 276.8 100.382 281.04 102.552 285.26Z" fill="#FAFAFA"/>
<path d="M98.2617 276.8C98.2617 276.8 100.382 281.04 102.552 285.26" stroke="#263238" stroke-linecap="round" stroke-linejoin="round"/>
<path d="M122.632 261.06C122.632 261.06 118.572 255.25 117.742 254.7C116.912 254.15 100.072 252.36 96.4623 253.47C92.8523 254.58 90.3223 260 90.3223 260C90.3223 260 108.192 258.83 122.632 261.06Z" fill="white" stroke="#263238" stroke-linecap="round" stroke-linejoin="round"/>
<path d="M126.192 290.85L142.322 305.12C142.322 305.12 151.002 311.32 154.422 310.12C157.422 309.02 184.282 285.31 190.522 279.78L192.952 278.4C192.952 278.4 196.422 278.4 197.432 277.76C198.442 277.12 199.952 275.91 199.952 275.91H200.792C201.632 275.91 202.142 274.73 202.482 273.55C202.822 272.37 203.822 269.01 203.482 268.17C203.142 267.33 198.762 264.46 198.762 264.46C198.762 264.46 199.942 262.78 200.452 262.11C200.962 261.44 202.632 259.58 202.452 257.9C202.272 256.22 200.452 255.37 198.912 257.23C197.372 259.09 189.822 264.8 188.812 266.82C188.102 268.23 187.072 270.51 186.502 271.75L155.942 288.68C155.942 288.68 138.252 267.9 136.392 266.68C134.532 265.46 120.712 261.28 120.712 261.28" fill="white"/>
<path d="M126.192 290.85L142.322 305.12C142.322 305.12 151.002 311.32 154.422 310.12C157.422 309.02 184.282 285.31 190.522 279.78L192.952 278.4C192.952 278.4 196.422 278.4 197.432 277.76C198.442 277.12 199.952 275.91 199.952 275.91H200.792C201.632 275.91 202.142 274.73 202.482 273.55C202.822 272.37 203.822 269.01 203.482 268.17C203.142 267.33 198.762 264.46 198.762 264.46C198.762 264.46 199.942 262.78 200.452 262.11C200.962 261.44 202.632 259.58 202.452 257.9C202.272 256.22 200.452 255.37 198.912 257.23C197.372 259.09 189.822 264.8 188.812 266.82C188.102 268.23 187.072 270.51 186.502 271.75L155.942 288.68C155.942 288.68 138.252 267.9 136.392 266.68C134.532 265.46 120.712 261.28 120.712 261.28" stroke="#263238" stroke-linecap="round" stroke-linejoin="round"/>
<path d="M126.192 290.85L142.322 305.12C142.322 305.12 151.002 311.32 154.422 310.12C155.622 309.68 160.652 305.62 166.642 300.55C166.568 297.815 166.037 295.111 165.072 292.55C164.249 290.048 162.816 287.79 160.902 285.98L155.972 288.71C155.972 288.71 138.282 267.93 136.422 266.71C134.562 265.49 120.742 261.31 120.742 261.31" fill="#FAFAFA"/>
<path d="M126.192 290.85L142.322 305.12C142.322 305.12 151.002 311.32 154.422 310.12C155.622 309.68 160.652 305.62 166.642 300.55C166.568 297.815 166.037 295.111 165.072 292.55C164.249 290.048 162.816 287.79 160.902 285.98L155.972 288.71C155.972 288.71 138.282 267.93 136.422 266.71C134.562 265.49 120.742 261.31 120.742 261.31" stroke="#263238" stroke-linecap="round" stroke-linejoin="round"/>
<path d="M157.902 286.6C157.902 286.6 158.822 285.36 161.482 288.67C164.142 291.98 165.482 299.73 165.482 300.83C165.482 301.93 167.252 301.49 168.352 300.17C169.452 298.85 172.992 298.4 173.442 294.86C173.892 291.32 172.332 286.46 170.342 283.37C168.352 280.28 168.572 280.27 166.582 280.71C164.592 281.15 158.532 285 157.902 286.6Z" fill="#FAFAFA" stroke="#263238" stroke-linecap="round" stroke-linejoin="round"/>
<path d="M155.981 288.67C155.981 288.67 158.031 291.54 157.211 297.1Z" fill="#FAFAFA"/>
<path d="M155.981 288.67C155.981 288.67 158.031 291.54 157.211 297.1" stroke="#263238" stroke-linecap="round" stroke-linejoin="round"/>
<path d="M159.322 294.22C159.322 294.22 160.142 296.28 158.492 300.82Z" fill="#FAFAFA"/>
<path d="M159.322 294.22C159.322 294.22 160.142 296.28 158.492 300.82" stroke="#263238" stroke-linecap="round" stroke-linejoin="round"/>
<path d="M199.322 275.68C199.757 274.669 199.985 273.581 199.992 272.48Z" fill="white"/>
<path d="M199.322 275.68C199.757 274.669 199.985 273.581 199.992 272.48" stroke="#263238" stroke-linecap="round" stroke-linejoin="round"/>
<path d="M14.1123 477.38H475.952" stroke="#263238" stroke-miterlimit="10"/>
</g>
<defs>
<clipPath id="clip0_151_365">
<rect width="487.322" height="497.934" fill="white"/>
</clipPath>
</defs>
</svg>
