<svg width="259" height="300" viewBox="0 0 259 300" fill="none" xmlns="http://www.w3.org/2000/svg">
<g clip-path="url(#clip0_105_442)">
<path d="M129.412 299.536C200.541 299.536 258.203 266.78 258.203 226.373C258.203 185.966 200.541 153.209 129.412 153.209C58.2827 153.209 0.621094 185.966 0.621094 226.373C0.621094 266.78 58.2827 299.536 129.412 299.536Z" fill="#F5F5F5"/>
<path d="M183.007 272.503L86.87 216.993C86.0242 216.506 85.3218 215.805 84.8334 214.96C84.345 214.115 84.0879 213.156 84.0879 212.18C84.0879 211.204 84.345 210.245 84.8334 209.4C85.3218 208.555 86.0242 207.853 86.87 207.366L96.3536 201.386C97.9907 200.443 99.8468 199.946 101.736 199.946C103.625 199.946 105.481 200.443 107.118 201.386L203.269 256.902C204.114 257.389 204.817 258.091 205.305 258.936C205.794 259.781 206.051 260.74 206.051 261.716C206.051 262.692 205.794 263.651 205.305 264.496C204.817 265.341 204.114 266.042 203.269 266.529L193.785 272.503C192.147 273.451 190.288 273.95 188.396 273.95C186.504 273.95 184.645 273.451 183.007 272.503Z" fill="#E0E0E0"/>
<path d="M36.8305 221.895C48.3527 221.895 57.6933 216.532 57.6933 209.915C57.6933 203.298 48.3527 197.935 36.8305 197.935C25.3083 197.935 15.9678 203.298 15.9678 209.915C15.9678 216.532 25.3083 221.895 36.8305 221.895Z" fill="#E6E6E6"/>
<path d="M217.098 224.641L226.248 229.902C226.248 229.902 221.575 215.216 224.065 200.412C225.007 194.817 227.026 192.039 227.732 190.542C228.438 189.046 233.909 179.797 229.039 175.562C224.17 171.327 212.843 179.843 213.458 202.634C213.737 210.094 214.96 217.488 217.098 224.641Z" fill="#4E626C"/>
<path opacity="0.5" d="M217.098 224.641L226.248 229.902C226.248 229.902 221.575 215.216 224.065 200.412C225.007 194.817 227.026 192.039 227.732 190.542C228.438 189.046 233.909 179.797 229.039 175.562C224.17 171.327 212.843 179.843 213.458 202.634C213.737 210.094 214.96 217.488 217.098 224.641Z" fill="black"/>
<path d="M221.353 227.412C221.286 227.413 221.221 227.394 221.166 227.356C221.111 227.319 221.069 227.265 221.046 227.203C221.013 227.105 217.516 217.549 217.628 202.19C217.739 186.83 225.811 178.49 225.889 178.412C225.919 178.381 225.956 178.357 225.995 178.34C226.035 178.324 226.078 178.315 226.121 178.315C226.164 178.315 226.207 178.324 226.247 178.34C226.287 178.357 226.323 178.381 226.353 178.412C226.384 178.442 226.408 178.478 226.425 178.518C226.441 178.558 226.45 178.601 226.45 178.644C226.45 178.687 226.441 178.73 226.425 178.769C226.408 178.809 226.384 178.845 226.353 178.876C226.275 178.954 218.392 187.046 218.281 202.196C218.17 217.346 221.621 226.889 221.66 226.98C221.69 227.062 221.686 227.152 221.649 227.23C221.612 227.309 221.546 227.369 221.464 227.399C221.428 227.41 221.391 227.414 221.353 227.412Z" fill="white"/>
<path d="M220.915 226.889L233.425 234.078C234.728 234.849 236.274 235.1 237.754 234.781C239.235 234.463 240.54 233.598 241.411 232.359C242.24 231.071 242.589 229.533 242.398 228.013C241.797 221.516 238.974 220.02 242.431 217.124C245.889 214.229 246.791 214.026 246.594 211.242C246.398 208.457 244.496 207.242 243.594 206.144C242.693 205.046 240.196 202.745 241.895 199.346C243.594 195.948 245.915 192.66 242.398 191.157C240.3 190.255 236.804 191.457 234.503 193.954C232.202 196.451 230.307 198.248 228.104 198.85C225.902 199.451 221.313 199.549 221.51 203.346C221.706 207.144 222.712 208.444 221.81 210.137C220.111 213.301 212.719 215.098 220.915 226.889Z" fill="#4E626C"/>
<path d="M227.099 230.758C227.017 230.756 226.939 230.724 226.879 230.669C226.819 230.613 226.781 230.538 226.772 230.458C226.772 230.235 224.85 207.804 240.275 192.876C240.339 192.823 240.42 192.797 240.502 192.802C240.584 192.806 240.662 192.842 240.719 192.902C240.776 192.961 240.808 193.04 240.81 193.123C240.811 193.205 240.781 193.285 240.726 193.346C225.523 208.059 227.406 230.176 227.425 230.399C227.433 230.484 227.406 230.57 227.351 230.636C227.296 230.702 227.217 230.743 227.131 230.752L227.099 230.758Z" fill="white"/>
<path d="M229.575 211.451C229.493 211.451 229.414 211.42 229.353 211.365C229.292 211.309 229.255 211.232 229.249 211.15C229.112 209.412 228.622 207.72 227.81 206.177C226.997 204.634 225.879 203.273 224.523 202.176C224.488 202.152 224.458 202.12 224.435 202.084C224.411 202.047 224.396 202.007 224.388 201.964C224.381 201.921 224.382 201.878 224.392 201.836C224.402 201.794 224.42 201.754 224.445 201.719C224.469 201.684 224.5 201.654 224.536 201.631C224.571 201.608 224.612 201.592 224.654 201.585C224.696 201.578 224.739 201.579 224.78 201.588C224.822 201.598 224.861 201.616 224.896 201.64C226.34 202.786 227.532 204.22 228.393 205.85C229.255 207.48 229.769 209.272 229.902 211.111C229.909 211.198 229.882 211.285 229.826 211.353C229.769 211.42 229.689 211.462 229.601 211.471L229.575 211.451Z" fill="white"/>
<path d="M228.51 215.301C228.431 215.301 228.354 215.274 228.294 215.222C228.229 215.164 228.19 215.084 228.183 214.997C228.177 214.91 228.205 214.825 228.261 214.758C228.418 214.575 232.281 210.314 241.333 211.444C241.419 211.456 241.497 211.501 241.55 211.569C241.602 211.638 241.626 211.725 241.614 211.81C241.603 211.897 241.558 211.975 241.49 212.029C241.422 212.082 241.335 212.107 241.248 212.098C232.556 211.007 228.784 215.15 228.745 215.19C228.715 215.223 228.679 215.25 228.639 215.269C228.598 215.288 228.554 215.299 228.51 215.301Z" fill="white"/>
<path d="M180.079 265.869L95.5295 217.052C89.5622 213.608 84.7256 204.366 84.7256 196.412V15.366C84.7256 7.41177 89.5622 3.75818 95.5295 7.20262L180.079 56.0196C186.046 59.4641 190.882 68.7059 190.882 76.6601V257.706C190.882 265.654 186.046 269.314 180.079 265.869Z" fill="#455A64"/>
<path d="M189.817 50.3268L105.262 1.50982C102.713 0.0392341 100.373 -0.130701 98.5233 0.77126C98.2968 0.884662 98.0785 1.01351 97.8697 1.15688L88.3926 6.66668C90.3011 5.52289 92.7978 5.60786 95.5364 7.18956L180.085 56.0065C186.053 59.451 190.889 68.6928 190.889 76.6471V257.693C190.889 261.902 189.536 264.882 187.38 266.294L196.732 260.85C199.118 259.582 200.654 256.477 200.654 252.026V70.9804C200.654 63.0131 195.785 53.7713 189.817 50.3268Z" fill="#37474F"/>
<path d="M190.883 76.6471V257.693C190.883 261.902 189.53 264.882 187.373 266.294L196.733 260.85C199.118 259.582 200.654 256.477 200.654 252.026V70.9804L190.916 76.634L190.883 76.6471Z" fill="#263238"/>
<path d="M200.621 85.0262L190.883 90.6471V95.0393L200.621 89.4118V85.0262Z" fill="#37474F"/>
<path d="M196.353 114.235C195.484 114.739 194.778 114.203 194.778 113.046V103.601C194.787 103.011 194.934 102.431 195.208 101.908C195.481 101.384 195.874 100.932 196.353 100.588C197.223 100.085 197.929 100.588 197.929 101.778V111.222C197.92 111.813 197.773 112.393 197.499 112.916C197.226 113.439 196.833 113.891 196.353 114.235Z" fill="#37474F"/>
<path d="M194.771 113.072V103.601C194.78 103.011 194.927 102.431 195.2 101.908C195.474 101.384 195.866 100.932 196.346 100.588C196.49 100.488 196.657 100.427 196.831 100.411C197.005 100.395 197.18 100.424 197.34 100.497L196.157 99.8889C195.995 99.811 195.815 99.7773 195.636 99.791C195.457 99.8048 195.285 99.8656 195.137 99.9673C194.657 100.312 194.264 100.763 193.989 101.286C193.714 101.81 193.566 102.39 193.555 102.98V112.418C193.531 112.657 193.567 112.897 193.661 113.118C193.754 113.339 193.903 113.532 194.091 113.68L195.327 114.333C195.13 114.192 194.975 114 194.877 113.778C194.779 113.556 194.743 113.313 194.771 113.072Z" fill="#455A64"/>
<path d="M196.353 137.091C195.484 137.595 194.778 137.091 194.778 135.902V126.457C194.788 125.867 194.935 125.287 195.208 124.764C195.482 124.241 195.874 123.789 196.353 123.444C197.223 122.941 197.929 123.444 197.929 124.641V134.078C197.921 134.669 197.774 135.249 197.501 135.773C197.227 136.296 196.834 136.748 196.353 137.091Z" fill="#37474F"/>
<path d="M194.771 135.902V126.458C194.781 125.867 194.928 125.287 195.201 124.764C195.475 124.241 195.867 123.789 196.346 123.444C196.491 123.346 196.658 123.286 196.831 123.27C197.005 123.254 197.18 123.282 197.34 123.353L196.157 122.739C195.996 122.657 195.816 122.622 195.636 122.635C195.456 122.649 195.284 122.712 195.137 122.817C194.656 123.16 194.262 123.612 193.987 124.135C193.713 124.658 193.565 125.239 193.556 125.83V135.294C193.53 135.533 193.566 135.774 193.66 135.994C193.754 136.215 193.902 136.408 194.092 136.556L195.327 137.209C195.122 137.064 194.962 136.865 194.864 136.634C194.766 136.403 194.734 136.15 194.771 135.902Z" fill="#455A64"/>
<path d="M177.124 61.098L94.0395 13.1111C93.6927 12.9116 93.2998 12.8063 92.8998 12.8055C92.4997 12.8048 92.1064 12.9087 91.7589 13.1069C91.4114 13.3051 91.1218 13.5907 90.9188 13.9354C90.7158 14.2801 90.6064 14.6719 90.6016 15.0719V196.412C90.6016 202.464 94.8957 209.895 100.138 212.922L181.183 259.739C181.568 259.96 182.003 260.076 182.447 260.076C182.89 260.075 183.326 259.958 183.71 259.736C184.094 259.515 184.413 259.196 184.635 258.812C184.857 258.428 184.974 257.992 184.974 257.549V74.7124C185.007 69.719 181.464 63.5948 177.124 61.098Z" fill="#4E626C"/>
<path opacity="0.9" d="M177.124 61.098L94.0395 13.1111C93.6927 12.9116 93.2998 12.8063 92.8998 12.8055C92.4997 12.8048 92.1064 12.9087 91.7589 13.1069C91.4114 13.3051 91.1218 13.5907 90.9188 13.9354C90.7158 14.2801 90.6064 14.6719 90.6016 15.0719V196.412C90.6016 202.464 94.8957 209.895 100.138 212.922L181.183 259.739C181.568 259.96 182.003 260.076 182.447 260.076C182.89 260.075 183.326 259.958 183.71 259.736C184.094 259.515 184.413 259.196 184.635 258.812C184.857 258.428 184.974 257.992 184.974 257.549V74.7124C185.007 69.719 181.464 63.5948 177.124 61.098Z" fill="white"/>
<path d="M118.889 25.6406L120.176 31.0589L147.719 46.9412L152.477 44.4053L118.889 25.6406Z" fill="#455A64"/>
<path d="M126.987 30.8758C126.987 31.7778 126.333 32.1373 125.575 31.6928C125.168 31.4226 124.83 31.0607 124.588 30.6362C124.346 30.2116 124.207 29.7363 124.183 29.2484C124.183 28.353 124.836 27.987 125.594 28.4379C126.001 28.7067 126.339 29.0674 126.581 29.4909C126.823 29.9144 126.962 30.3888 126.987 30.8758Z" fill="#263238"/>
<path d="M145.543 42.3464C145.392 42.3452 145.244 42.307 145.111 42.2353L131.046 34.3922C130.847 34.2755 130.702 34.0859 130.642 33.8637C130.581 33.6415 130.609 33.4044 130.721 33.2031C130.833 33.0017 131.019 32.852 131.24 32.786C131.46 32.72 131.698 32.7428 131.902 32.8497L145.974 40.6928C146.145 40.7879 146.28 40.9371 146.357 41.1171C146.434 41.297 146.449 41.4974 146.399 41.6868C146.35 41.8761 146.239 42.0437 146.084 42.1631C145.929 42.2825 145.738 42.347 145.543 42.3464Z" fill="#263238"/>
<path d="M108.026 50.8497C107.17 50.3529 106.549 50.7843 106.549 51.8758C106.549 52.4217 106.684 52.959 106.941 53.4402C107.199 53.9214 107.572 54.3315 108.026 54.634C108.269 54.7817 108.549 54.8598 108.833 54.8598C109.118 54.8598 109.397 54.7817 109.64 54.634L111.006 57.1046C110.526 57.3697 109.981 57.4961 109.433 57.4696C108.885 57.443 108.354 57.2646 107.902 56.9543C106.792 56.2753 105.867 55.3332 105.208 54.2115C104.549 53.0897 104.177 51.8228 104.124 50.5229C104.124 48.098 105.751 47.2549 107.993 48.5621C109.259 49.3773 110.296 50.5021 111.006 51.8301L109.64 52.915C109.304 52.0906 108.745 51.3757 108.026 50.8497Z" fill="#4E626C"/>
<path d="M118.87 59.0392C118.87 61.4837 117.216 62.3072 114.948 61C113.806 60.3179 112.851 59.3643 112.167 58.2241C111.483 57.0838 111.091 55.7922 111.026 54.4641C111.026 52.0196 112.68 51.1961 114.948 52.5033C116.092 53.1823 117.05 54.1351 117.734 55.276C118.419 56.4169 118.809 57.7101 118.87 59.0392ZM113.451 55.9216C113.463 56.4828 113.607 57.0332 113.873 57.5275C114.139 58.0218 114.519 58.4459 114.981 58.7647C115.791 59.2353 116.445 58.7647 116.445 57.6536C116.442 57.1051 116.308 56.5651 116.053 56.0794C115.799 55.5936 115.431 55.1764 114.981 54.8628C114.157 54.3856 113.451 54.7909 113.451 55.9216Z" fill="#4E626C"/>
<path d="M121.504 56.4444L124.327 62.3268V58.0915L126.465 59.3268V67.5686L124.504 66.4314L121.693 60.6013V64.8105L119.543 63.5686V55.3072L121.504 56.4444Z" fill="#4E626C"/>
<path d="M133.451 63.3399V65.4968L131.412 64.3203V70.4118L129.053 69.0458V62.9543L127.026 61.7844V59.634L133.451 63.3399Z" fill="#4E626C"/>
<path d="M138.052 73.0785L135.372 71.5294L135.006 72.4837L132.588 71.085L135.601 64.5817L138.026 65.9804L140.928 75.902L138.411 74.451L138.052 73.0785ZM137.47 70.7909L136.738 67.9739L135.987 69.9347L137.47 70.7909Z" fill="#4E626C"/>
<path d="M144.673 72.0065C143.817 71.5163 143.196 71.9412 143.196 73.0392C143.197 73.5848 143.333 74.1218 143.59 74.6028C143.848 75.0838 144.22 75.494 144.673 75.7974C144.918 75.9436 145.199 76.0208 145.484 76.0208C145.769 76.0208 146.049 75.9436 146.294 75.7974L147.66 78.268C147.178 78.5301 146.632 78.6547 146.084 78.6282C145.535 78.6017 145.004 78.4251 144.549 78.1177C143.439 77.4381 142.513 76.495 141.854 75.372C141.195 74.249 140.823 72.9808 140.771 71.6797C140.771 69.2549 142.405 68.4118 144.641 69.719C145.905 70.5382 146.943 71.6619 147.66 72.9869L146.294 74.0654C145.95 73.2452 145.39 72.5337 144.673 72.0065Z" fill="#4E626C"/>
<path d="M154.105 75.268V77.4183L152.065 76.2419V82.353L149.706 80.987V74.8955L147.68 73.7255V71.5752L154.105 75.268Z" fill="#4E626C"/>
<path d="M161.078 85.3856C161.66 85.719 162.104 85.4575 162.104 84.6405V79.8889L164.47 81.2484V86C164.47 88.1896 163.163 88.8432 161.072 87.6471C160.064 87.0875 159.217 86.2786 158.612 85.2978C158.006 84.3171 157.663 83.1973 157.614 82.0458V77.2941L159.98 78.6601V83.4118C159.989 83.8052 160.094 84.1905 160.285 84.5344C160.477 84.8783 160.749 85.1704 161.078 85.3856Z" fill="#4E626C"/>
<path d="M168.281 85.4118C168.013 85.2615 167.843 85.2549 167.843 85.5033C167.843 86.536 171.536 88.0262 171.536 91.0131C171.536 92.8432 170.144 92.8497 168.536 91.9216C167.123 91.0556 165.905 89.9048 164.961 88.5425L165.837 87C166.555 88.1128 167.478 89.0796 168.556 89.8497C168.902 90.0523 169.124 90.0523 169.124 89.7582C169.124 88.6863 165.425 87.2615 165.425 84.366C165.425 82.719 166.628 82.4053 168.484 83.451C169.68 84.1742 170.732 85.1114 171.588 86.2157L170.732 87.7974C170.025 86.8967 169.201 86.0944 168.281 85.4118Z" fill="#4E626C"/>
<path d="M96.1369 91.464C98.7888 88.2069 100.124 84.0742 99.8782 79.8812C99.6328 75.6882 97.8247 71.7395 94.8109 68.8141C91.797 65.8887 87.7961 64.199 83.5977 64.0786C79.3993 63.9581 75.3081 65.4155 72.1314 68.1633C68.9548 70.9111 66.9233 74.7496 66.4378 78.9216C65.9523 83.0937 67.048 87.2961 69.5088 90.6999C71.9696 94.1038 75.6168 96.4617 79.7307 97.3085C83.8446 98.1554 88.1265 97.4296 91.7316 95.2745L99.9146 98.8301L96.1369 91.464Z" fill="#4E626C"/>
<path opacity="0.4" d="M96.1369 91.464C98.7888 88.2069 100.124 84.0742 99.8782 79.8812C99.6328 75.6882 97.8247 71.7395 94.8109 68.8141C91.797 65.8887 87.7961 64.199 83.5977 64.0786C79.3993 63.9581 75.3081 65.4155 72.1314 68.1633C68.9548 70.9111 66.9233 74.7496 66.4378 78.9216C65.9523 83.0937 67.048 87.2961 69.5088 90.6999C71.9696 94.1038 75.6168 96.4617 79.7307 97.3085C83.8446 98.1554 88.1265 97.4296 91.7316 95.2745L99.9146 98.8301L96.1369 91.464Z" fill="black"/>
<path d="M76.8946 79.9608C76.8946 79.7059 76.7116 79.5621 76.3782 79.5621C75.6051 79.6634 74.8829 80.0039 74.3129 80.5359L73.3848 78.732C74.3617 77.9969 75.5418 77.5815 76.7638 77.5425C78.3325 77.5425 79.522 78.366 79.522 79.5948C79.522 80.4706 78.8684 81.3137 78.0318 82.1569L76.8619 83.3137H79.6266V85.2353H73.6854V83.6601L76.3325 80.9216C76.6175 80.6694 76.8144 80.3328 76.8946 79.9608Z" fill="white"/>
<path d="M84.4637 77.6536L82.6598 81.9804H83.3984V80.5228H85.6729V81.9804H86.5356V83.7647H85.6729V85.2353H83.3984V83.7647H80.1631V82.1438L82.1239 77.6536H84.4637Z" fill="white"/>
<path d="M93.5547 81.464V85.2352H91.1233V82.1634C91.1374 82.0633 91.1298 81.9614 91.101 81.8646C91.0723 81.7678 91.0232 81.6782 90.9569 81.602C90.8906 81.5258 90.8087 81.4647 90.7168 81.4229C90.6248 81.381 90.525 81.3594 90.424 81.3594C89.9469 81.3594 89.6462 81.732 89.6462 82.3071V85.2352H87.2148V77.2222H89.6462V80.1699C89.8364 79.8693 90.1015 79.6232 90.4154 79.4559C90.7294 79.2886 91.0815 79.2058 91.4371 79.2156C91.7285 79.2081 92.0182 79.2622 92.2873 79.3743C92.5564 79.4864 92.7988 79.6541 92.9986 79.8663C93.1985 80.0785 93.3514 80.3305 93.4472 80.6058C93.543 80.8811 93.5796 81.1736 93.5547 81.464Z" fill="white"/>
<path d="M172.837 142.196V223.405C172.838 224.324 172.598 225.226 172.139 226.022C171.681 226.818 171.021 227.479 170.226 227.939C169.431 228.399 168.528 228.641 167.61 228.642C166.691 228.642 165.789 228.4 164.994 227.941L121.255 202.686L113.503 198.216C110.834 196.672 108.617 194.455 107.073 191.786C105.529 189.117 104.713 186.09 104.706 183.007V101.791C104.705 100.872 104.945 99.9697 105.404 99.1738C105.862 98.3778 106.522 97.7167 107.317 97.2568C108.112 96.797 109.014 96.5547 109.933 96.5544C110.851 96.554 111.754 96.7957 112.549 97.2549L164.052 126.987C166.723 128.528 168.94 130.745 170.482 133.415C172.024 136.084 172.836 139.113 172.837 142.196Z" fill="#4E626C"/>
<path opacity="0.5" d="M172.837 142.196V223.405C172.838 224.324 172.598 225.226 172.139 226.022C171.681 226.818 171.021 227.479 170.226 227.939C169.431 228.399 168.528 228.641 167.61 228.642C166.691 228.642 165.789 228.4 164.994 227.941L121.255 202.686L113.503 198.216C110.834 196.672 108.617 194.455 107.073 191.786C105.529 189.117 104.713 186.09 104.706 183.007V101.791C104.705 100.872 104.945 99.9697 105.404 99.1738C105.862 98.3778 106.522 97.7167 107.317 97.2568C108.112 96.797 109.014 96.5547 109.933 96.5544C110.851 96.554 111.754 96.7957 112.549 97.2549L164.052 126.987C166.723 128.528 168.94 130.745 170.482 133.415C172.024 136.084 172.836 139.113 172.837 142.196Z" fill="white"/>
<path d="M147.641 190.248C147.641 190.248 155.83 203.83 149.915 219.144L121.235 202.686L147.641 190.248Z" fill="#263238"/>
<path d="M160.701 129.227C161.321 124.193 157.743 119.61 152.709 118.991C147.676 118.371 143.093 121.949 142.473 126.982C141.853 132.016 145.431 136.599 150.465 137.219C155.498 137.839 160.081 134.261 160.701 129.227Z" fill="#263238"/>
<path d="M151.634 102.346C151.634 102.346 154.451 97.7713 155.314 98.1046C156.176 98.4379 154.751 102.797 154.751 102.797C154.751 102.797 159.013 103.686 158.222 104.758C157.431 105.83 152.222 105.575 152.222 105.575L151.634 102.346Z" fill="#263238"/>
<path d="M153.595 114.137C151.634 128.869 139.216 128.869 139.216 128.869L113.203 117.418C113.203 117.418 111.242 115.699 110.641 111.752C110.41 110.135 110.41 108.493 110.641 106.876C110.641 106.876 110.641 106.843 110.641 106.83C111.471 100.634 116.105 93.9739 126.196 91.9281C128.408 91.4816 130.659 91.2626 132.915 91.2745C134.007 91.2707 135.098 91.3252 136.183 91.4379C144.026 92.2092 149.523 95.8693 152.144 101.562C152.734 102.847 153.172 104.196 153.451 105.582C153.983 108.405 154.032 111.298 153.595 114.137Z" fill="#263238"/>
<path d="M91.1434 142.634C91.1434 142.634 81.9081 142.314 78.3525 151.314C78.3525 151.314 82.2741 153.961 87.4179 151.314C92.5617 148.667 91.1434 142.634 91.1434 142.634Z" fill="#4E626C"/>
<path opacity="0.5" d="M91.1434 142.634C91.1434 142.634 81.9081 142.314 78.3525 151.314C78.3525 151.314 82.2741 153.961 87.4179 151.314C92.5617 148.667 91.1434 142.634 91.1434 142.634Z" fill="black"/>
<path d="M90.8822 146.967C90.8822 146.967 88.2678 135.608 86.8887 135.471C85.5096 135.333 85.2416 138.935 85.3527 140.967L82.0848 133.935C81.9811 133.716 81.8338 133.521 81.6519 133.362C81.4699 133.202 81.2573 133.082 81.027 133.008C80.7968 132.934 80.5538 132.907 80.3131 132.931C80.0723 132.954 79.8389 133.027 79.6272 133.144C76.3593 134.941 70.6273 140.405 82.7122 153.915L90.8822 146.967Z" fill="#945959"/>
<path d="M124.346 139.111L122.386 138.856C120.41 138.594 118.399 138.863 116.562 139.635C114.724 140.407 113.125 141.654 111.928 143.248L100.261 158.778L91.1112 142.634C91.1112 142.634 90.0131 153.614 78.3203 151.314L90.8759 172.444C91.6705 173.782 92.7764 174.908 94.0997 175.727C95.4229 176.545 96.9243 177.032 98.4761 177.145C100.028 177.259 101.584 176.996 103.012 176.379C104.441 175.762 105.699 174.809 106.68 173.601L117.425 160.392L124.346 139.111Z" fill="#4E626C"/>
<path d="M149.248 175.353C146.633 181.98 146.346 183.275 147.941 186.588C149.051 189.036 149.927 191.583 150.555 194.196C150.555 194.196 138.437 207.778 121.189 202.693L113.437 198.222C111.825 197.293 110.373 196.11 109.137 194.719L111.496 177.124C111.615 176.198 111.521 175.257 111.222 174.373L108.745 167.111C107.536 163.564 107.356 159.748 108.226 156.103C109.095 152.459 110.979 149.135 113.66 146.516L121.986 138.379L143.856 141.176L147.124 142.111C149.263 142.73 151.107 144.1 152.318 145.969C153.528 147.839 154.023 150.082 153.712 152.288C152.64 160 150.888 171.19 149.248 175.353Z" fill="#4E626C"/>
<path opacity="0.5" d="M149.248 175.353C146.633 181.98 146.346 183.275 147.941 186.588C149.051 189.036 149.927 191.583 150.555 194.196C150.555 194.196 138.437 207.778 121.189 202.693L113.437 198.222C111.825 197.293 110.373 196.11 109.137 194.719L111.496 177.124C111.615 176.198 111.521 175.257 111.222 174.373L108.745 167.111C107.536 163.564 107.356 159.748 108.226 156.103C109.095 152.459 110.979 149.135 113.66 146.516L121.986 138.379L143.856 141.176L147.124 142.111C149.263 142.73 151.107 144.1 152.318 145.969C153.528 147.839 154.023 150.082 153.712 152.288C152.64 160 150.888 171.19 149.248 175.353Z" fill="black"/>
<path d="M136.059 155.556L131.679 151.824C131.216 151.427 130.656 151.158 130.057 151.043C129.458 150.929 128.839 150.972 128.261 151.17L122.967 152.993L122.255 150.026C122.143 149.565 121.94 149.13 121.656 148.749C121.373 148.368 121.015 148.049 120.604 147.81C120.194 147.571 119.739 147.418 119.268 147.36C118.797 147.301 118.319 147.339 117.862 147.471L115.568 148.124L119.451 140.686C120.718 138.264 122.671 136.268 125.065 134.948L126.588 134.111L139.17 134.765C139.17 134.765 143.856 136.726 143.856 141.137L136.059 155.516" fill="#4E626C"/>
<path d="M139.222 140.34L126.607 150.17V118.869H139.222V140.34Z" fill="#945959"/>
<path d="M126.803 137.758L122.967 153.02L139.169 140.34L126.803 137.758Z" fill="#945959"/>
<path d="M126.608 135.49C129.413 134.449 131.977 132.848 134.144 130.785C136.312 128.722 138.037 126.24 139.216 123.49V118.869H126.602L126.608 135.49Z" fill="#703838"/>
<path d="M129.326 95.6732C124.542 95.6732 114.372 98.3399 113.196 110.863C112.019 123.386 113.156 133.085 119.614 134.026C126.071 134.967 141.078 130.281 143.091 114.072C145.104 97.8628 133.986 95.6732 129.326 95.6732Z" fill="#945959"/>
<path d="M121.798 116.163V123.542L117.471 122.216L121.798 116.163Z" fill="#703838"/>
<path d="M126.608 118.941C127.438 118.941 128.111 118.268 128.111 117.438C128.111 116.608 127.438 115.935 126.608 115.935C125.778 115.935 125.104 116.608 125.104 117.438C125.104 118.268 125.778 118.941 126.608 118.941Z" fill="#263238"/>
<path d="M118.216 116.392C118.214 116.689 118.125 116.979 117.959 117.226C117.793 117.472 117.558 117.664 117.283 117.776C117.008 117.889 116.706 117.918 116.415 117.859C116.124 117.8 115.857 117.657 115.647 117.446C115.437 117.236 115.295 116.968 115.237 116.677C115.18 116.385 115.21 116.083 115.324 115.809C115.438 115.535 115.631 115.3 115.878 115.135C116.125 114.97 116.415 114.882 116.712 114.882C116.91 114.882 117.106 114.921 117.289 114.997C117.472 115.073 117.638 115.185 117.778 115.325C117.917 115.465 118.028 115.632 118.103 115.815C118.178 115.998 118.216 116.194 118.216 116.392Z" fill="#263238"/>
<path d="M114.875 113.255L117.816 111.51C117.816 111.51 116.692 110.34 115.568 111.039C114.444 111.739 114.875 113.255 114.875 113.255Z" fill="#263238"/>
<path d="M119.765 126.536C121.197 126.641 122.623 126.258 123.81 125.451C123.81 125.451 124.091 127.588 122.301 127.993C120.51 128.399 119.765 126.536 119.765 126.536Z" fill="#703838"/>
<path d="M117.196 99.9346C117.196 99.9346 118.994 117.222 142.503 117.765C142.503 117.765 149.608 100.582 135.569 95C121.53 89.4183 117.196 99.9346 117.196 99.9346Z" fill="#263238"/>
<path d="M149.424 115.177L146.535 113.503C145.437 112.85 143.921 112.941 142.241 113.909C138.908 115.83 136.202 120.516 136.202 124.366C136.202 126.294 136.856 127.634 137.98 128.288L140.817 129.922L140.98 130.013L141.078 130.072C142.15 130.595 143.581 130.471 145.156 129.562C148.49 127.601 151.196 122.954 151.196 119.105C151.176 117.157 150.503 115.81 149.424 115.177Z" fill="#4E626C"/>
<path d="M149.401 125.021C151.758 120.938 151.759 116.525 149.401 115.165C147.044 113.804 143.223 116.01 140.866 120.093C138.508 124.176 138.508 128.588 140.866 129.949C143.223 131.31 147.044 129.104 149.401 125.021Z" fill="#4E626C"/>
<path opacity="0.5" d="M149.401 125.021C151.758 120.938 151.759 116.525 149.401 115.165C147.044 113.804 143.223 116.01 140.866 120.093C138.508 124.176 138.508 128.588 140.866 129.949C143.223 131.31 147.044 129.104 149.401 125.021Z" fill="black"/>
<path d="M150.582 118.804L148.621 117.66C147.876 117.216 146.837 117.275 145.686 117.935C144.485 118.72 143.485 119.777 142.767 121.02C142.05 122.264 141.635 123.658 141.556 125.092C141.556 126.399 142.02 127.333 142.771 127.765L144.732 128.882C144.767 128.908 144.804 128.93 144.843 128.948L144.909 128.987C145.368 129.161 145.864 129.22 146.351 129.159C146.839 129.097 147.304 128.917 147.706 128.634C148.907 127.849 149.906 126.793 150.624 125.551C151.341 124.309 151.757 122.916 151.837 121.484C151.784 120.157 151.327 119.235 150.582 118.804Z" fill="#4E626C"/>
<path d="M151.785 121.471C151.705 122.903 151.289 124.296 150.572 125.538C149.854 126.78 148.855 127.836 147.654 128.621C145.366 129.928 143.517 128.869 143.517 126.235C143.594 124.802 144.009 123.407 144.728 122.164C145.447 120.922 146.45 119.867 147.654 119.085C149.935 117.765 151.785 118.83 151.785 121.471Z" fill="#4E626C"/>
<path opacity="0.3" d="M151.785 121.471C151.705 122.903 151.289 124.296 150.572 125.538C149.854 126.78 148.855 127.836 147.654 128.621C145.366 129.928 143.517 128.869 143.517 126.235C143.594 124.802 144.009 123.407 144.728 122.164C145.447 120.922 146.45 119.867 147.654 119.085C149.935 117.765 151.785 118.83 151.785 121.471Z" fill="black"/>
<path d="M140.451 92.3007C138.577 90.8534 136.282 90.0571 133.915 90.0327H133.333C130.936 90.0069 128.542 90.2259 126.189 90.6863C126.621 90.6863 127.052 90.6863 127.497 90.6863H126.189V91.902H127.405C131.595 92.0445 135.565 93.8105 138.476 96.8268C141.388 99.8431 143.012 103.873 143.006 108.065V113.209C143.006 113.412 143.049 113.614 143.131 113.799C143.214 113.985 143.335 114.152 143.486 114.288C143.637 114.424 143.814 114.527 144.008 114.59C144.201 114.653 144.406 114.675 144.608 114.654H144.758L146.065 114.248C145.978 114.276 145.888 114.293 145.797 114.301C146.187 114.248 146.544 114.053 146.799 113.754C147.055 113.455 147.191 113.073 147.183 112.68V107.909C147.17 99.2745 143.438 94.634 140.451 92.3007Z" fill="#4E626C"/>
<path d="M132.222 133.667C131.683 133.667 131.15 133.551 130.66 133.327L126.575 131.438C126.511 131.415 126.453 131.379 126.404 131.333C126.354 131.286 126.315 131.23 126.289 131.167C126.262 131.105 126.249 131.037 126.25 130.97C126.251 130.902 126.266 130.835 126.294 130.773C126.322 130.711 126.363 130.656 126.414 130.611C126.464 130.566 126.524 130.531 126.588 130.51C126.653 130.489 126.721 130.482 126.788 130.489C126.856 130.495 126.921 130.516 126.98 130.549L131.065 132.438C131.586 132.68 132.17 132.754 132.735 132.648C133.3 132.543 133.817 132.264 134.216 131.85L138.137 127.797C138.229 127.706 138.354 127.654 138.484 127.654C138.614 127.654 138.738 127.706 138.83 127.797C138.92 127.89 138.971 128.014 138.971 128.144C138.971 128.273 138.92 128.397 138.83 128.49L134.909 132.543C134.559 132.901 134.142 133.185 133.68 133.378C133.218 133.572 132.723 133.67 132.222 133.667Z" fill="#4E626C"/>
<path opacity="0.5" d="M132.222 133.667C131.683 133.667 131.15 133.551 130.66 133.327L126.575 131.438C126.511 131.415 126.453 131.379 126.404 131.333C126.354 131.286 126.315 131.23 126.289 131.167C126.262 131.105 126.249 131.037 126.25 130.97C126.251 130.902 126.266 130.835 126.294 130.773C126.322 130.711 126.363 130.656 126.414 130.611C126.464 130.566 126.524 130.531 126.588 130.51C126.653 130.489 126.721 130.482 126.788 130.489C126.856 130.495 126.921 130.516 126.98 130.549L131.065 132.438C131.586 132.68 132.17 132.754 132.735 132.648C133.3 132.543 133.817 132.264 134.216 131.85L138.137 127.797C138.229 127.706 138.354 127.654 138.484 127.654C138.614 127.654 138.738 127.706 138.83 127.797C138.92 127.89 138.971 128.014 138.971 128.144C138.971 128.273 138.92 128.397 138.83 128.49L134.909 132.543C134.559 132.901 134.142 133.185 133.68 133.378C133.218 133.572 132.723 133.67 132.222 133.667Z" fill="black"/>
<path d="M127.647 130.065C127.647 130.443 127.535 130.812 127.325 131.126C127.116 131.44 126.818 131.684 126.469 131.829C126.12 131.973 125.736 132.011 125.366 131.937C124.996 131.864 124.656 131.682 124.389 131.415C124.122 131.148 123.94 130.808 123.867 130.438C123.793 130.067 123.831 129.684 123.975 129.335C124.12 128.986 124.364 128.688 124.678 128.479C124.992 128.269 125.361 128.157 125.739 128.157C126.245 128.157 126.73 128.358 127.088 128.716C127.446 129.074 127.647 129.559 127.647 130.065Z" fill="#4E626C"/>
<path opacity="0.5" d="M127.647 130.065C127.647 130.443 127.535 130.812 127.325 131.126C127.116 131.44 126.818 131.684 126.469 131.829C126.12 131.973 125.736 132.011 125.366 131.937C124.996 131.864 124.656 131.682 124.389 131.415C124.122 131.148 123.94 130.808 123.867 130.438C123.793 130.067 123.831 129.684 123.975 129.335C124.12 128.986 124.364 128.688 124.678 128.479C124.992 128.269 125.361 128.157 125.739 128.157C126.245 128.157 126.73 128.358 127.088 128.716C127.446 129.074 127.647 129.559 127.647 130.065Z" fill="black"/>
<path d="M147.17 107.908V112.68C147.179 113.073 147.042 113.455 146.786 113.754C146.531 114.053 146.174 114.248 145.785 114.301C145.569 114.324 145.351 114.301 145.146 114.234C144.94 114.167 144.75 114.058 144.589 113.913C144.428 113.768 144.299 113.591 144.212 113.393C144.124 113.195 144.078 112.981 144.079 112.765V107.908C144.082 105.591 143.617 103.296 142.711 101.163C141.805 99.0299 140.476 97.1021 138.806 95.4956C137.135 93.8891 135.157 92.6372 132.99 91.8152C130.823 90.9932 128.512 90.6181 126.196 90.7124C128.549 90.252 130.943 90.033 133.34 90.0588H133.909C136.276 90.0832 138.571 90.8795 140.445 92.3268C143.438 94.634 147.17 99.2745 147.17 107.908Z" fill="#4E626C"/>
<path opacity="0.5" d="M147.17 107.908V112.68C147.179 113.073 147.042 113.455 146.786 113.754C146.531 114.053 146.174 114.248 145.785 114.301C145.569 114.324 145.351 114.301 145.146 114.234C144.94 114.167 144.75 114.058 144.589 113.913C144.428 113.768 144.299 113.591 144.212 113.393C144.124 113.195 144.078 112.981 144.079 112.765V107.908C144.082 105.591 143.617 103.296 142.711 101.163C141.805 99.0299 140.476 97.1021 138.806 95.4956C137.135 93.8891 135.157 92.6372 132.99 91.8152C130.823 90.9932 128.512 90.6181 126.196 90.7124C128.549 90.252 130.943 90.033 133.34 90.0588H133.909C136.276 90.0832 138.571 90.8795 140.445 92.3268C143.438 94.634 147.17 99.2745 147.17 107.908Z" fill="black"/>
<path d="M139.823 197.824C139.823 197.824 136.66 206.536 147.967 210.458C147.967 210.458 151.66 205.033 147.967 200.595C144.274 196.157 139.823 197.824 139.823 197.824Z" fill="#4E626C"/>
<path opacity="0.7" d="M139.823 197.824C139.823 197.824 136.66 206.536 147.967 210.458C147.967 210.458 151.66 205.033 147.967 200.595C144.274 196.157 139.823 197.824 139.823 197.824Z" fill="black"/>
<path d="M143.791 198.222C143.791 198.222 132.745 202.268 132.804 203.837C132.863 205.405 137.497 204.333 137.497 204.333L135.804 205.444C134.021 206.608 132.641 208.292 131.85 210.268C131.677 210.704 131.671 211.188 131.833 211.628C131.994 212.068 132.312 212.433 132.725 212.654L136.922 214.876C137.158 215.002 137.418 215.078 137.685 215.102C137.953 215.126 138.222 215.095 138.477 215.013C138.733 214.931 138.969 214.798 139.172 214.623C139.375 214.448 139.541 214.234 139.66 213.993C139.894 213.531 140.217 213.12 140.611 212.784C141.005 212.447 141.461 212.192 141.954 212.033C144.235 211.275 148.49 209.092 150.196 203.118L143.791 198.222Z" fill="#945959"/>
<path d="M147.104 142.098C147.104 142.098 141.222 145.366 144.346 155.288C147.47 165.209 153.333 180.601 153.333 180.601L139.823 197.824C141.267 197.998 142.657 198.474 143.904 199.222C145.15 199.97 146.225 200.972 147.059 202.163C147.857 203.375 148.355 204.759 148.513 206.201C148.671 207.643 148.484 209.102 147.967 210.457L164.738 188.889C166.289 186.896 167.319 184.547 167.734 182.056C168.15 179.565 167.938 177.01 167.117 174.621L159.928 153.627C159.049 151.063 157.589 148.737 155.661 146.831C153.733 144.925 151.391 143.49 148.817 142.641L147.104 142.098Z" fill="#4E626C"/>
<path d="M47.8104 83.4902L21.8169 68.4575C21.5178 68.2502 21.1717 68.1207 20.81 68.0807C20.4482 68.0408 20.0822 68.0917 19.745 68.2287C19.674 68.2615 19.6061 68.3009 19.5424 68.3464L13.8888 71.6601H13.928C13.2156 72.0653 12.7646 73.0065 12.7646 74.3529V103.268C12.7646 105.712 14.2483 108.556 16.0849 109.614L42.0784 124.647C42.4082 124.886 42.8008 125.022 43.2074 125.039C43.6141 125.057 44.0169 124.955 44.366 124.745C44.3483 124.752 44.3326 124.763 44.3202 124.778L49.9346 121.51C50.6666 121.118 51.1307 120.163 51.1307 118.797V89.8366C51.1307 87.3921 49.6731 84.549 47.8104 83.4902Z" fill="#4E626C"/>
<path d="M50.2024 86.2287C49.6765 85.1103 48.8478 84.1616 47.8102 83.4902L21.8168 68.4575C21.5176 68.2502 21.1716 68.1207 20.8098 68.0807C20.448 68.0408 20.082 68.0917 19.7449 68.2287C19.6738 68.2615 19.606 68.3009 19.5423 68.3464L13.8887 71.6601C14.2345 71.4833 14.6223 71.4051 15.0096 71.4339C15.3969 71.4627 15.7689 71.5975 16.0848 71.8235L42.0782 86.8562C43.1511 87.5576 44.0014 88.5508 44.5292 89.7189L50.2024 86.2287Z" fill="#4E626C"/>
<path d="M45.3987 122.105C45.3987 123.412 44.9804 124.32 44.3203 124.719L49.9347 121.451C50.6667 121.059 51.1308 120.105 51.1308 118.739V89.8366C51.1031 88.5786 50.7855 87.3439 50.2027 86.2288L44.5295 89.719C45.0742 90.8013 45.3711 91.9913 45.3987 93.2026V122.105Z" fill="#4E626C"/>
<path opacity="0.3" d="M50.2024 86.2287C49.6765 85.1103 48.8478 84.1616 47.8102 83.4902L21.8168 68.4575C21.5176 68.2502 21.1716 68.1207 20.8098 68.0807C20.448 68.0408 20.082 68.0917 19.7449 68.2287C19.6738 68.2615 19.606 68.3009 19.5423 68.3464L13.8887 71.6601C14.2345 71.4833 14.6223 71.4051 15.0096 71.4339C15.3969 71.4627 15.7689 71.5975 16.0848 71.8235L42.0782 86.8562C43.1511 87.5576 44.0014 88.5508 44.5292 89.7189L50.2024 86.2287Z" fill="black"/>
<path opacity="0.6" d="M45.3987 122.105C45.3987 123.412 44.9804 124.32 44.3203 124.719L49.9347 121.451C50.6667 121.059 51.1308 120.105 51.1308 118.739V89.8366C51.1031 88.5786 50.7855 87.3439 50.2027 86.2288L44.5295 89.719C45.0742 90.8013 45.3711 91.9913 45.3987 93.2026V122.105Z" fill="black"/>
<path d="M37.7773 101.484C37.7773 105.229 36.2936 106.503 34.0714 105.216C33.4584 104.867 32.9223 104.397 32.4955 103.836C32.0687 103.274 31.7599 102.632 31.5877 101.948C30.9342 102.752 29.9211 102.804 28.4962 101.98C26.1564 100.627 24.3132 97.4052 24.3132 94.2745C24.3132 91.1438 26.1368 90.0654 28.4962 91.4248C29.6935 92.1304 30.6606 93.1679 31.2806 94.4118V93.1765L33.7446 94.6013V101.373C33.7079 101.729 33.7695 102.088 33.9228 102.412C34.076 102.736 34.3151 103.012 34.6139 103.209C35.444 103.693 35.9538 102.876 35.9538 100.451C35.9538 96.2091 33.2348 91.7124 29.2152 89.3921C25.1956 87.0719 22.4832 88.6863 22.4832 93.0523C22.5358 95.369 23.1742 97.6347 24.3388 99.6381C25.5034 101.642 27.1562 103.318 29.1433 104.51C30.2222 105.174 31.4474 105.565 32.7119 105.647L33.2936 107.902C31.8212 107.783 30.3984 107.315 29.1433 106.536C23.9145 103.51 20.457 97.4183 20.457 91.902C20.457 86.3856 23.9472 84.3856 29.2152 87.4314C34.3067 90.366 37.7773 96.2418 37.7773 101.484ZM31.3198 98.3399C31.3325 97.5111 31.1303 96.6931 30.7328 95.9658C30.3353 95.2384 29.7562 94.6265 29.0518 94.1895C27.7446 93.4248 26.81 93.9608 26.81 95.7385C26.7932 96.5687 26.9906 97.3891 27.3833 98.1207C27.776 98.8523 28.3507 99.4703 29.0518 99.915C30.359 100.654 31.3198 100.176 31.3198 98.3399Z" fill="#4E626C"/>
<g opacity="0.9">
<path d="M37.7773 101.484C37.7773 105.229 36.2936 106.503 34.0714 105.216C33.4584 104.867 32.9223 104.397 32.4955 103.836C32.0687 103.274 31.7599 102.632 31.5877 101.948C30.9342 102.752 29.9211 102.804 28.4962 101.98C26.1564 100.627 24.3132 97.4052 24.3132 94.2745C24.3132 91.1438 26.1368 90.0654 28.4962 91.4248C29.6935 92.1304 30.6606 93.1679 31.2806 94.4118V93.1765L33.7446 94.6013V101.373C33.7079 101.729 33.7695 102.088 33.9228 102.412C34.076 102.736 34.3151 103.012 34.6139 103.209C35.444 103.693 35.9538 102.876 35.9538 100.451C35.9538 96.2091 33.2348 91.7124 29.2152 89.3921C25.1956 87.0719 22.4832 88.6863 22.4832 93.0523C22.5358 95.369 23.1742 97.6347 24.3388 99.6381C25.5034 101.642 27.1562 103.318 29.1433 104.51C30.2222 105.174 31.4474 105.565 32.7119 105.647L33.2936 107.902C31.8212 107.783 30.3984 107.315 29.1433 106.536C23.9145 103.51 20.457 97.4183 20.457 91.902C20.457 86.3856 23.9472 84.3856 29.2152 87.4314C34.3067 90.366 37.7773 96.2418 37.7773 101.484ZM31.3198 98.3399C31.3325 97.5111 31.1303 96.6931 30.7328 95.9658C30.3353 95.2384 29.7562 94.6265 29.0518 94.1895C27.7446 93.4248 26.81 93.9608 26.81 95.7385C26.7932 96.5687 26.9906 97.3891 27.3833 98.1207C27.776 98.8523 28.3507 99.4703 29.0518 99.915C30.359 100.654 31.3198 100.176 31.3198 98.3399Z" fill="white"/>
</g>
<path d="M47.8104 134.98L21.8169 119.948C21.5182 119.739 21.1717 119.61 20.8095 119.571C20.4473 119.532 20.0812 119.585 19.745 119.725C19.674 119.758 19.6061 119.798 19.5424 119.843L13.8888 123.157H13.928C13.2156 123.562 12.7646 124.503 12.7646 125.843V154.745C12.7646 157.196 14.2483 160.033 16.0849 161.091L42.0784 176.124C42.4075 176.364 42.8003 176.502 43.2073 176.519C43.6144 176.537 44.0175 176.433 44.366 176.222L44.3202 176.261L49.9346 172.961C50.6666 172.575 51.1307 171.654 51.1307 170.248V141.32C51.1307 138.876 49.6731 136.039 47.8104 134.98Z" fill="#4E626C"/>
<path d="M50.2024 137.719C49.6783 136.599 48.8492 135.65 47.8102 134.98L21.8168 119.948C21.5181 119.739 21.1715 119.61 20.8093 119.571C20.4472 119.532 20.081 119.585 19.7449 119.725C19.6738 119.758 19.606 119.798 19.5423 119.843L13.8887 123.157C14.2337 122.978 14.6213 122.899 15.0088 122.926C15.3962 122.954 15.7686 123.088 16.0848 123.314L42.0782 138.346C43.1528 139.049 44.0034 140.045 44.5292 141.216L50.2024 137.719Z" fill="#4E626C"/>
<path d="M45.3987 173.588C45.3987 174.895 44.9804 175.804 44.3203 176.235L49.9347 172.935C50.6667 172.549 51.1308 171.627 51.1308 170.222V141.32C51.1031 140.064 50.7854 138.832 50.2027 137.719L44.5295 141.209C45.074 142.289 45.371 143.477 45.3987 144.686V173.588Z" fill="#4E626C"/>
<path opacity="0.3" d="M50.2024 137.719C49.6783 136.599 48.8492 135.65 47.8102 134.98L21.8168 119.948C21.5181 119.739 21.1715 119.61 20.8093 119.571C20.4472 119.532 20.081 119.585 19.7449 119.725C19.6738 119.758 19.606 119.798 19.5423 119.843L13.8887 123.157C14.2337 122.978 14.6213 122.899 15.0088 122.926C15.3962 122.954 15.7686 123.088 16.0848 123.314L42.0782 138.346C43.1528 139.049 44.0034 140.045 44.5292 141.216L50.2024 137.719Z" fill="black"/>
<path opacity="0.6" d="M45.3987 173.588C45.3987 174.895 44.9804 175.804 44.3203 176.235L49.9347 172.935C50.6667 172.549 51.1308 171.627 51.1308 170.222V141.32C51.1031 140.064 50.7854 138.832 50.2027 137.719L44.5295 141.209C45.074 142.289 45.371 143.477 45.3987 144.686V173.588Z" fill="black"/>
<path d="M26.1762 147.902L19.9082 137.719V151.516L26.1762 147.902Z" fill="#4E626C"/>
<path d="M32 150.837L38.2549 161.667V147.889L32 150.837Z" fill="#4E626C"/>
<path d="M20.8564 137.255L27.2944 147.712C27.3216 147.735 27.3458 147.762 27.3662 147.791C27.3719 147.817 27.3719 147.843 27.3662 147.869L29.2813 150.98L30.9022 150.216C30.9274 150.188 30.956 150.164 30.9872 150.144C31.0511 150.106 31.1226 150.084 31.1963 150.078L37.7323 147.013L20.8564 137.255Z" fill="#4E626C"/>
<path d="M31.0526 151.281L29.3009 152.105C29.2334 152.136 29.1597 152.152 29.0852 152.15C28.995 152.151 28.9061 152.129 28.8271 152.085C28.748 152.042 28.6816 151.979 28.6343 151.902L26.7192 148.791L20.4316 152.425L37.3532 162.19L31.0526 151.281Z" fill="#4E626C"/>
<g opacity="0.9">
<path d="M26.1762 147.902L19.9082 137.719V151.516L26.1762 147.902Z" fill="white"/>
<path d="M32 150.837L38.2549 161.667V147.889L32 150.837Z" fill="white"/>
<path d="M20.8555 137.255L27.2934 147.712C27.3206 147.735 27.3448 147.762 27.3653 147.791C27.3709 147.817 27.3709 147.843 27.3653 147.869L29.2803 150.98L30.9012 150.216C30.9265 150.188 30.955 150.164 30.9862 150.144C31.0501 150.106 31.1216 150.084 31.1953 150.078L37.7313 147.013L20.8555 137.255Z" fill="white"/>
<path d="M31.0516 151.281L29.2999 152.105C29.2325 152.136 29.1587 152.152 29.0843 152.15C28.994 152.151 28.9051 152.129 28.8261 152.085C28.7471 152.042 28.6806 151.979 28.6333 151.902L26.7182 148.791L20.4307 152.425L37.3522 162.19L31.0516 151.281Z" fill="white"/>
</g>
<path d="M47.8104 32.0261L21.8169 16.9935C21.5182 16.785 21.1717 16.6553 20.8095 16.6165C20.4473 16.5776 20.0812 16.6309 19.745 16.7712C19.674 16.8041 19.6061 16.8434 19.5424 16.8889L13.8888 20.2026H13.928C13.2156 20.6013 12.7646 21.549 12.7646 22.8889V51.7908C12.7646 54.2353 14.2483 57.0784 16.0849 58.1372L42.0784 73.1699C42.4075 73.4101 42.8003 73.5475 43.2073 73.565C43.6144 73.5824 44.0175 73.4791 44.366 73.268L44.3202 73.3006L49.9346 70.0327C50.6666 69.6471 51.1307 68.7255 51.1307 67.3203V38.3464C51.1307 35.902 49.6731 33.0588 47.8104 32.0261Z" fill="#4E626C"/>
<path d="M50.2024 34.7451C49.6784 33.6237 48.8494 32.6724 47.8102 32L21.8168 16.9935C21.5181 16.785 21.1715 16.6553 20.8093 16.6165C20.4472 16.5776 20.081 16.6309 19.7449 16.7712C19.6738 16.8041 19.606 16.8434 19.5423 16.8889L13.8887 20.2026C14.2337 20.0242 14.6213 19.9444 15.0088 19.9721C15.3962 19.9998 15.7686 20.1338 16.0848 20.3595L42.0782 35.3922C43.1528 36.0945 44.0034 37.0903 44.5292 38.2614L50.2024 34.7451Z" fill="#4E626C"/>
<path d="M45.3987 70.5883C45.3987 71.8954 44.9804 72.8039 44.3203 73.2026L49.9347 69.9347C50.6667 69.549 51.1308 68.6275 51.1308 67.2222V38.3464C51.1031 37.0905 50.7854 35.858 50.2027 34.7451L44.5295 38.2353C45.074 39.3153 45.371 40.5032 45.3987 41.7124V70.5883Z" fill="#4E626C"/>
<path opacity="0.3" d="M50.2024 34.7451C49.6784 33.6237 48.8494 32.6724 47.8102 32L21.8168 16.9935C21.5181 16.785 21.1715 16.6553 20.8093 16.6165C20.4472 16.5776 20.081 16.6309 19.7449 16.7712C19.6738 16.8041 19.606 16.8434 19.5423 16.8889L13.8887 20.2026C14.2337 20.0242 14.6213 19.9444 15.0088 19.9721C15.3962 19.9998 15.7686 20.1338 16.0848 20.3595L42.0782 35.3922C43.1528 36.0945 44.0034 37.0903 44.5292 38.2614L50.2024 34.7451Z" fill="black"/>
<path opacity="0.6" d="M45.3987 70.5883C45.3987 71.8954 44.9804 72.8039 44.3203 73.2026L49.9347 69.9347C50.6667 69.549 51.1308 68.6275 51.1308 67.2222V38.3464C51.1031 37.0905 50.7854 35.858 50.2027 34.7451L44.5295 38.2353C45.074 39.3153 45.371 40.5032 45.3987 41.7124V70.5883Z" fill="black"/>
<path d="M36.8953 58.1699C35.8953 56.5228 34.8888 54.9019 33.8888 53.2418C33.7301 52.9274 33.5084 52.649 33.2374 52.4241C32.9664 52.1992 32.6519 52.0325 32.3136 51.9346C31.8299 51.8366 31.3463 51.7255 30.8495 51.5817C30.6726 51.5079 30.5238 51.3797 30.4247 51.2157C28.7884 48.4151 27.4875 45.4316 26.5489 42.3268C26.5289 42.2604 26.5233 42.1905 26.5323 42.1218C26.5413 42.0531 26.5648 41.9871 26.6012 41.9281C26.9084 41.6209 27.2548 41.3398 27.5685 41.0653C27.8822 40.7908 28.0456 40.1568 27.8169 39.3333C27.3332 37.5882 26.8692 35.8431 26.3855 34.1045C26.2919 33.6106 26.0699 33.1499 25.7417 32.769C25.4136 32.3881 24.9909 32.1003 24.5162 31.9346C23.4622 31.6416 22.3433 31.6827 21.3136 32.0523C20.9149 32.2026 20.7058 32.5621 20.6992 33.183C20.8692 34.3791 20.9803 35.5621 21.209 36.7777C22.8212 45.5446 26.6992 53.6056 32.843 60.9608C33.0034 61.2047 33.2189 61.4074 33.4721 61.5528C33.7252 61.6981 34.009 61.7819 34.3005 61.7974C35.3177 61.7732 36.2949 61.3966 37.0652 60.732C37.6469 60.2091 37.5881 59.281 36.8953 58.1699Z" fill="#4E626C"/>
<path d="M36.8171 49.2614C36.6804 47.3814 36.1622 45.549 35.2943 43.8758C34.6462 42.5687 33.8215 41.3569 32.8433 40.2745C32.5884 39.9869 32.3727 39.8954 32.242 40.1111C32.1112 40.3268 32.242 40.634 32.4903 40.915L32.7452 41.2091C34.5518 43.2945 35.6903 45.8743 36.0132 48.6144C36.01 48.8142 36.0298 49.0138 36.072 49.2091C36.1541 49.4339 36.2859 49.6372 36.4577 49.8039C36.5949 49.9019 36.7518 49.8039 36.8629 49.8039C36.8237 49.5359 36.8302 49.3987 36.8171 49.2614Z" fill="#4E626C"/>
<path d="M30.8949 43.8955C31.7157 44.7982 32.2144 45.9473 32.3132 47.1634C32.3563 47.3483 32.4245 47.5264 32.5159 47.6928C32.9145 48.0196 33.1106 47.9085 33.1106 47.4968C32.9709 45.9375 32.326 44.4665 31.274 43.3072C31.0257 43.0523 30.823 42.9739 30.7054 43.1896C30.6631 43.3127 30.6585 43.4457 30.6923 43.5715C30.7261 43.6972 30.7966 43.8101 30.8949 43.8955Z" fill="#4E626C"/>
<g opacity="0.9">
<path d="M36.8953 58.1699C35.8953 56.5228 34.8888 54.9019 33.8888 53.2418C33.7301 52.9274 33.5084 52.649 33.2374 52.4241C32.9664 52.1992 32.6519 52.0325 32.3136 51.9346C31.8299 51.8366 31.3463 51.7255 30.8495 51.5817C30.6726 51.5079 30.5238 51.3797 30.4247 51.2157C28.7884 48.4151 27.4875 45.4316 26.5489 42.3268C26.5289 42.2604 26.5233 42.1905 26.5323 42.1218C26.5413 42.0531 26.5648 41.9871 26.6012 41.9281C26.9084 41.6209 27.2548 41.3398 27.5685 41.0653C27.8822 40.7908 28.0456 40.1568 27.8169 39.3333C27.3332 37.5882 26.8692 35.8431 26.3855 34.1045C26.2919 33.6106 26.0699 33.1499 25.7417 32.769C25.4136 32.3881 24.9909 32.1003 24.5162 31.9346C23.4622 31.6416 22.3433 31.6827 21.3136 32.0523C20.9149 32.2026 20.7058 32.5621 20.6992 33.183C20.8692 34.3791 20.9803 35.5621 21.209 36.7777C22.8212 45.5446 26.6992 53.6056 32.843 60.9608C33.0034 61.2047 33.2189 61.4074 33.4721 61.5528C33.7252 61.6981 34.009 61.7819 34.3005 61.7974C35.3177 61.7732 36.2949 61.3966 37.0652 60.732C37.6469 60.2091 37.5881 59.281 36.8953 58.1699Z" fill="white"/>
<path d="M36.8171 49.2614C36.6804 47.3814 36.1622 45.549 35.2943 43.8758C34.6462 42.5687 33.8215 41.3569 32.8433 40.2745C32.5884 39.9869 32.3727 39.8954 32.242 40.1111C32.1112 40.3268 32.242 40.634 32.4903 40.915L32.7452 41.2091C34.5518 43.2945 35.6903 45.8743 36.0132 48.6144C36.01 48.8142 36.0298 49.0138 36.072 49.2091C36.1541 49.4339 36.2859 49.6372 36.4577 49.8039C36.5949 49.9019 36.7518 49.8039 36.8629 49.8039C36.8237 49.5359 36.8302 49.3987 36.8171 49.2614Z" fill="white"/>
<path d="M30.8949 43.8954C31.7157 44.7982 32.2144 45.9473 32.3132 47.1634C32.3563 47.3483 32.4245 47.5264 32.5159 47.6928C32.9145 48.0196 33.1106 47.9085 33.1106 47.4967C32.9709 45.9375 32.326 44.4665 31.274 43.3072C31.0257 43.0523 30.823 42.9738 30.7054 43.1895C30.6631 43.3127 30.6585 43.4456 30.6923 43.5714C30.7261 43.6972 30.7966 43.81 30.8949 43.8954Z" fill="white"/>
</g>
</g>
<defs>
<clipPath id="clip0_105_442">
<rect width="259" height="300" fill="white"/>
</clipPath>
</defs>
</svg>
