<svg width="311" height="300" viewBox="0 0 311 300" fill="none" xmlns="http://www.w3.org/2000/svg">
<g clip-path="url(#clip0_107_1495)">
<path d="M81.4131 143.284L2.18629 189.033C0.513425 190.004 0.513425 191.57 2.18629 192.533L186.007 298.787C187.981 299.802 190.246 300.105 192.418 299.643C227.307 290.088 254.568 273.807 272.046 253.954C272.345 253.638 272.566 253.257 272.692 252.84C272.818 252.424 272.845 251.983 272.771 251.555C272.697 251.126 272.524 250.72 272.266 250.37C272.007 250.02 271.671 249.735 271.283 249.538L87.4956 143.284C86.5538 142.804 85.5116 142.553 84.4543 142.553C83.397 142.553 82.3548 142.804 81.4131 143.284Z" fill="#EBEBEB"/>
<path d="M57.1565 255.433C70.1391 255.433 80.6635 249.357 80.6635 241.862C80.6635 234.368 70.1391 228.292 57.1565 228.292C44.1739 228.292 33.6494 234.368 33.6494 241.862C33.6494 249.357 44.1739 255.433 57.1565 255.433Z" fill="#EBEBEB"/>
<path d="M246.632 173.978C237.933 178.996 237.933 187.133 246.632 192.152C255.33 197.17 269.383 197.17 278.081 192.152C286.78 187.133 286.78 178.996 278.081 173.978C269.383 168.959 255.317 168.959 246.632 173.978Z" fill="#EBEBEB"/>
<path d="M274.127 131.433L272.373 130.543L264.002 149.219V126.796H260.744V144.863L252.212 128.837L250.546 129.874L260.744 148.61V182.616C260.756 182.761 260.807 182.9 260.892 183.017C260.977 183.135 261.092 183.228 261.225 183.285C261.585 183.47 261.983 183.567 262.386 183.567C262.79 183.567 263.188 183.47 263.547 183.285C263.679 183.226 263.792 183.133 263.876 183.016C263.96 182.898 264.01 182.76 264.022 182.616V153.569L274.127 131.433Z" fill="#E0E0E0"/>
<path d="M304.398 115.336C307.592 101.801 299.21 88.2399 285.675 85.0454C272.141 81.851 258.579 90.2333 255.385 103.768C252.19 117.303 260.573 130.864 274.107 134.059C287.642 137.253 301.203 128.871 304.398 115.336Z" fill="#F0F0F0"/>
<path d="M287.797 103.122C291.042 92.8907 294.488 88.8892 292.307 87.6446C288.135 85.285 283.377 84.1649 278.591 84.4158C273.805 84.6668 269.19 86.2784 265.288 89.0614C261.386 91.8444 258.36 95.6831 256.564 100.127C254.768 104.57 254.278 109.434 255.15 114.146C256.023 118.859 258.223 123.224 261.49 126.73C264.758 130.236 268.959 132.736 273.598 133.937C278.238 135.139 283.124 134.991 287.683 133.511C292.241 132.032 296.283 129.282 299.333 125.585C291.872 127.767 283.588 116.384 287.797 103.122Z" fill="#E0E0E0"/>
<path d="M257.933 116.686C257.933 120.186 256.895 123.608 254.95 126.518C253.005 129.429 250.241 131.698 247.007 133.037C243.773 134.377 240.214 134.727 236.781 134.044C233.348 133.361 230.194 131.676 227.719 129.201C225.244 126.725 223.558 123.572 222.875 120.138C222.192 116.705 222.543 113.147 223.882 109.912C225.222 106.678 227.491 103.914 230.401 101.969C233.312 100.025 236.734 98.9866 240.234 98.9866C244.928 98.9866 249.43 100.851 252.749 104.171C256.068 107.49 257.933 111.991 257.933 116.686Z" fill="#F0F0F0"/>
<path d="M240.234 98.9866C236.52 98.9852 232.899 100.156 229.889 102.332C229.407 113.146 238.588 123.691 236.025 127.231C233.462 130.771 227.139 128.603 224.938 125.592C226.499 128.275 228.738 130.501 231.431 132.045C234.124 133.59 237.176 134.399 240.28 134.391C243.385 134.383 246.432 133.559 249.118 132.001C251.803 130.444 254.031 128.207 255.579 125.516C257.126 122.825 257.939 119.774 257.935 116.669C257.931 113.565 257.11 110.516 255.556 107.829C254.001 105.142 251.767 102.911 249.078 101.36C246.388 99.8092 243.339 98.993 240.234 98.9933V98.9866Z" fill="#E0E0E0"/>
<path d="M294.87 97.6015C294.871 104.024 292.968 110.304 289.401 115.645C285.833 120.986 280.762 125.149 274.828 127.608C268.895 130.067 262.365 130.711 256.065 129.459C249.766 128.206 243.979 125.114 239.437 120.573C234.894 116.032 231.801 110.245 230.547 103.946C229.294 97.6465 229.936 91.1168 232.394 85.1826C234.852 79.2485 239.014 74.1764 244.354 70.6078C249.695 67.0393 255.974 65.1346 262.396 65.1346C271.008 65.1346 279.267 68.555 285.356 74.6435C291.446 80.7321 294.868 88.9901 294.87 97.6015Z" fill="#F0F0F0"/>
<path d="M293.973 105.056C292.836 109.898 290.602 114.415 287.442 118.257C284.283 122.099 280.283 125.163 275.751 127.214C271.219 129.265 266.277 130.247 261.306 130.085C256.334 129.922 251.466 128.62 247.078 126.278C242.69 123.936 238.899 120.616 235.997 116.577C233.095 112.537 231.16 107.884 230.341 102.978C229.523 98.0714 229.842 93.0426 231.276 88.2794C232.709 83.5163 235.218 79.1461 238.608 75.5063C240.863 73.084 241.003 72.9836 238.782 75.3256C238.217 77.7567 237.93 80.244 237.925 82.7398C237.922 89.2387 239.87 95.5889 243.516 100.968C247.163 106.348 252.34 110.509 258.378 112.913C264.416 115.317 271.036 115.853 277.382 114.453C283.729 113.052 289.508 109.778 293.973 105.056Z" fill="#EBEBEB"/>
<path d="M54.0983 192.493C54.1499 194.591 53.7553 196.675 52.9407 198.609C52.3294 200.045 51.2895 201.258 49.963 202.082L49.8626 202.142L42.4084 206.438L39.3838 200.416L39.1764 200.014C37.4754 198.687 35.9567 197.141 34.6597 195.417C34.3251 194.995 33.9905 194.561 33.7095 194.112C31.8514 191.414 30.4037 188.456 29.4136 185.333C28.6437 182.972 28.2067 180.515 28.1154 178.033L28.0619 177.932L27.2991 176.42L25.6731 173.308L25.0039 171.97L31.6485 168.123L32.0968 167.862L32.2842 167.755C33.304 167.177 34.4577 166.877 35.6299 166.885C37.5517 166.949 39.4229 167.517 41.0567 168.531C48.2701 172.726 54.0983 183.439 54.0983 192.493Z" fill="#263238"/>
<path d="M20.5205 181.833C20.5205 189.642 24.8566 198.682 30.6581 203.681C31.5437 204.447 32.4979 205.13 33.5086 205.722C40.7019 209.884 46.5369 205.903 46.5302 196.842C46.5302 190.004 43.1845 182.208 38.5004 177.022C38.5004 177.022 38.5004 177.022 38.4603 176.982C37.0353 175.387 35.3744 174.019 33.5354 172.927C26.3153 168.805 20.5205 172.78 20.5205 181.833Z" fill="#37474F"/>
<path d="M33.5028 178.421C28.9325 175.778 25.2188 178.528 25.2188 184.57C25.2188 190.613 28.9325 197.645 33.5028 200.289C38.073 202.932 41.7935 200.175 41.7935 194.139C41.7935 188.103 38.0797 181.064 33.5028 178.421Z" fill="#455A64"/>
<path d="M20.5205 181.833C20.5205 189.642 24.8566 198.683 30.6581 203.681C26.6289 199.118 23.7921 193.628 22.4008 187.702C21.2967 182.482 21.7317 174.988 26.1949 173.094C30.6581 171.201 36.5934 175.189 38.4603 177.009C37.0353 175.414 35.3744 174.046 33.5354 172.954C26.3153 168.805 20.5205 172.78 20.5205 181.833Z" fill="#455A64"/>
<path d="M33.502 183.68C31.1265 182.309 29.2061 183.734 29.2061 186.872C29.2061 190.01 31.1265 193.657 33.502 195.029C35.8774 196.401 37.8046 194.969 37.8046 191.837C37.8046 188.706 35.9109 185.052 33.502 183.68Z" fill="#E0E0E0"/>
<path d="M32.1306 183.62C31.8362 183.448 31.5184 183.32 31.1871 183.239C29.996 183.56 29.1797 184.865 29.1797 186.872C29.2562 189.252 30.1146 191.54 31.6221 193.383C31.7841 193.509 31.954 193.626 32.1306 193.731C34.2451 194.949 35.9514 193.684 35.9514 190.894C35.9514 188.103 34.2451 184.845 32.1306 183.62Z" fill="#F5F5F5"/>
<path d="M24.4219 163.445V166.604L117.373 220.269V217.111L24.4219 163.445Z" fill="#455A64"/>
<path d="M53.1081 183.172L48.0293 180.234V197.491C48.0293 198.421 48.6984 198.796 49.4813 198.328L53.4962 196.019L53.1148 195.792L53.1081 183.172Z" fill="#4E626C"/>
<path opacity="0.7" d="M53.1081 183.172L48.0293 180.234V197.491C48.0293 198.421 48.6984 198.796 49.4813 198.328L53.4962 196.019L53.1148 195.792L53.1081 183.172Z" fill="white"/>
<path d="M53.1084 183.172V192.64L76.3612 206.063V196.595L53.1084 183.172Z" fill="#37474F"/>
<path d="M76.3613 206.063L53.1085 192.64L51.7568 193.443L76.3613 207.629V206.063Z" fill="#263238"/>
<path d="M51.7637 195.022V193.45L76.3614 207.629V209.222L51.7637 195.022Z" fill="#455A64"/>
<path d="M76.3613 193.436V212.38L95.4989 223.427V204.484L76.3613 193.436Z" fill="#37474F"/>
<path d="M95.499 204.484V223.428L114.637 234.475V215.538L95.499 204.484Z" fill="#37474F"/>
<path d="M114.636 234.475L120.103 231.317V215.532L117.373 217.111L114.636 215.538V234.475Z" fill="#263238"/>
<path d="M94.8096 223.026V204.089L96.1746 204.879V223.816L94.8096 223.026Z" fill="#263238"/>
<path d="M104.378 215.926V212.768L105.743 213.558L105.75 216.716L104.378 215.926Z" fill="#E0E0E0"/>
<path d="M85.2402 204.886V201.727L86.6053 202.51L86.612 205.675L85.2402 204.886Z" fill="#E0E0E0"/>
<path opacity="0.2" d="M74.9625 192.627V205.26L73.6309 206.056V207.642L76.361 209.222V193.436L74.9625 192.627Z" fill="black"/>
<path d="M18.9551 160.294L117.373 217.111L117.38 210.821L18.9551 154.004V160.294Z" fill="#4E626C"/>
<g opacity="0.6">
<path d="M18.9551 160.294L117.373 217.111L117.38 210.821L18.9551 154.004V160.294Z" fill="white"/>
</g>
<path d="M117.373 217.111L120.103 215.532V209.222L117.373 210.801V217.111Z" fill="#4E626C"/>
<g opacity="0.5">
<path d="M117.373 217.111L120.103 215.532V209.222L117.373 210.801V217.111Z" fill="white"/>
</g>
<g opacity="0.1">
<path d="M117.373 217.111L120.103 215.532V209.222L117.373 210.801V217.111Z" fill="black"/>
</g>
<path d="M87.3015 114.517L18.9551 154.004L117.373 210.801L185.719 171.341L87.3015 114.517Z" fill="#4E626C"/>
<g opacity="0.8">
<path d="M87.3015 114.517L18.9551 154.004L117.373 210.801L185.719 171.341L87.3015 114.517Z" fill="white"/>
</g>
<path d="M27.1523 76.6372L114.636 127.144L177.516 90.8431L90.0319 40.3361L27.1523 76.6372Z" fill="#455A64"/>
<path d="M114.636 206.063V127.144L27.1523 76.6371V155.556L114.636 206.063Z" fill="#37474F"/>
<path d="M114.637 206.063L177.516 169.762V90.8431L114.637 127.144V206.063Z" fill="#263238"/>
<path d="M89.383 181.834C88.8885 181.487 88.4837 181.028 88.2021 180.494C87.9205 179.959 87.7702 179.366 87.7637 178.762V174.078L91.0559 176.012L91.27 175.972V176.286V180.489C91.2936 180.764 91.2441 181.041 91.1267 181.291C91.0092 181.541 90.8278 181.756 90.6008 181.914C90.443 182.001 90.2658 182.047 90.0856 182.048C89.8372 182.036 89.5957 181.962 89.383 181.834ZM89.751 176.775L89.5101 178.421H88.2923V178.762C88.3015 179.271 88.4269 179.772 88.6588 180.225C88.8907 180.679 89.2231 181.073 89.6306 181.378C89.7324 181.451 89.8512 181.496 89.9755 181.509C90.0998 181.522 90.2254 181.502 90.3399 181.452C90.4803 181.337 90.5891 181.189 90.6558 181.02C90.7226 180.851 90.7451 180.668 90.7213 180.489V176.594L89.751 176.775ZM89.2826 176.32L90.2529 176.146L88.2923 174.988V177.892H89.0551L89.2826 176.32Z" fill="#E0E0E0"/>
<path d="M89.5169 185.4C89.5518 185.4 89.5862 185.393 89.6184 185.38C89.6505 185.366 89.6795 185.346 89.7039 185.321C89.7282 185.296 89.7473 185.267 89.76 185.234C89.7727 185.202 89.7788 185.167 89.7779 185.132V181.606C89.7779 181.537 89.7504 181.47 89.7014 181.421C89.6525 181.372 89.5861 181.345 89.5169 181.345C89.4477 181.345 89.3813 181.372 89.3324 181.421C89.2834 181.47 89.2559 181.537 89.2559 181.606V185.132C89.2551 185.167 89.2611 185.202 89.2739 185.234C89.2866 185.267 89.3056 185.296 89.33 185.321C89.3543 185.346 89.3834 185.366 89.4155 185.38C89.4476 185.393 89.4821 185.4 89.5169 185.4Z" fill="#E0E0E0"/>
<path d="M91.0493 186.283C91.0959 186.284 91.1417 186.272 91.1818 186.248C91.2219 186.225 91.2548 186.19 91.2769 186.149C91.2948 186.12 91.3067 186.087 91.3117 186.052C91.3167 186.018 91.3148 185.983 91.3061 185.949C91.2973 185.915 91.282 185.884 91.2609 185.856C91.2398 185.829 91.2134 185.805 91.1832 185.788L88.1051 184.015C88.0761 183.996 88.0435 183.984 88.0094 183.978C87.9753 183.973 87.9404 183.974 87.907 183.983C87.8736 183.992 87.8424 184.008 87.8155 184.029C87.7885 184.051 87.7664 184.078 87.7505 184.109C87.7325 184.138 87.7206 184.171 87.7156 184.206C87.7106 184.24 87.7125 184.275 87.7212 184.309C87.73 184.343 87.7453 184.374 87.7664 184.402C87.7875 184.43 87.814 184.453 87.8441 184.47L90.9155 186.243C90.9564 186.267 91.0022 186.281 91.0493 186.283Z" fill="#E0E0E0"/>
<path d="M100.25 191.737C100.351 191.739 100.451 191.714 100.538 191.663C100.644 191.597 100.731 191.503 100.786 191.39C100.842 191.278 100.865 191.152 100.852 191.027V190.305C100.842 190.242 100.81 190.185 100.762 190.143C100.713 190.102 100.652 190.079 100.588 190.079C100.524 190.079 100.463 190.102 100.414 190.143C100.366 190.185 100.334 190.242 100.324 190.305V191.027C100.324 191.135 100.324 191.195 100.27 191.208C100.21 191.215 100.15 191.198 100.103 191.161C99.9392 191.009 99.8103 190.823 99.7249 190.616C99.6394 190.41 99.5995 190.187 99.6077 189.964V185.28C99.6086 185.245 99.6025 185.21 99.5898 185.178C99.577 185.145 99.5579 185.116 99.5336 185.091C99.5093 185.066 99.4802 185.046 99.4481 185.032C99.416 185.019 99.3815 185.012 99.3467 185.012C99.2757 185.012 99.2076 185.04 99.1574 185.09C99.1072 185.14 99.079 185.209 99.079 185.28V189.964C99.0654 190.279 99.1261 190.592 99.2563 190.879C99.3865 191.167 99.5825 191.419 99.8285 191.616C99.9563 191.692 100.101 191.734 100.25 191.737Z" fill="#E0E0E0"/>
<path d="M96.0073 183.58V183.426C95.9267 182.974 95.9875 182.508 96.1813 182.091C96.3751 181.675 96.6925 181.328 97.0903 181.099C97.4882 180.869 97.9471 180.768 98.4046 180.808C98.8621 180.849 99.2961 181.029 99.6474 181.325C100.632 181.966 101.451 182.83 102.038 183.848C102.625 184.865 102.964 186.007 103.027 187.18V187.635L96.0073 183.58ZM97.3455 181.572C97.0751 181.767 96.8583 182.026 96.7155 182.327C96.5727 182.628 96.5086 182.96 96.5292 183.292L102.471 186.725C102.34 185.73 101.996 184.775 101.463 183.925C100.929 183.075 100.219 182.35 99.3798 181.8C98.9769 181.549 98.5155 181.409 98.0415 181.392C97.8019 181.387 97.565 181.442 97.3522 181.552L97.3455 181.572Z" fill="#E0E0E0"/>
<path d="M110.856 197.665C110.89 197.665 110.925 197.659 110.957 197.645C110.989 197.631 111.018 197.612 111.042 197.587C111.067 197.562 111.086 197.532 111.099 197.5C111.111 197.467 111.117 197.433 111.117 197.398V188.411C111.117 188.376 111.111 188.342 111.099 188.309C111.086 188.277 111.067 188.247 111.042 188.222C111.018 188.197 110.989 188.178 110.957 188.164C110.925 188.151 110.89 188.144 110.856 188.144C110.785 188.144 110.716 188.172 110.666 188.222C110.616 188.272 110.588 188.34 110.588 188.411V197.398C110.588 197.469 110.616 197.537 110.666 197.587C110.716 197.637 110.785 197.665 110.856 197.665Z" fill="#E0E0E0"/>
<path d="M111.638 190.459C111.674 190.466 111.71 190.466 111.745 190.459C111.777 190.445 111.806 190.425 111.83 190.4C111.854 190.375 111.873 190.345 111.885 190.313C111.898 190.28 111.904 190.246 111.903 190.211C111.902 190.176 111.894 190.142 111.879 190.111L110.942 187.936L109.892 189.154C109.847 189.207 109.824 189.276 109.83 189.346C109.836 189.415 109.869 189.48 109.922 189.525C109.975 189.571 110.044 189.593 110.114 189.587C110.183 189.581 110.248 189.548 110.293 189.495L110.788 188.92L111.397 190.318C111.42 190.362 111.455 190.398 111.497 190.423C111.54 190.448 111.589 190.46 111.638 190.459Z" fill="#E0E0E0"/>
<path d="M108.426 196.274C108.496 196.272 108.562 196.243 108.611 196.193C108.66 196.143 108.687 196.076 108.687 196.006V187.019C108.693 186.981 108.691 186.942 108.681 186.905C108.67 186.867 108.652 186.833 108.627 186.803C108.601 186.774 108.57 186.75 108.535 186.734C108.5 186.718 108.462 186.709 108.423 186.709C108.384 186.709 108.346 186.718 108.311 186.734C108.276 186.75 108.244 186.774 108.219 186.803C108.194 186.833 108.176 186.867 108.165 186.905C108.155 186.942 108.153 186.981 108.159 187.019V196.006C108.159 196.077 108.187 196.145 108.237 196.195C108.287 196.245 108.355 196.274 108.426 196.274Z" fill="#E0E0E0"/>
<path d="M109.196 189.067C109.232 189.073 109.268 189.073 109.303 189.067C109.335 189.053 109.364 189.033 109.388 189.008C109.412 188.983 109.431 188.953 109.443 188.921C109.456 188.889 109.462 188.854 109.461 188.819C109.46 188.785 109.452 188.75 109.437 188.719L108.5 186.544L107.45 187.755C107.413 187.81 107.398 187.875 107.407 187.94C107.415 188.005 107.447 188.064 107.497 188.107C107.546 188.15 107.609 188.173 107.675 188.172C107.74 188.172 107.803 188.147 107.851 188.103L108.346 187.528L108.955 188.926C108.978 188.97 109.013 189.007 109.055 189.031C109.098 189.056 109.147 189.069 109.196 189.067Z" fill="#E0E0E0"/>
<path d="M55.363 150.049V164.523C55.363 165.078 54.9682 165.306 54.4864 165.025L31.8961 151.976C31.6404 151.812 31.4275 151.589 31.2751 151.326C31.1226 151.063 31.035 150.768 31.0195 150.464V135.984C31.0195 135.422 31.4143 135.201 31.8961 135.475L54.4931 148.55C54.7447 148.715 54.9544 148.937 55.1054 149.197C55.2564 149.457 55.3446 149.749 55.363 150.049Z" fill="#FAFAFA"/>
<path d="M32.4189 137.549L33.1483 137.971V151.126L32.4189 150.705V137.549Z" fill="#455A64"/>
<path d="M35.3896 139.262L36.6476 140.005V153.161L35.3896 152.425V139.262Z" fill="#455A64"/>
<path d="M38.3604 140.975L39.0897 141.397V154.559L38.3604 154.138V140.975Z" fill="#455A64"/>
<path d="M40.6025 142.247L42.0613 143.117V156.272L40.6025 155.409V142.247Z" fill="#455A64"/>
<path d="M44.3027 144.408L45.0321 144.83V157.985L44.3027 157.564V144.408Z" fill="#455A64"/>
<path d="M46.4375 145.613L48.0033 146.543V159.698L46.4375 158.775V145.613Z" fill="#455A64"/>
<path d="M50.2441 147.834L50.9735 148.256L50.9668 161.418L50.2441 160.99V147.834Z" fill="#455A64"/>
<path d="M51.9375 148.798L52.2988 149.012V162.167L51.9375 161.96V148.798Z" fill="#455A64"/>
<path d="M48.8857 147.118L49.2538 147.326V160.488L48.8857 160.274V147.118Z" fill="#455A64"/>
<path d="M42.9043 143.612L43.2723 143.826V156.981L42.9043 156.774V143.612Z" fill="#455A64"/>
<path d="M39.625 141.732L39.993 141.946V155.101L39.625 154.894V141.732Z" fill="#455A64"/>
<path d="M37.2762 140.433L37.6376 140.648V153.803L37.2695 153.589L37.2762 140.433Z" fill="#455A64"/>
<path d="M34.085 138.493L34.4463 138.707V151.862L34.085 151.655V138.493Z" fill="#455A64"/>
<path d="M53.2157 149.547L53.9384 149.969V163.131L53.209 162.709L53.2157 149.547Z" fill="#455A64"/>
<path d="M76.3616 183.968V105.049L65.4277 98.7324V177.651L76.3616 183.968Z" fill="#4E626C"/>
<g opacity="0.3">
<path d="M76.3616 183.968V105.049L65.4277 98.7324V177.651L76.3616 183.968Z" fill="black"/>
</g>
<path d="M140.619 191.068V112.149L151.553 105.832V184.751L140.619 191.068Z" fill="#4E626C"/>
<g opacity="0.45">
<path d="M140.619 191.068V112.149L151.553 105.832V184.751L140.619 191.068Z" fill="black"/>
</g>
<path d="M65.4277 98.7324L128.307 62.4313L139.241 68.7413L76.3616 105.049L65.4277 98.7324Z" fill="#4E626C"/>
<g opacity="0.15">
<path d="M65.4277 98.7324L128.307 62.4313L139.241 68.7413L76.3616 105.049L65.4277 98.7324Z" fill="black"/>
</g>
<g opacity="0.15">
<path d="M89.4092 84.8877L100.397 91.171L102.337 90.0535L91.4032 83.7368L89.4092 84.8877Z" fill="black"/>
</g>
<path d="M151.553 105.832L64.0559 55.3316L53.1221 61.6416L140.619 112.149L151.553 105.832Z" fill="#4E626C"/>
<g opacity="0.15">
<path d="M151.553 105.832L64.0559 55.3316L53.1221 61.6416L140.619 112.149L151.553 105.832Z" fill="black"/>
</g>
<path opacity="0.2" d="M107.136 82.974C107.136 82.974 122.66 96.5309 148.014 93.5933C148.014 93.5933 137.669 100.954 124.493 99.3814C124.493 99.3814 126.153 106.675 136.411 110.623C136.411 110.623 107.296 110.195 102.197 86.2863L107.136 82.974Z" fill="black"/>
<path d="M106.486 81.5755C106.486 81.5755 122.01 94.4632 147.364 91.5257C147.364 91.5257 136.604 98.5718 123.429 96.9792C123.429 96.9792 125.316 101.784 136.41 107.639C136.41 107.639 108.701 107.886 101.541 84.8878L106.486 81.5755Z" fill="#4E626C"/>
<path opacity="0.25" d="M106.486 81.5755C106.486 81.5755 122.01 94.4632 147.364 91.5257C147.364 91.5257 136.604 98.5718 123.429 96.9792C123.429 96.9792 125.316 101.784 136.41 107.639C136.41 107.639 108.701 107.886 101.541 84.8878L106.486 81.5755Z" fill="white"/>
<path opacity="0.1" d="M105.395 88.0729C110.856 89.5249 116.269 87.1695 116.269 87.1695L115.252 86.7212L115.098 86.6476L114.195 86.226L113.994 86.1257L113.171 85.7175L112.963 85.6171L112.214 85.2223L112.006 85.1086L111.337 84.7339C111.275 84.6942 111.21 84.6585 111.143 84.6268L110.514 84.2588L110.34 84.1584L109.765 83.8104L109.604 83.7101L109.089 83.3956L108.942 83.2952L108.493 83.0008L108.36 82.9138L107.971 82.6528L107.851 82.5725L107.53 82.345L107.423 82.2714L107.162 82.0773L107.075 82.0104L106.874 81.8699L106.787 81.7963L106.673 81.7093L106.593 81.6424H106.546L106.506 81.6089L104.887 82.693L101.541 84.9145C108.701 107.92 136.403 107.665 136.41 107.665C122.151 106.976 107.175 96.1562 105.395 88.0729Z" fill="black"/>
<path d="M140.907 64.713C140.907 64.713 137.823 61.113 128.367 62.7391C122.66 63.7227 112.977 70.374 108.186 81.4751C107.577 82.8803 106.219 83.3487 105.509 84.2922C105.342 84.5041 105.158 84.7031 104.961 84.8878H101.97C101.97 74.5428 107.771 64.0974 113.265 58.055C118.759 52.0127 127.792 49.055 134.243 48.8075C136.529 48.7045 138.808 49.1424 140.894 50.0855C142.634 54.997 143.356 59.8484 140.907 64.713Z" fill="#4E626C"/>
<path opacity="0.5" d="M140.907 64.713C140.907 64.713 137.823 61.113 128.367 62.7391C122.66 63.7227 112.977 70.374 108.186 81.4751C107.577 82.8803 106.219 83.3487 105.509 84.2922C105.342 84.5041 105.158 84.7031 104.961 84.8878H101.97C101.97 74.5428 107.771 64.0974 113.265 58.055C118.759 52.0127 127.792 49.055 134.243 48.8075C136.529 48.7045 138.808 49.1424 140.894 50.0855C142.634 54.997 143.356 59.8484 140.907 64.713Z" fill="white"/>
<path opacity="0.3" d="M108.848 80.0565C108.848 80.0565 103.461 78.2364 105.683 69.6111C103.36 74.3764 102.095 79.5878 101.976 84.8877H104.967C105.164 84.7031 105.347 84.504 105.515 84.2922C106.245 83.3487 107.603 82.8803 108.192 81.4751C108.386 80.9665 108.614 80.5182 108.848 80.0565Z" fill="#4E626C"/>
<path opacity="0.1" d="M108.848 80.0565C108.848 80.0565 103.461 78.2364 105.683 69.6111C103.36 74.3764 102.095 79.5878 101.976 84.8877H104.967C105.164 84.7031 105.347 84.504 105.515 84.2922C106.245 83.3487 107.603 82.8803 108.192 81.4751C108.386 80.9665 108.614 80.5182 108.848 80.0565Z" fill="black"/>
<path opacity="0.3" d="M140.907 64.713C140.907 64.713 141.382 53.3376 134.216 48.8075C136.503 48.7045 138.781 49.1424 140.867 50.0855C142.634 54.997 143.356 59.8483 140.907 64.713Z" fill="#4E626C"/>
<path opacity="0.1" d="M140.907 64.713C140.907 64.713 141.382 53.3376 134.216 48.8075C136.503 48.7045 138.781 49.1424 140.867 50.0855C142.634 54.997 143.356 59.8483 140.907 64.713Z" fill="black"/>
<path d="M135.386 71.3443C137.654 69.5258 139.532 67.2681 140.906 64.7064C143.362 59.8417 142.633 54.9904 140.906 50.0789C146.454 52.5346 149.766 59.7413 151.031 65.5495C151.7 68.8015 151.78 71.6387 151.231 72.9435C149.679 76.6038 140.565 91.3986 101.567 84.8811L101.614 80.7859C111.344 80.1971 128.4 77.2261 135.386 71.3443Z" fill="#4E626C"/>
<path opacity="0.4" d="M135.386 71.3443C137.654 69.5258 139.532 67.2681 140.906 64.7064C143.362 59.8417 142.633 54.9904 140.906 50.0789C146.454 52.5346 149.766 59.7413 151.031 65.5495C151.7 68.8015 151.78 71.6387 151.231 72.9435C149.679 76.6038 140.565 91.3986 101.567 84.8811L101.614 80.7859C111.344 80.1971 128.4 77.2261 135.386 71.3443Z" fill="white"/>
<path opacity="0.2" d="M97.5597 82.974C97.5597 82.974 82.0355 96.5309 56.6816 93.5933C56.6816 93.5933 67.0266 100.954 80.2021 99.3814C80.2021 99.3814 78.5426 106.675 68.2846 110.623C68.2846 110.623 97.3991 110.195 102.498 86.2863L97.5597 82.974Z" fill="black"/>
<path d="M98.209 81.5755C98.209 81.5755 82.6848 94.4632 57.3242 91.5257C57.3242 91.5257 68.0841 98.5718 81.2595 96.9792C81.2595 96.9792 79.3725 101.784 68.2781 107.639C68.2781 107.639 95.9874 107.886 103.147 84.8878L98.209 81.5755Z" fill="#4E626C"/>
<path opacity="0.25" d="M98.209 81.5755C98.209 81.5755 82.6848 94.4632 57.3242 91.5257C57.3242 91.5257 68.0841 98.5718 81.2595 96.9792C81.2595 96.9792 79.3725 101.784 68.2781 107.639C68.2781 107.639 95.9874 107.886 103.147 84.8878L98.209 81.5755Z" fill="white"/>
<path opacity="0.1" d="M99.3057 88.0729C93.8388 89.5249 88.4254 87.1695 88.4254 87.1695L89.4425 86.7212L89.5964 86.6476L90.4998 86.226L90.7005 86.1257L91.5236 85.7175L91.731 85.6171L92.4872 85.2223L92.6879 85.1086L93.357 84.7339L93.5511 84.6268L94.1801 84.2588L94.3541 84.1584L94.9295 83.8104L95.0901 83.7101L95.6054 83.3956L95.7526 83.2952L96.2009 83.0008L96.3347 82.9138L96.7228 82.6528L96.8433 82.5725L97.1712 82.345L97.2715 82.2714L97.5325 82.0773L97.6195 82.0104L97.8202 81.8699L97.9072 81.7963L98.021 81.7093L98.1013 81.6424H98.1481L98.1883 81.6089L99.8076 82.693L103.153 84.9145C95.9935 107.92 68.2909 107.665 68.2842 107.665C82.5437 106.976 97.5191 96.1562 99.3057 88.0729Z" fill="black"/>
<path d="M63.7949 64.713C63.7949 64.713 66.873 61.113 76.328 62.7391C82.0358 63.7227 91.7183 70.374 96.5161 81.4751C97.1184 82.8803 98.4767 83.3487 99.1927 84.2922C99.3606 84.5041 99.544 84.7031 99.7414 84.8878H102.732C102.732 74.5428 96.931 64.0974 91.4373 58.055C85.9436 52.0127 76.9102 49.055 70.4596 48.8075C68.1729 48.7045 65.894 49.1424 63.8083 50.0855C62.0618 54.997 61.3392 59.8484 63.7949 64.713Z" fill="#4E626C"/>
<path opacity="0.5" d="M63.7949 64.713C63.7949 64.713 66.873 61.113 76.328 62.7391C82.0358 63.7227 91.7183 70.374 96.5161 81.4751C97.1184 82.8803 98.4767 83.3487 99.1927 84.2922C99.3606 84.5041 99.544 84.7031 99.7414 84.8878H102.732C102.732 74.5428 96.931 64.0974 91.4373 58.055C85.9436 52.0127 76.9102 49.055 70.4596 48.8075C68.1729 48.7045 65.894 49.1424 63.8083 50.0855C62.0618 54.997 61.3392 59.8484 63.7949 64.713Z" fill="white"/>
<path opacity="0.3" d="M95.8604 80.0565C95.8604 80.0565 101.214 78.2364 99.0254 69.6111C101.348 74.3764 102.613 79.5878 102.732 84.8877H99.7414C99.544 84.7031 99.3606 84.504 99.1927 84.2922C98.4633 83.3487 97.105 82.8803 96.5161 81.4751C96.3087 80.9665 96.0812 80.5182 95.8604 80.0565Z" fill="#4E626C"/>
<path opacity="0.1" d="M95.8604 80.0565C95.8604 80.0565 101.214 78.2364 99.0254 69.6111C101.348 74.3764 102.613 79.5878 102.732 84.8877H99.7414C99.544 84.7031 99.3606 84.504 99.1927 84.2922C98.4633 83.3487 97.105 82.8803 96.5161 81.4751C96.3087 80.9665 96.0812 80.5182 95.8604 80.0565Z" fill="black"/>
<path opacity="0.3" d="M63.7943 64.713C63.7943 64.713 63.3125 53.3376 70.4858 48.8075C68.199 48.7045 65.9202 49.1424 63.8345 50.0855C62.0612 54.997 61.3386 59.8483 63.7943 64.713Z" fill="#4E626C"/>
<path opacity="0.1" d="M63.7943 64.713C63.7943 64.713 63.3125 53.3376 70.4858 48.8075C68.199 48.7045 65.9202 49.1424 63.8345 50.0855C62.0612 54.997 61.3386 59.8483 63.7943 64.713Z" fill="black"/>
<path d="M69.3084 71.3443C67.0401 69.5258 65.1625 67.2681 63.7879 64.7064C61.3322 59.8417 62.0615 54.9904 63.7879 50.0789C58.234 52.5346 54.9217 59.7413 53.6637 65.5495C52.9946 68.8015 52.9076 71.6387 53.4563 72.9435C55.0087 76.6038 64.1225 91.3986 103.12 84.8811L103.08 80.7859C93.3507 80.1971 76.2942 77.2261 69.3084 71.3443Z" fill="#4E626C"/>
<path opacity="0.4" d="M69.3084 71.3443C67.0401 69.5258 65.1625 67.2681 63.7879 64.7064C61.3322 59.8417 62.0615 54.9904 63.7879 50.0789C58.234 52.5346 54.9217 59.7413 53.6637 65.5495C52.9946 68.8015 52.9076 71.6387 53.4563 72.9435C55.0087 76.6038 64.1225 91.3986 103.12 84.8811L103.08 80.7859C93.3507 80.1971 76.2942 77.2261 69.3084 71.3443Z" fill="white"/>
<path d="M107.684 82.1844C107.642 81.7897 107.496 81.4132 107.261 81.0935C107.026 80.7737 106.71 80.5221 106.345 80.3643C105.058 79.9088 103.694 79.7109 102.331 79.7822C100.921 79.7135 99.5118 79.9415 98.1953 80.4513C97.8603 80.6163 97.5727 80.8637 97.3597 81.1704C97.1466 81.4771 97.0151 81.833 96.9775 82.2045C96.8369 83.4357 96.75 85.5101 97.5596 86.6811C98.8888 87.823 100.592 88.4353 102.344 88.4008C104.089 88.4394 105.785 87.8263 107.102 86.6811C107.905 85.4833 107.824 83.4156 107.684 82.1844Z" fill="#4E626C"/>
<path opacity="0.5" d="M107.684 82.1844C107.642 81.7897 107.496 81.4132 107.261 81.0935C107.026 80.7737 106.71 80.5221 106.345 80.3643C105.058 79.9088 103.694 79.7109 102.331 79.7822C100.921 79.7135 99.5118 79.9415 98.1953 80.4513C97.8603 80.6163 97.5727 80.8637 97.3597 81.1704C97.1466 81.4771 97.0151 81.833 96.9775 82.2045C96.8369 83.4357 96.75 85.5101 97.5596 86.6811C98.8888 87.823 100.592 88.4353 102.344 88.4008C104.089 88.4394 105.785 87.8263 107.102 86.6811C107.905 85.4833 107.824 83.4156 107.684 82.1844Z" fill="white"/>
<path opacity="0.3" d="M107.764 84.1182C107.764 84.6 107.229 85.3695 106.185 86.1257C105.305 86.6342 104.322 86.9358 103.309 87.0077C102.295 87.0796 101.279 86.9198 100.336 86.5405C99.4743 86.2884 98.699 85.8023 98.0965 85.136C97.4941 84.4698 97.0882 83.6496 96.9238 82.7665C96.8302 83.9978 96.8636 85.6639 97.5595 86.6743C98.8887 87.8163 100.592 88.4285 102.344 88.3941C104.089 88.4327 105.785 87.8196 107.102 86.6743C107.548 85.8975 107.777 85.0144 107.764 84.1182Z" fill="#4E626C"/>
<path opacity="0.1" d="M107.764 84.1182C107.764 84.6 107.229 85.3695 106.185 86.1257C105.305 86.6342 104.322 86.9358 103.309 87.0077C102.295 87.0796 101.279 86.9198 100.336 86.5405C99.4743 86.2884 98.699 85.8023 98.0965 85.136C97.4941 84.4698 97.0882 83.6496 96.9238 82.7665C96.8302 83.9978 96.8636 85.6639 97.5595 86.6743C98.8887 87.8163 100.592 88.4285 102.344 88.3941C104.089 88.4327 105.785 87.8196 107.102 86.6743C107.548 85.8975 107.777 85.0144 107.764 84.1182Z" fill="black"/>
<path d="M246.156 157.497L251.188 154.573C251.356 154.45 251.554 154.375 251.761 154.355C251.969 154.335 252.177 154.371 252.366 154.459C252.66 154.633 253.256 154.994 253.55 155.128C253.722 155.247 253.858 155.409 253.945 155.599C254.032 155.788 254.067 155.998 254.045 156.205V168.29C254.014 168.864 253.848 169.423 253.559 169.921C253.271 170.419 252.869 170.841 252.386 171.154L247.361 174.112C247.193 174.233 246.997 174.308 246.791 174.33C246.586 174.351 246.378 174.317 246.19 174.232C245.888 174.058 245.293 173.69 244.992 173.523C244.822 173.403 244.687 173.24 244.602 173.05C244.516 172.861 244.482 172.652 244.503 172.445V160.361C244.534 159.787 244.699 159.228 244.987 158.731C245.274 158.233 245.675 157.81 246.156 157.497Z" fill="#FAFAFA"/>
<path d="M244.497 160.361V172.445C244.475 172.652 244.508 172.861 244.594 173.051C244.68 173.24 244.815 173.403 244.985 173.523C245.28 173.683 245.728 173.971 246.15 174.192C245.993 174.068 245.871 173.907 245.792 173.723C245.714 173.54 245.683 173.34 245.701 173.141V161.07C245.72 160.496 245.886 159.936 246.183 159.444L244.985 158.735C244.685 159.226 244.517 159.786 244.497 160.361Z" fill="#E0E0E0"/>
<path d="M252.386 171.187L247.361 174.112C246.444 174.64 245.708 174.212 245.708 173.161V161.07C245.739 160.496 245.905 159.938 246.192 159.44C246.479 158.943 246.88 158.52 247.361 158.206L252.393 155.282C253.309 154.753 254.052 155.181 254.052 156.239V168.323C254.02 168.898 253.853 169.458 253.563 169.956C253.274 170.453 252.87 170.875 252.386 171.187Z" fill="#F0F0F0"/>
<path d="M245.862 181.231C245.788 181.23 245.716 181.209 245.653 181.172C245.59 181.134 245.537 181.081 245.5 181.017C245.473 180.97 245.455 180.917 245.448 180.863C245.441 180.809 245.444 180.754 245.459 180.701C245.473 180.648 245.498 180.598 245.531 180.555C245.565 180.512 245.607 180.475 245.654 180.448L249.161 178.441C249.224 178.404 249.276 178.352 249.313 178.288C249.349 178.225 249.368 178.153 249.368 178.08V164.824C249.36 164.764 249.366 164.704 249.383 164.647C249.401 164.59 249.43 164.537 249.47 164.492C249.509 164.447 249.558 164.411 249.613 164.387C249.667 164.362 249.726 164.349 249.786 164.349C249.846 164.349 249.905 164.362 249.96 164.387C250.014 164.411 250.063 164.447 250.102 164.492C250.142 164.537 250.172 164.59 250.189 164.647C250.207 164.704 250.212 164.764 250.204 164.824V178.06C250.204 178.28 250.146 178.497 250.035 178.689C249.925 178.88 249.766 179.039 249.575 179.15L246.069 181.158C246.008 181.201 245.936 181.227 245.862 181.231Z" fill="#263238"/>
<path d="M141.529 249.752L155.748 243.181C155.748 243.181 154.637 229.798 145.249 233.003C135.861 236.208 141.529 249.752 141.529 249.752Z" fill="#4E626C"/>
<g opacity="0.5">
<path d="M141.529 249.752L155.748 243.181C155.748 243.181 154.637 229.798 145.249 233.003C135.861 236.208 141.529 249.752 141.529 249.752Z" fill="black"/>
</g>
<path d="M149.351 248.079L146.319 242.003L153.6 237.787C155.922 236.449 159 236.61 162.386 238.564C169.579 242.719 175.407 253.425 175.407 262.485C175.407 267.223 173.808 270.575 171.252 272.094L171.145 272.155L163.684 276.464L160.452 270.054C154.302 265.383 149.585 256.162 149.351 248.079Z" fill="#263238"/>
<path d="M141.756 251.819C141.756 259.628 146.092 268.668 151.9 273.667C152.789 274.436 153.745 275.123 154.757 275.721C161.951 279.87 167.786 275.895 167.779 266.835C167.779 259.996 164.433 252.201 159.749 247.015L159.709 246.975C158.286 245.378 156.625 244.01 154.784 242.92C147.584 238.791 141.756 242.766 141.756 251.819Z" fill="#37474F"/>
<path d="M154.778 248.407C150.201 245.73 146.494 248.514 146.494 254.556C146.494 260.599 150.201 267.631 154.778 270.274C159.355 272.917 163.062 270.161 163.062 264.125C163.062 258.089 159.355 251.05 154.778 248.407Z" fill="#455A64"/>
<path d="M154.777 253.666C152.402 252.328 150.481 253.72 150.481 256.858C150.481 259.996 152.402 263.643 154.777 265.015C157.153 266.387 159.08 264.955 159.08 261.823C159.08 258.691 157.153 255.038 154.777 253.666Z" fill="#E0E0E0"/>
<path d="M153.406 253.606C153.111 253.435 152.793 253.307 152.463 253.224C151.271 253.546 150.455 254.851 150.455 256.858C150.531 259.224 151.377 261.5 152.864 263.342C153.029 263.467 153.201 263.583 153.379 263.69C155.494 264.908 157.2 263.643 157.2 260.853C157.2 258.062 155.521 254.824 153.406 253.606Z" fill="#F5F5F5"/>
<path d="M141.756 251.819C141.756 259.628 146.092 268.668 151.9 273.667C147.871 269.104 145.034 263.614 143.643 257.688C142.539 252.468 142.974 244.974 147.437 243.08C151.9 241.187 157.835 245.175 159.702 246.995C158.279 245.398 156.618 244.03 154.777 242.94C147.584 238.791 141.756 242.766 141.756 251.819Z" fill="#455A64"/>
<path d="M192.036 278.893L179.155 271.452L177.462 270.475L174.217 268.588L172.678 267.691C172.733 267.546 172.755 267.391 172.745 267.236C172.798 267.002 172.818 266.761 172.805 266.52C172.805 256.557 165.812 244.439 157.14 239.46C156.326 238.988 155.479 238.576 154.604 238.229C154.223 238.082 153.861 237.955 153.5 237.848C146.648 235.773 141.543 239.935 141.543 248.46V249.752L120.13 237.379V139.771L146.742 155.161L169.974 172.271L180.507 223.494L188.677 235.499L189.112 236.135L194.104 243.455L195.723 263.375L196.125 267.732L196.299 269.525L196.7 273.834L196.888 275.842C196.938 276.431 196.824 277.023 196.56 277.553C196.296 278.083 195.892 278.529 195.391 278.844C194.89 279.16 194.312 279.331 193.72 279.339C193.129 279.348 192.546 279.193 192.036 278.893Z" fill="#4E626C"/>
<g opacity="0.15">
<path d="M192.036 278.893L179.155 271.452L177.462 270.475L174.217 268.588L172.678 267.691C172.733 267.546 172.755 267.391 172.745 267.236C172.798 267.002 172.818 266.761 172.805 266.52C172.805 256.557 165.812 244.439 157.14 239.46C156.326 238.988 155.479 238.576 154.604 238.229C154.223 238.082 153.861 237.955 153.5 237.848C146.648 235.773 141.543 239.935 141.543 248.46V249.752L120.13 237.379V139.771L146.742 155.161L169.974 172.271L180.507 223.494L188.677 235.499L189.112 236.135L194.104 243.455L195.723 263.375L196.125 267.732L196.299 269.525L196.7 273.834L196.888 275.842C196.938 276.431 196.824 277.023 196.56 277.553C196.296 278.083 195.892 278.529 195.391 278.844C194.89 279.16 194.312 279.331 193.72 279.339C193.129 279.348 192.546 279.193 192.036 278.893Z" fill="black"/>
</g>
<path d="M157.16 173.85V205.427C157.16 206.592 156.35 207.06 155.346 206.478L129.156 191.375C128.626 191.031 128.185 190.565 127.868 190.018C127.552 189.47 127.37 188.855 127.336 188.224V154.987C127.336 153.83 128.146 153.361 129.156 153.937L144.901 163.03C145.905 163.613 147.477 164.636 148.407 165.326L155.467 170.511C155.965 170.92 156.373 171.428 156.665 172.003C156.956 172.578 157.125 173.207 157.16 173.85Z" fill="#455A64"/>
<path d="M165.578 212.36C164.696 211.786 163.961 211.011 163.435 210.1C162.908 209.188 162.604 208.165 162.547 207.114V179.19C162.547 177.257 163.263 176.226 164.146 176.889L165.745 178.086C166.936 179.081 167.779 180.428 168.154 181.934L174.605 215.458C174.866 216.796 174.13 217.298 172.972 216.622L165.578 212.36Z" fill="#455A64"/>
<g opacity="0.15">
<path d="M158.491 169.006L147.912 161.297C147.123 160.722 145.791 159.852 144.948 159.37L126.178 148.55C125.974 148.405 125.734 148.318 125.484 148.3C125.234 148.281 124.984 148.33 124.76 148.443C124.551 148.582 124.383 148.775 124.273 149.001C124.164 149.227 124.117 149.478 124.138 149.728V234.87C124.165 235.458 124.333 236.031 124.628 236.541C124.922 237.051 125.335 237.483 125.83 237.801L138.149 244.907C138.406 245.069 138.703 245.156 139.006 245.161C139.191 245.164 139.374 245.125 139.541 245.048C139.768 244.942 139.96 244.775 140.097 244.566C140.246 244.339 140.347 244.084 140.391 243.816C140.833 241.568 142.198 237.54 146.413 235.847C148.624 235.035 151.038 234.965 153.292 235.646C154.479 235.96 155.631 236.393 156.732 236.938C157.213 237.172 157.655 237.406 158.07 237.607C158.273 237.753 158.511 237.843 158.761 237.867C159.01 237.89 159.262 237.847 159.488 237.741C159.627 237.655 159.744 237.538 159.83 237.399C159.996 237.126 160.077 236.809 160.064 236.489V172.071C160.034 171.478 159.878 170.898 159.607 170.369C159.336 169.841 158.956 169.376 158.491 169.006ZM158.993 237.178C158.828 237.199 158.661 237.163 158.518 237.078L158.404 237.025C156.621 235.978 154.683 235.22 152.663 234.776C150.502 234.268 148.238 234.413 146.159 235.191C142.104 236.824 140.518 240.424 139.903 242.873C139.822 243.161 139.762 243.415 139.715 243.669C139.701 243.819 139.652 243.963 139.572 244.089C139.492 244.216 139.383 244.322 139.253 244.398C139.129 244.442 138.995 244.454 138.865 244.434C138.734 244.414 138.61 244.363 138.504 244.285L126.178 237.185C125.791 236.928 125.468 236.585 125.236 236.182C125.004 235.779 124.868 235.327 124.84 234.863V149.714C124.827 149.59 124.844 149.463 124.891 149.347C124.937 149.23 125.012 149.127 125.108 149.045C125.178 149.008 125.256 148.99 125.335 148.992C125.511 149.001 125.682 149.057 125.83 149.152L144.6 159.993C145.43 160.468 146.728 161.331 147.497 161.873L158.083 169.588C158.455 169.894 158.76 170.274 158.979 170.704C159.198 171.133 159.326 171.603 159.355 172.084V236.516C159.375 236.638 159.365 236.763 159.326 236.879C159.286 236.996 159.218 237.101 159.127 237.185C159.092 237.203 159.053 237.215 159.013 237.219L158.993 237.178Z" fill="black"/>
</g>
<path d="M264.216 234.783C264.216 234.783 254.507 248.206 233.328 260.879C215.75 271.385 196.592 273.841 196.592 273.841L194.09 243.448L261.714 204.397L264.216 234.783Z" fill="#4E626C"/>
<g opacity="0.3">
<path d="M264.216 234.783C264.216 234.783 254.507 248.206 233.328 260.879C215.75 271.385 196.592 273.841 196.592 273.841L194.09 243.448L261.714 204.397L264.216 234.783Z" fill="black"/>
</g>
<path d="M261.714 204.384C261.714 204.384 252.005 217.813 230.826 230.48C213.248 240.986 194.09 243.442 194.09 243.442L180.533 223.494L248.17 184.45L261.714 204.384Z" fill="#4E626C"/>
<path d="M265.427 230.306C265.307 230.179 265.2 230.199 265.073 230.413C265.073 230.413 255.363 243.836 234.178 256.51C216.58 266.989 197.435 269.465 197.435 269.465C189.218 270.214 179.154 261.535 179.154 261.535L180.539 260.525C180.539 260.525 190.081 267.752 194.933 267.752C199.115 267.752 214.064 265.851 234.345 254.369C254.627 242.886 263.788 229.001 263.788 229.001C264.15 229.059 264.492 229.209 264.779 229.438C265.066 229.667 265.29 229.966 265.427 230.306Z" fill="#37474F"/>
<path d="M265.066 230.413C265.066 230.413 255.35 243.836 234.171 256.51C216.6 267.016 197.435 269.471 197.435 269.471C189.218 270.221 179.154 261.555 179.154 261.555V273.145C179.154 273.145 189.191 281.844 197.435 281.068C197.435 281.068 216.6 278.605 234.171 268.106C255.35 255.446 265.066 242.01 265.066 242.01C266.765 239.139 266.043 228.694 265.066 230.413Z" fill="#455A64"/>
<path d="M203.043 249.517C206.068 248.801 208.805 250.856 209.153 254.088C209.308 255.675 208.895 257.266 207.987 258.577C207.079 259.889 205.735 260.835 204.194 261.248C203.486 261.425 202.747 261.443 202.031 261.299C201.315 261.155 200.64 260.853 200.055 260.415C199.471 259.977 198.991 259.414 198.651 258.768C198.312 258.121 198.12 257.407 198.092 256.677C197.804 253.439 200.019 250.26 203.043 249.517Z" fill="white"/>
<path d="M256.856 218.717C255.015 220.55 253.838 224.478 254.219 227.496C254.601 230.514 256.327 231.464 258.067 229.617C259.807 227.77 260.984 223.842 260.703 220.838C260.422 217.833 258.689 216.883 256.856 218.717Z" fill="white"/>
<path d="M214.325 245.576C220.173 243.735 225.787 241.22 231.054 238.082C231.89 237.593 232.559 237.975 232.559 238.938V240.163C232.535 240.691 232.386 241.206 232.124 241.665C231.862 242.125 231.496 242.516 231.054 242.806C225.787 245.944 220.173 248.459 214.325 250.3C214.128 250.374 213.915 250.397 213.707 250.367C213.498 250.337 213.301 250.254 213.133 250.128C212.965 250.001 212.831 249.834 212.745 249.642C212.658 249.45 212.622 249.239 212.639 249.029V247.804C212.66 247.306 212.833 246.825 213.134 246.427C213.435 246.029 213.851 245.732 214.325 245.576Z" fill="#37474F"/>
<path d="M250.706 225.676V226.9C250.649 227.998 250.169 229.032 249.368 229.784C245.366 233.135 241.182 236.263 236.835 239.152C236.032 239.681 235.369 239.32 235.369 238.356V237.145C235.405 236.619 235.554 236.108 235.807 235.645C236.06 235.183 236.411 234.782 236.835 234.468C241.18 231.577 245.364 228.45 249.368 225.1C250.13 224.438 250.706 224.712 250.706 225.676Z" fill="#37474F"/>
<path d="M214.325 254.128C220.172 252.289 225.786 249.776 231.054 246.64C231.89 246.152 232.559 246.526 232.559 247.497V248.721C232.532 249.249 232.381 249.762 232.12 250.221C231.858 250.68 231.493 251.072 231.054 251.364C225.785 254.497 220.171 257.01 214.325 258.852C214.128 258.928 213.914 258.952 213.705 258.923C213.496 258.893 213.298 258.811 213.129 258.684C212.96 258.557 212.827 258.389 212.741 258.196C212.655 258.003 212.62 257.791 212.639 257.581V256.356C212.663 255.858 212.836 255.379 213.137 254.981C213.438 254.584 213.852 254.286 214.325 254.128Z" fill="#37474F"/>
<path d="M250.706 234.261V235.485C250.647 236.581 250.167 237.612 249.368 238.363C245.366 241.714 241.182 244.841 236.835 247.731C236.032 248.266 235.369 247.905 235.369 246.935V245.71C235.405 245.184 235.554 244.673 235.807 244.21C236.06 243.748 236.411 243.347 236.835 243.033C241.177 240.138 245.361 237.011 249.368 233.665C250.13 233.016 250.706 233.291 250.706 234.261Z" fill="#37474F"/>
<g opacity="0.15">
<path d="M216.841 211.155C207.847 216.018 198.533 220.265 188.965 223.869C188.764 223.934 188.581 224.046 188.431 224.196C188.282 224.345 188.17 224.528 188.104 224.729C188.039 224.93 188.022 225.144 188.056 225.352C188.089 225.561 188.171 225.759 188.296 225.93L188.342 225.997C188.644 226.41 189.053 226.733 189.525 226.93C189.996 227.127 190.513 227.191 191.019 227.114C195.128 226.218 206.235 223.327 220.04 215.906C220.237 215.804 220.411 215.66 220.548 215.485C220.685 215.31 220.783 215.107 220.835 214.891C220.887 214.674 220.892 214.449 220.85 214.231C220.807 214.012 220.718 213.806 220.588 213.625L219.337 211.764C219.065 211.378 218.662 211.104 218.203 210.992C217.745 210.88 217.261 210.938 216.841 211.155Z" fill="black"/>
</g>
<g opacity="0.15">
<path d="M245.721 191.135C238.538 197.321 230.842 202.886 222.716 207.77C222.521 207.883 222.352 208.035 222.219 208.217C222.085 208.399 221.992 208.607 221.943 208.827C221.895 209.047 221.893 209.275 221.937 209.496C221.981 209.718 222.071 209.927 222.201 210.112L223.466 211.985C223.736 212.372 224.141 212.644 224.602 212.747C225.063 212.85 225.546 212.776 225.955 212.541C238.468 204.999 245.159 198.361 248.224 194.748C248.529 194.348 248.704 193.865 248.727 193.363C248.75 192.86 248.619 192.363 248.351 191.938L248.01 191.429C247.893 191.242 247.736 191.083 247.55 190.964C247.364 190.845 247.154 190.769 246.935 190.74C246.716 190.712 246.494 190.733 246.284 190.801C246.074 190.869 245.882 190.983 245.721 191.135Z" fill="black"/>
</g>
<path d="M248.171 184.416C248.171 184.416 236.996 195.651 218.581 206.371C200.166 217.091 180.54 223.454 180.54 223.454L169.968 172.218L212.231 147.827L231.67 136.613L237.598 133.173L248.171 184.416Z" fill="#455A64"/>
<path d="M237.598 133.16L231.67 136.593L212.231 147.828L169.968 172.218L180.54 223.454L181.263 223.213L181.41 223.167L182.146 222.912L182.454 222.825H182.521H182.588L183.09 222.645L183.873 222.37L184.649 222.089L185.157 221.902L185.827 221.654L188.088 220.798L188.597 220.604C190.41 219.901 192.464 219.085 194.693 218.155L196.887 217.225L197.242 217.071L197.644 216.903C198.105 216.689 198.587 216.488 199.069 216.274L199.484 216.094L200.447 215.659L201.551 215.164C202.354 214.802 203.171 214.421 203.994 214.033C204.817 213.645 205.647 213.25 206.483 212.848C207.112 212.541 207.741 212.233 208.37 211.912L209.896 211.149L210.056 211.068L211.615 210.259L211.742 210.192L213.114 209.469L214.212 208.88C215.104 208.403 215.971 207.921 216.815 207.435L218.548 206.445L220.127 205.428C220.575 205.167 221.017 204.892 221.465 204.625C221.632 204.524 221.806 204.424 221.967 204.317C222.469 204.016 222.977 203.701 223.466 203.393L223.647 203.28L224.363 202.825C224.677 202.624 224.978 202.423 225.293 202.229L226.183 201.64L227.066 201.065C227.434 200.824 227.802 200.583 228.157 200.335C228.886 199.84 229.595 199.358 230.291 198.87L230.432 198.77L231.235 198.214C232.292 197.465 233.309 196.729 234.273 196.019L234.995 195.477L235.664 194.955L236.334 194.433C236.789 194.092 237.224 193.764 237.672 193.423L237.725 193.383L238.267 192.961L239.505 191.971L240.288 191.349C240.449 191.215 240.603 191.081 240.757 190.961C240.911 190.84 241.064 190.7 241.212 190.586L241.66 190.218C241.659 190.207 241.659 190.196 241.66 190.184L242.677 189.368C243.928 188.311 244.979 187.361 245.809 186.625C245.913 186.517 246.025 186.416 246.143 186.323L246.21 186.257L246.558 185.935C247.542 185.032 248.077 184.497 248.151 184.423L237.598 133.16ZM214.814 204.758C214.817 204.772 214.817 204.785 214.814 204.799C214.8 204.902 214.78 205.005 214.754 205.106V205.193C214.72 205.274 214.693 205.361 214.66 205.441C214.647 205.478 214.632 205.514 214.613 205.548C214.578 205.648 214.533 205.744 214.479 205.836C214.301 206.159 214.06 206.443 213.77 206.672C213.675 206.748 213.572 206.813 213.462 206.866C210.973 208.204 208.484 209.503 206.055 210.687L204.777 211.316C203.755 211.802 202.745 212.275 201.745 212.735L200.354 213.404L197.971 214.461C197.577 214.642 197.189 214.809 196.807 214.97L195.676 215.458C194.177 216.127 192.745 216.689 191.394 217.238C190.678 217.532 189.975 217.807 189.306 218.074L188.322 218.456C186.71 219.078 185.291 219.613 184.093 220.048C183.707 220.206 183.276 220.218 182.88 220.085C182.485 219.951 182.151 219.679 181.939 219.319C181.837 219.13 181.762 218.927 181.718 218.717L175.214 186.317C175.12 185.725 175.2 185.119 175.445 184.573C175.69 184.026 176.089 183.563 176.592 183.239L204.027 167.4C204.234 167.259 204.472 167.173 204.721 167.149C204.97 167.126 205.221 167.166 205.45 167.265C205.679 167.365 205.879 167.521 206.032 167.719C206.185 167.917 206.284 168.15 206.322 168.397L212.82 195.524L214.787 203.741L214.821 203.875V203.975C214.827 204.013 214.827 204.052 214.821 204.089C214.824 204.127 214.824 204.165 214.821 204.203C214.827 204.283 214.827 204.364 214.821 204.444C214.827 204.549 214.825 204.654 214.814 204.758ZM238.983 189.716L238.502 190.124C236.902 191.416 235.082 192.801 233.082 194.32C232.412 194.828 231.696 195.337 230.967 195.859L230.184 196.428C229.12 197.19 228.016 197.953 226.838 198.736L225.701 199.499C225.319 199.76 224.925 200.014 224.53 200.268C224.135 200.523 223.734 200.797 223.332 201.051C221.893 201.981 220.401 202.912 218.862 203.828C218.66 203.972 218.424 204.061 218.177 204.087C217.931 204.113 217.681 204.076 217.453 203.977C217.225 203.879 217.027 203.724 216.876 203.527C216.726 203.33 216.628 203.097 216.594 202.851L216.547 202.651L214.573 194.46L208.136 167.4C208.023 166.811 208.09 166.201 208.329 165.651C208.568 165.101 208.967 164.635 209.474 164.315L214.673 161.324L235.838 149.079L236.782 148.543L236.862 148.503C237.064 148.379 237.294 148.307 237.531 148.296C237.768 148.284 238.004 148.333 238.217 148.437C238.43 148.541 238.613 148.698 238.75 148.892C238.886 149.086 238.971 149.311 238.997 149.547L245.467 181.666C245.615 182.654 245.394 183.662 244.845 184.497C244.771 184.61 244.691 184.724 244.611 184.825C244.531 184.916 244.446 185.004 244.357 185.086L244.015 185.393C243.861 185.541 243.701 185.681 243.54 185.822L242.095 187.08C241.58 187.528 241.011 188.01 240.409 188.512L239.144 189.555L238.99 189.676L238.983 189.716Z" fill="#4E626C"/>
<g opacity="0.3">
<path d="M237.598 133.16L231.67 136.593L212.231 147.828L169.968 172.218L180.54 223.454L181.263 223.213L181.41 223.167L182.146 222.912L182.454 222.825H182.521H182.588L183.09 222.645L183.873 222.37L184.649 222.089L185.157 221.902L185.827 221.654L188.088 220.798L188.597 220.604C190.41 219.901 192.464 219.085 194.693 218.155L196.887 217.225L197.242 217.071L197.644 216.903C198.105 216.689 198.587 216.488 199.069 216.274L199.484 216.094L200.447 215.659L201.551 215.164C202.354 214.802 203.171 214.421 203.994 214.033C204.817 213.645 205.647 213.25 206.483 212.848C207.112 212.541 207.741 212.233 208.37 211.912L209.896 211.149L210.056 211.068L211.615 210.259L211.742 210.192L213.114 209.469L214.212 208.88C215.104 208.403 215.971 207.921 216.815 207.435L218.548 206.445L220.127 205.428C220.575 205.167 221.017 204.892 221.465 204.625C221.632 204.524 221.806 204.424 221.967 204.317C222.469 204.016 222.977 203.701 223.466 203.393L223.647 203.28L224.363 202.825C224.677 202.624 224.978 202.423 225.293 202.229L226.183 201.64L227.066 201.065C227.434 200.824 227.802 200.583 228.157 200.335C228.886 199.84 229.595 199.358 230.291 198.87L230.432 198.77L231.235 198.214C232.292 197.465 233.309 196.729 234.273 196.019L234.995 195.477L235.664 194.955L236.334 194.433C236.789 194.092 237.224 193.764 237.672 193.423L237.725 193.383L238.267 192.961L239.505 191.971L240.288 191.349C240.449 191.215 240.603 191.081 240.757 190.961C240.911 190.84 241.064 190.7 241.212 190.586L241.66 190.218C241.659 190.207 241.659 190.196 241.66 190.184L242.677 189.368C243.928 188.311 244.979 187.361 245.809 186.625C245.913 186.517 246.025 186.416 246.143 186.323L246.21 186.257L246.558 185.935C247.542 185.032 248.077 184.497 248.151 184.423L237.598 133.16ZM214.814 204.758C214.817 204.772 214.817 204.785 214.814 204.799C214.8 204.902 214.78 205.005 214.754 205.106V205.193C214.72 205.274 214.693 205.361 214.66 205.441C214.647 205.478 214.632 205.514 214.613 205.548C214.578 205.648 214.533 205.744 214.479 205.836C214.301 206.159 214.06 206.443 213.77 206.672C213.675 206.748 213.572 206.813 213.462 206.866C210.973 208.204 208.484 209.503 206.055 210.687L204.777 211.316C203.755 211.802 202.745 212.275 201.745 212.735L200.354 213.404L197.971 214.461C197.577 214.642 197.189 214.809 196.807 214.97L195.676 215.458C194.177 216.127 192.745 216.689 191.394 217.238C190.678 217.532 189.975 217.807 189.306 218.074L188.322 218.456C186.71 219.078 185.291 219.613 184.093 220.048C183.707 220.206 183.276 220.218 182.88 220.085C182.485 219.951 182.151 219.679 181.939 219.319C181.837 219.13 181.762 218.927 181.718 218.717L175.214 186.317C175.12 185.725 175.2 185.119 175.445 184.573C175.69 184.026 176.089 183.563 176.592 183.239L204.027 167.4C204.234 167.259 204.472 167.173 204.721 167.149C204.97 167.126 205.221 167.166 205.45 167.265C205.679 167.365 205.879 167.521 206.032 167.719C206.185 167.917 206.284 168.15 206.322 168.397L212.82 195.524L214.787 203.741L214.821 203.875V203.975C214.827 204.013 214.827 204.052 214.821 204.089C214.824 204.127 214.824 204.165 214.821 204.203C214.827 204.283 214.827 204.364 214.821 204.444C214.827 204.549 214.825 204.654 214.814 204.758ZM238.983 189.716L238.502 190.124C236.902 191.416 235.082 192.801 233.082 194.32C232.412 194.828 231.696 195.337 230.967 195.859L230.184 196.428C229.12 197.19 228.016 197.953 226.838 198.736L225.701 199.499C225.319 199.76 224.925 200.014 224.53 200.268C224.135 200.523 223.734 200.797 223.332 201.051C221.893 201.981 220.401 202.912 218.862 203.828C218.66 203.972 218.424 204.061 218.177 204.087C217.931 204.113 217.681 204.076 217.453 203.977C217.225 203.879 217.027 203.724 216.876 203.527C216.726 203.33 216.628 203.097 216.594 202.851L216.547 202.651L214.573 194.46L208.136 167.4C208.023 166.811 208.09 166.201 208.329 165.651C208.568 165.101 208.967 164.635 209.474 164.315L214.673 161.324L235.838 149.079L236.782 148.543L236.862 148.503C237.064 148.379 237.294 148.307 237.531 148.296C237.768 148.284 238.004 148.333 238.217 148.437C238.43 148.541 238.613 148.698 238.75 148.892C238.886 149.086 238.971 149.311 238.997 149.547L245.467 181.666C245.615 182.654 245.394 183.662 244.845 184.497C244.771 184.61 244.691 184.724 244.611 184.825C244.531 184.916 244.446 185.004 244.357 185.086L244.015 185.393C243.861 185.541 243.701 185.681 243.54 185.822L242.095 187.08C241.58 187.528 241.011 188.01 240.409 188.512L239.144 189.555L238.99 189.676L238.983 189.716Z" fill="black"/>
</g>
<path d="M175.568 180.509L236.587 145.265C236.981 145.013 237.293 144.653 237.485 144.228C237.678 143.803 237.742 143.331 237.671 142.869L236.561 137.362C236.541 137.172 236.472 136.99 236.361 136.835C236.249 136.68 236.098 136.557 235.924 136.479C235.75 136.4 235.558 136.369 235.368 136.387C235.178 136.406 234.996 136.475 234.841 136.586L173.828 171.83C173.433 172.081 173.12 172.442 172.927 172.869C172.735 173.296 172.671 173.769 172.744 174.232L173.848 179.732C173.868 179.922 173.937 180.104 174.048 180.259C174.16 180.414 174.311 180.537 174.485 180.616C174.659 180.694 174.851 180.726 175.041 180.707C175.231 180.688 175.413 180.62 175.568 180.509Z" fill="#455A64"/>
<path d="M214.773 203.848C214.891 204.428 214.825 205.03 214.586 205.571C214.346 206.111 213.944 206.564 213.435 206.866C203.97 211.947 194.153 216.343 184.06 220.022C183.817 220.119 183.555 220.161 183.294 220.144C183.033 220.127 182.779 220.051 182.55 219.923C182.322 219.794 182.126 219.616 181.976 219.402C181.826 219.187 181.726 218.942 181.684 218.683L181.256 216.549C187.184 212.239 201.584 201.955 212.639 195.571C212.682 195.542 212.727 195.515 212.773 195.491L214.773 203.848Z" fill="#37474F"/>
<path d="M244.872 184.517C244.731 184.743 244.56 184.948 244.363 185.126C236.467 192.152 227.932 198.424 218.869 203.862C218.666 204.005 218.43 204.095 218.184 204.121C217.937 204.147 217.688 204.109 217.46 204.011C217.232 203.913 217.033 203.758 216.883 203.56C216.732 203.363 216.635 203.13 216.6 202.885L214.593 194.474C223.205 189.724 232.169 185.641 241.405 182.262L244.872 184.517Z" fill="#37474F"/>
<path opacity="0.1" d="M240.616 177.564L233.222 173.309C232.338 172.734 231.604 171.958 231.077 171.045C230.55 170.132 230.246 169.108 230.19 168.056V152.364L235.858 149.085L236.795 148.543C236.822 148.524 236.851 148.508 236.882 148.497L242.235 176.393C242.509 177.712 241.773 178.233 240.616 177.564Z" fill="white"/>
<path opacity="0.1" d="M224.804 155.476V166.343C224.804 167.507 223.994 167.975 222.984 167.393L213.582 161.967L214.7 161.297L224.804 155.476Z" fill="white"/>
<path d="M237.598 133.167L169.967 172.211L146.721 155.128L120.109 139.764L187.74 100.726L214.352 116.09L237.598 133.167Z" fill="#4E626C"/>
<path d="M163.048 204.792L168.087 201.868C168.254 201.745 168.451 201.67 168.657 201.65C168.863 201.63 169.07 201.666 169.258 201.754L170.449 202.463C170.619 202.581 170.754 202.743 170.84 202.931C170.926 203.12 170.96 203.328 170.937 203.534V215.619C170.907 216.192 170.741 216.751 170.454 217.249C170.167 217.746 169.766 218.169 169.285 218.482L164.246 221.407C164.079 221.53 163.883 221.606 163.677 221.627C163.471 221.648 163.263 221.614 163.075 221.527C162.78 221.353 162.178 220.985 161.884 220.818C161.714 220.698 161.578 220.535 161.493 220.346C161.407 220.156 161.373 219.947 161.395 219.74V207.656C161.426 207.082 161.592 206.524 161.879 206.026C162.166 205.528 162.567 205.106 163.048 204.792Z" fill="#FAFAFA"/>
<path d="M161.376 207.656V219.747C161.354 219.953 161.388 220.161 161.474 220.349C161.559 220.538 161.694 220.699 161.864 220.818C162.152 220.978 162.607 221.266 163.022 221.487C162.865 221.363 162.742 221.202 162.664 221.019C162.586 220.835 162.555 220.635 162.573 220.436V208.365C162.596 207.801 162.759 207.251 163.048 206.766L161.844 206.057C161.558 206.542 161.397 207.092 161.376 207.656Z" fill="#E0E0E0"/>
<path d="M169.265 218.483L164.226 221.407C163.316 221.935 162.573 221.507 162.573 220.456V208.372C162.605 207.797 162.771 207.238 163.058 206.74C163.345 206.241 163.745 205.817 164.226 205.501L169.265 202.577C170.175 202.055 170.917 202.477 170.917 203.534V215.619C170.887 216.192 170.722 216.751 170.434 217.249C170.147 217.746 169.746 218.169 169.265 218.483Z" fill="#F0F0F0"/>
<path d="M173.754 220.49C174.248 220.813 174.659 221.248 174.953 221.76C175.247 222.271 175.416 222.845 175.447 223.434C175.447 224.518 174.691 224.96 173.754 224.418C173.26 224.096 172.849 223.661 172.555 223.149C172.26 222.637 172.091 222.063 172.062 221.474C172.062 220.39 172.818 219.948 173.754 220.49Z" fill="#37474F"/>
<path d="M167.8 226.171C167.578 226.168 167.362 226.108 167.171 225.997C166.98 225.888 166.821 225.73 166.712 225.54C166.602 225.349 166.546 225.133 166.548 224.913V212.654C166.541 212.595 166.546 212.535 166.564 212.477C166.581 212.42 166.611 212.367 166.65 212.323C166.69 212.278 166.738 212.242 166.793 212.217C166.847 212.192 166.907 212.18 166.966 212.18C167.026 212.18 167.085 212.192 167.14 212.217C167.195 212.242 167.243 212.278 167.283 212.323C167.322 212.367 167.352 212.42 167.369 212.477C167.387 212.535 167.392 212.595 167.385 212.654V224.926C167.382 225 167.4 225.073 167.437 225.137C167.474 225.2 167.527 225.253 167.592 225.288C167.655 225.325 167.726 225.345 167.8 225.345C167.873 225.345 167.944 225.325 168.007 225.288L173.548 222.089C173.595 222.062 173.647 222.044 173.702 222.037C173.756 222.03 173.811 222.033 173.864 222.048C173.917 222.062 173.966 222.087 174.01 222.12C174.053 222.154 174.089 222.195 174.116 222.243C174.17 222.34 174.185 222.455 174.156 222.562C174.127 222.669 174.058 222.761 173.962 222.819L168.402 226.01C168.217 226.113 168.01 226.168 167.8 226.171Z" fill="#263238"/>
<path d="M102.33 80.458C102.167 80.4594 102.009 80.401 101.886 80.2937C101.762 80.1865 101.682 80.0379 101.661 79.8759C98.5497 57.493 114.89 43.8357 131.217 38.516C148.254 32.9688 160.285 40.3562 160.794 40.6707C160.945 40.7656 161.053 40.9169 161.093 41.0914C161.133 41.2658 161.103 41.449 161.008 41.6008C160.913 41.7525 160.761 41.8603 160.587 41.9005C160.413 41.9406 160.229 41.9098 160.078 41.8149C159.957 41.7413 148.033 34.4543 131.639 39.8075C115.827 44.9599 99.9951 58.142 103 79.7019C103.013 79.7899 103.008 79.8796 102.986 79.9659C102.964 80.0521 102.926 80.1331 102.872 80.2041C102.818 80.2752 102.751 80.3348 102.674 80.3795C102.597 80.4243 102.512 80.4532 102.424 80.4647L102.33 80.458Z" fill="#37474F"/>
<path d="M205.948 0.802979L163.002 25.5948L152.068 47.6766L163.002 57.1517L164.233 57.861L207.213 33.0825V1.51227L205.948 0.802979ZM161.503 43.6283C161.552 42.717 161.815 41.83 162.27 41.0393C162.726 40.2487 163.362 39.5768 164.126 39.0781C164.468 38.8688 164.857 38.7491 165.257 38.7301C165.438 39.0863 165.528 39.4817 165.518 39.881C165.468 40.792 165.205 41.6784 164.749 42.4688C164.293 43.2591 163.658 43.9314 162.895 44.4312C162.548 44.6387 162.155 44.7582 161.751 44.7792C161.573 44.4177 161.488 44.0175 161.503 43.6149V43.6283Z" fill="#4E626C"/>
<path d="M164.234 26.3108L153.3 48.3926L164.234 57.861L207.213 33.0825V1.51227L164.234 26.3108ZM164.127 45.1271C162.675 45.9703 161.504 45.2877 161.504 43.6149C161.552 42.7036 161.815 41.8166 162.271 41.026C162.726 40.2353 163.362 39.5634 164.127 39.0647C165.572 38.2283 166.75 38.9108 166.75 40.577C166.701 41.4881 166.438 42.3749 165.982 43.1655C165.526 43.956 164.89 44.6281 164.127 45.1271Z" fill="#4E626C"/>
<path opacity="0.3" d="M166.749 40.577C166.7 41.4881 166.437 42.3749 165.982 43.1655C165.526 43.956 164.89 44.6281 164.126 45.1272C163.076 45.7361 162.173 45.5487 161.751 44.7658C162.157 44.7485 162.551 44.6263 162.895 44.4112C163.659 43.9135 164.295 43.2427 164.75 42.4533C165.206 41.6638 165.469 40.7779 165.518 39.8677C165.529 39.4725 165.439 39.0812 165.257 38.7301C165.439 38.7211 165.62 38.749 165.79 38.8123C165.961 38.8755 166.116 38.9728 166.248 39.0982C166.426 39.2986 166.562 39.5328 166.648 39.7868C166.734 40.0408 166.769 40.3094 166.749 40.577Z" fill="black"/>
<path opacity="0.6" d="M207.179 1.51227L205.948 0.802979L163.002 25.5948L164.233 26.3108L207.179 1.51227Z" fill="white"/>
<path opacity="0.15" d="M164.233 26.3108L153.3 48.4126L152.068 47.6966L163.002 25.5948L164.233 26.3108Z" fill="black"/>
<path opacity="0.3" d="M153.3 48.4126L164.233 57.881L163.002 57.1718L152.068 47.6967L153.3 48.4126Z" fill="black"/>
<path d="M177.51 23.5873C177.541 23.56 177.582 23.545 177.623 23.545C177.665 23.545 177.705 23.56 177.737 23.5873C177.805 23.6721 177.839 23.7798 177.831 23.8884V25.849C177.828 25.988 177.796 26.1249 177.737 26.2505C177.693 26.3657 177.613 26.4641 177.51 26.5316L173.916 28.6059V31.1353L177.262 29.2015C177.294 29.1754 177.334 29.1611 177.376 29.1611C177.417 29.1611 177.457 29.1754 177.489 29.2015C177.558 29.2835 177.592 29.3893 177.583 29.4959V31.4565C177.58 31.5975 177.548 31.7364 177.489 31.8646C177.443 31.977 177.364 32.0726 177.262 32.139L173.916 34.0795V38.0944C173.915 38.2356 173.883 38.3748 173.823 38.5026C173.774 38.6154 173.695 38.7126 173.595 38.7836L172.016 39.6936C171.984 39.7197 171.944 39.734 171.902 39.734C171.861 39.734 171.821 39.7197 171.788 39.6936C171.72 39.6116 171.686 39.5058 171.695 39.3992V27.4349C171.698 27.2939 171.73 27.1549 171.788 27.0267C171.837 26.9139 171.916 26.8167 172.016 26.7457L177.51 23.5873Z" fill="#FAFAFA"/>
<path d="M182.982 20.429C183.417 20.1566 183.898 19.9661 184.401 19.8669C184.761 19.7911 185.137 19.8482 185.458 20.0275C185.785 20.2512 186.022 20.583 186.127 20.9643C186.299 21.5277 186.378 22.1153 186.362 22.7041C186.371 23.5573 186.245 24.4066 185.987 25.2201C185.757 25.9469 185.399 26.6268 184.93 27.2275L186.429 30.7807C186.452 30.8378 186.464 30.8994 186.462 30.9613C186.461 31.0767 186.436 31.1906 186.388 31.2959C186.35 31.3888 186.285 31.468 186.201 31.5234L184.568 32.4669C184.408 32.5606 184.294 32.5673 184.227 32.4669C184.157 32.3973 184.101 32.3157 184.06 32.226L182.721 29.0409L181.617 29.71V33.6647C181.615 33.8058 181.583 33.9449 181.524 34.0728C181.475 34.1856 181.396 34.2829 181.296 34.3539L179.724 35.2572C179.691 35.2851 179.65 35.3003 179.607 35.3003C179.564 35.3003 179.522 35.2851 179.49 35.2572C179.421 35.1752 179.387 35.0694 179.396 34.9628V22.9918C179.398 22.8507 179.43 22.7116 179.49 22.5836C179.538 22.4688 179.62 22.371 179.724 22.3026L182.982 20.429ZM181.644 26.8126L182.982 26.0297C183.306 25.8336 183.583 25.5686 183.792 25.2535C184.023 24.8731 184.137 24.4334 184.12 23.9888C184.12 23.4669 184.006 23.1792 183.792 23.1056C183.647 23.0787 183.498 23.0814 183.355 23.1136C183.211 23.1458 183.075 23.2068 182.956 23.2929L181.617 24.0758L181.644 26.8126Z" fill="#FAFAFA"/>
<path d="M194.064 24.0089C194.096 23.9816 194.136 23.9666 194.178 23.9666C194.22 23.9666 194.26 23.9816 194.292 24.0089C194.328 24.0482 194.356 24.0947 194.373 24.1454C194.39 24.1962 194.397 24.25 194.392 24.3033V26.2639C194.39 26.4058 194.356 26.5454 194.292 26.6721C194.248 26.7858 194.168 26.8821 194.064 26.9465L188.376 30.232C188.345 30.2593 188.304 30.2743 188.263 30.2743C188.221 30.2743 188.18 30.2593 188.149 30.232C188.112 30.1927 188.085 30.1462 188.067 30.0954C188.05 30.0447 188.044 29.9909 188.048 29.9375V18C188.05 17.858 188.084 17.7183 188.149 17.5918C188.193 17.4764 188.273 17.3779 188.376 17.3108L193.97 14.0855C194.002 14.0582 194.042 14.0432 194.084 14.0432C194.126 14.0432 194.166 14.0582 194.198 14.0855C194.233 14.1253 194.26 14.1721 194.276 14.2228C194.292 14.2735 194.297 14.327 194.292 14.3799V16.3405C194.293 16.482 194.26 16.6218 194.198 16.7487C194.149 16.8615 194.071 16.9587 193.97 17.0297L190.27 19.1643V21.1717L193.703 19.1643C193.735 19.1365 193.777 19.1212 193.82 19.1212C193.863 19.1212 193.904 19.1365 193.937 19.1643C194.006 19.2464 194.039 19.3521 194.031 19.4587V21.4193C194.029 21.5605 193.997 21.6997 193.937 21.8275C193.888 21.9423 193.807 22.0401 193.703 22.1085L190.27 24.116V26.1903L194.064 24.0089Z" fill="#FAFAFA"/>
<path d="M202.087 19.4052C202.119 19.3779 202.159 19.3628 202.201 19.3628C202.243 19.3628 202.283 19.3779 202.315 19.4052C202.35 19.445 202.377 19.4918 202.393 19.5425C202.409 19.5932 202.414 19.6467 202.408 19.6996V21.6602C202.409 21.7996 202.377 21.9371 202.315 22.0617C202.27 22.1769 202.191 22.2752 202.087 22.3427L196.393 25.6282C196.361 25.6556 196.321 25.6706 196.279 25.6706C196.237 25.6706 196.197 25.6556 196.165 25.6282C196.097 25.5462 196.063 25.4404 196.072 25.3338V13.3829C196.074 13.2418 196.106 13.1027 196.165 12.9747C196.214 12.8619 196.293 12.7647 196.393 12.6937L201.994 9.46169C202.026 9.43562 202.066 9.42139 202.107 9.42139C202.149 9.42139 202.189 9.43562 202.221 9.46169C202.29 9.54377 202.323 9.64949 202.315 9.75612V11.7167C202.312 11.8577 202.28 11.9967 202.221 12.1249C202.175 12.2372 202.095 12.3328 201.994 12.3992L198.293 14.5405V16.5479L201.726 14.5405C201.757 14.5132 201.798 14.4982 201.84 14.4982C201.881 14.4982 201.922 14.5132 201.953 14.5405C201.99 14.5798 202.018 14.6263 202.035 14.677C202.052 14.7278 202.059 14.7816 202.054 14.8349V16.7955C202.053 16.9376 202.019 17.0775 201.953 17.2037C201.907 17.3178 201.828 17.4156 201.726 17.4847L198.293 19.4922V21.5598L202.087 19.4052Z" fill="#FAFAFA"/>
<path d="M173.012 40.9918C173.239 40.8507 173.496 40.7658 173.762 40.7442C173.964 40.7284 174.167 40.7726 174.344 40.8714C174.51 40.9646 174.645 41.1041 174.732 41.2729C174.825 41.4482 174.876 41.6431 174.879 41.8416C174.878 41.9018 174.864 41.961 174.839 42.0156C174.821 42.0626 174.788 42.1025 174.746 42.1294L173.916 42.6112C173.875 42.6396 173.825 42.6537 173.775 42.6513C173.732 42.6477 173.692 42.6287 173.661 42.5978C173.638 42.5814 173.618 42.561 173.601 42.5376C173.561 42.4995 173.512 42.4717 173.458 42.4566C173.404 42.4415 173.348 42.4394 173.293 42.4506C173.193 42.4658 173.097 42.5023 173.012 42.5576C172.933 42.6027 172.856 42.6542 172.785 42.7115C172.713 42.7711 172.646 42.8359 172.584 42.9056C172.528 42.9764 172.483 43.0554 172.45 43.1398C172.409 43.2253 172.389 43.3192 172.39 43.4141C172.381 43.4511 172.381 43.4898 172.392 43.5266C172.402 43.5633 172.421 43.5967 172.448 43.6237C172.475 43.6506 172.509 43.6701 172.545 43.6803C172.582 43.6905 172.621 43.691 172.658 43.6818C172.784 43.6797 172.91 43.6617 173.033 43.6283C173.193 43.5881 173.387 43.5413 173.615 43.4744C173.812 43.417 174.018 43.3922 174.224 43.4008C174.383 43.4007 174.537 43.4577 174.659 43.5613C174.787 43.6767 174.878 43.8283 174.919 43.9963C174.985 44.2405 175.014 44.493 175.006 44.7457C175.008 45.0748 174.958 45.4021 174.859 45.716C174.759 46.0321 174.622 46.3354 174.451 46.6193C174.103 47.1887 173.62 47.6642 173.046 48.0045C172.808 48.1525 172.541 48.2461 172.263 48.2788C172.052 48.3051 171.837 48.2679 171.647 48.1718C171.477 48.074 171.338 47.9302 171.246 47.7569C171.141 47.5496 171.088 47.32 171.092 47.0877C171.093 47.0276 171.107 46.9684 171.132 46.9138C171.15 46.8668 171.183 46.8269 171.226 46.8L172.056 46.3182C172.098 46.2914 172.146 46.2753 172.196 46.2714C172.233 46.2785 172.267 46.2946 172.296 46.3182C172.327 46.3414 172.354 46.3684 172.377 46.3985C172.413 46.4422 172.459 46.4766 172.511 46.4989C172.577 46.5314 172.651 46.5453 172.725 46.539C172.839 46.5225 172.949 46.4814 173.046 46.4186C173.254 46.3028 173.444 46.1562 173.608 45.9837C173.75 45.8411 173.831 45.6494 173.835 45.4483C173.839 45.4112 173.833 45.3738 173.818 45.3397C173.803 45.3057 173.779 45.2762 173.748 45.2543C173.672 45.2161 173.586 45.2021 173.501 45.2141C173.359 45.2307 173.218 45.2575 173.079 45.2944C172.912 45.348 172.705 45.3948 172.477 45.455C172.318 45.5173 172.144 45.5346 171.975 45.5051C171.807 45.4756 171.649 45.4004 171.52 45.2877C171.284 44.9457 171.177 44.5305 171.219 44.1167C171.22 43.8222 171.263 43.5293 171.346 43.2468C171.43 42.9398 171.549 42.6434 171.701 42.3636C171.861 42.0801 172.051 41.8152 172.27 41.574C172.487 41.3442 172.737 41.148 173.012 40.9918Z" fill="#FAFAFA"/>
<path d="M179.383 37.4186C179.399 37.403 179.421 37.3943 179.443 37.3943C179.466 37.3943 179.487 37.403 179.503 37.4186C179.521 37.4396 179.535 37.4641 179.543 37.4906C179.551 37.5171 179.553 37.545 179.55 37.5725V43.8825C179.55 43.9564 179.534 44.0294 179.503 44.0966C179.476 44.1548 179.434 44.2053 179.383 44.2438L178.546 44.7189C178.53 44.7331 178.508 44.7409 178.486 44.7409C178.464 44.7409 178.443 44.7331 178.426 44.7189C178.391 44.6757 178.374 44.6205 178.379 44.565V42.1561L176.974 42.9725V45.3613C176.973 45.4359 176.955 45.5092 176.92 45.5754C176.897 45.636 176.855 45.6875 176.8 45.7227L175.97 46.2044C175.953 46.2186 175.932 46.2264 175.91 46.2264C175.888 46.2264 175.867 46.2186 175.85 46.2044C175.83 46.1832 175.814 46.1578 175.805 46.1301C175.796 46.1023 175.793 46.0729 175.796 46.0438V39.7472C175.798 39.6728 175.816 39.5997 175.85 39.5331C175.873 39.4725 175.916 39.421 175.97 39.3858L176.8 38.9041C176.817 38.8899 176.838 38.8821 176.86 38.8821C176.882 38.8821 176.904 38.8899 176.92 38.9041C176.94 38.9243 176.955 38.9485 176.964 38.9751C176.973 39.0017 176.977 39.03 176.974 39.058V41.4201L178.379 40.6104V38.255C178.379 38.1811 178.395 38.1081 178.426 38.0409C178.451 37.9814 178.493 37.9303 178.546 37.8937L179.383 37.4186Z" fill="#FAFAFA"/>
<path d="M180.768 43.4476C180.751 43.4618 180.73 43.4695 180.708 43.4695C180.686 43.4695 180.665 43.4618 180.648 43.4476C180.629 43.4257 180.614 43.4002 180.605 43.3726C180.596 43.3451 180.592 43.316 180.594 43.287V36.977C180.596 36.9025 180.615 36.8294 180.648 36.7628C180.671 36.7023 180.714 36.6508 180.768 36.6156L181.598 36.1338C181.615 36.1208 181.637 36.1138 181.658 36.1138C181.68 36.1138 181.701 36.1208 181.718 36.1338C181.738 36.1558 181.752 36.1812 181.761 36.2088C181.77 36.2364 181.774 36.2655 181.772 36.2944V42.5978C181.771 42.6723 181.753 42.7456 181.718 42.8119C181.695 42.8725 181.653 42.924 181.598 42.9591L180.768 43.4476Z" fill="#FAFAFA"/>
<path d="M184.803 34.287C185.026 34.1492 185.274 34.0539 185.532 34.006C185.723 33.9722 185.919 34.0129 186.081 34.1197C186.252 34.2483 186.376 34.4292 186.435 34.635C186.525 34.9343 186.565 35.2461 186.556 35.5584C186.558 35.921 186.517 36.2826 186.435 36.6357C186.357 36.9531 186.238 37.259 186.081 37.5457C185.932 37.8193 185.748 38.0714 185.532 38.2952C185.315 38.5161 185.07 38.7073 184.803 38.864L183.986 39.3324V41.3398C183.986 41.4137 183.97 41.4867 183.939 41.5539C183.914 41.6134 183.872 41.6645 183.819 41.7011L182.989 42.1561C182.973 42.1717 182.951 42.1804 182.929 42.1804C182.906 42.1804 182.885 42.1717 182.869 42.1561C182.849 42.1357 182.835 42.1114 182.826 42.0849C182.816 42.0584 182.813 42.0302 182.815 42.0022V35.6922C182.818 35.6179 182.836 35.5449 182.869 35.4781C182.894 35.4186 182.936 35.3675 182.989 35.3309L184.803 34.287ZM183.986 37.8134L184.769 37.3584C184.964 37.245 185.125 37.0803 185.234 36.8822C185.342 36.684 185.394 36.4599 185.385 36.2342C185.385 35.9599 185.324 35.7993 185.211 35.7457C185.137 35.7202 185.058 35.7135 184.98 35.7264C184.903 35.7392 184.831 35.7712 184.769 35.8193L183.986 36.2677V37.8134Z" fill="#FAFAFA"/>
<path d="M189.306 31.684C189.531 31.5483 189.778 31.4532 190.036 31.403C190.228 31.3695 190.427 31.4101 190.591 31.5167C190.76 31.646 190.882 31.8269 190.939 32.032C191.034 32.3301 191.077 32.6426 191.066 32.9554C191.07 33.3184 191.027 33.6804 190.939 34.0327C190.862 34.3516 190.745 34.6595 190.591 34.9494C190.439 35.22 190.252 35.4697 190.036 35.6922C189.821 35.9162 189.576 36.1078 189.306 36.261L188.497 36.7294V38.7368C188.494 38.8111 188.476 38.8841 188.443 38.9509C188.419 39.0115 188.377 39.063 188.323 39.0981L187.493 39.5799C187.476 39.5941 187.455 39.6018 187.433 39.6018C187.411 39.6018 187.389 39.5941 187.372 39.5799C187.354 39.5589 187.341 39.5344 187.333 39.5079C187.325 39.4814 187.322 39.4535 187.326 39.426V33.0959C187.325 33.0198 187.341 32.9444 187.372 32.8751C187.398 32.8156 187.44 32.7645 187.493 32.7279L189.306 31.684ZM188.477 35.2104L189.259 34.7554C189.453 34.6406 189.612 34.4754 189.719 34.2775C189.826 34.0795 189.878 33.8562 189.868 33.6312C189.868 33.3569 189.815 33.1963 189.694 33.1427C189.622 33.1171 189.543 33.1104 189.467 33.1233C189.391 33.1362 189.32 33.1682 189.259 33.2164L188.477 33.6647V35.2104Z" fill="#FAFAFA"/>
<path d="M192.003 36.9635C191.986 36.9777 191.965 36.9855 191.943 36.9855C191.921 36.9855 191.899 36.9777 191.882 36.9635C191.861 36.9432 191.844 36.9181 191.834 36.8903C191.823 36.8624 191.819 36.8325 191.822 36.803V30.4929C191.823 30.4184 191.842 30.3451 191.876 30.2788C191.897 30.2169 191.94 30.1647 191.996 30.1316L192.826 29.6498C192.843 29.6356 192.864 29.6279 192.886 29.6279C192.908 29.6279 192.93 29.6356 192.946 29.6498C192.984 29.692 193.003 29.7473 193 29.8037V36.1338C192.998 36.2082 192.98 36.2813 192.946 36.3479C192.923 36.4085 192.881 36.46 192.826 36.4951L192.003 36.9635Z" fill="#FAFAFA"/>
<path d="M196.934 34.1264C196.86 34.1665 196.807 34.1732 196.76 34.1264C196.725 34.1047 196.695 34.0749 196.673 34.0394L195.221 31.5368V34.8356C195.222 34.9097 195.206 34.983 195.174 35.0498C195.151 35.1103 195.108 35.1619 195.054 35.197L194.224 35.6788C194.207 35.6929 194.186 35.7007 194.164 35.7007C194.142 35.7007 194.12 35.6929 194.104 35.6788C194.084 35.6588 194.069 35.6346 194.059 35.6079C194.05 35.5813 194.047 35.5529 194.05 35.5249V29.2081C194.049 29.1333 194.067 29.0594 194.104 28.994C194.127 28.9335 194.169 28.8819 194.224 28.8468L194.893 28.4654C194.967 28.4252 195.027 28.4186 195.067 28.4654C195.103 28.487 195.133 28.5169 195.154 28.5524L196.606 31.055V27.7427C196.605 27.6687 196.621 27.5953 196.653 27.5286C196.681 27.4706 196.722 27.4201 196.773 27.3814L197.61 26.8996C197.627 26.8866 197.648 26.8795 197.67 26.8795C197.692 26.8795 197.713 26.8866 197.73 26.8996C197.766 26.9449 197.783 27.0026 197.777 27.0602V33.3635C197.778 33.4375 197.762 33.5107 197.73 33.5777C197.707 33.6382 197.665 33.6897 197.61 33.7249L196.934 34.1264Z" fill="#FAFAFA"/>
<path d="M200.628 26.6119C200.491 26.6901 200.368 26.7921 200.267 26.913C200.172 27.0317 200.093 27.1622 200.032 27.3011C199.97 27.4399 199.925 27.5861 199.899 27.736C199.867 27.8906 199.844 28.0471 199.832 28.2044C199.832 28.2914 199.832 28.4119 199.832 28.5658C199.832 28.7197 199.832 28.8736 199.832 29.0275C199.832 29.1814 199.832 29.342 199.832 29.4959C199.832 29.6498 199.832 29.7636 199.832 29.8438C199.837 29.9773 199.857 30.1098 199.892 30.2386C199.916 30.3422 199.964 30.4385 200.032 30.5197C200.062 30.5539 200.1 30.5812 200.141 30.5997C200.183 30.6182 200.228 30.6274 200.273 30.6268C200.4 30.6232 200.523 30.5837 200.628 30.513C200.743 30.4492 200.849 30.3705 200.942 30.2788C201.041 30.1787 201.127 30.0662 201.197 29.9442C201.27 29.8088 201.326 29.665 201.364 29.516C201.411 29.3416 201.434 29.1614 201.431 28.9807L200.896 29.2885C200.878 29.3015 200.857 29.3085 200.835 29.3085C200.814 29.3085 200.793 29.3015 200.775 29.2885C200.739 29.2431 200.722 29.1855 200.728 29.1279V28.1041C200.728 28.0279 200.744 27.9526 200.775 27.8833C200.801 27.8238 200.842 27.7727 200.896 27.736L202.435 26.8528C202.452 26.8386 202.473 26.8308 202.495 26.8308C202.517 26.8308 202.538 26.8386 202.555 26.8528C202.591 26.8981 202.608 26.9558 202.602 27.0134V28.258C202.606 28.6668 202.554 29.0742 202.448 29.4691C202.352 29.8475 202.213 30.2135 202.033 30.5598C201.86 30.8791 201.651 31.1777 201.411 31.4498C201.184 31.7006 200.92 31.915 200.628 32.0855C200.385 32.2408 200.106 32.3307 199.818 32.3465C199.586 32.351 199.36 32.27 199.183 32.1189C199 31.9522 198.866 31.7396 198.795 31.5033C198.698 31.2024 198.647 30.8891 198.641 30.5732C198.641 30.3056 198.641 30.0245 198.641 29.7167C198.641 29.4089 198.641 29.1145 198.641 28.8334C198.65 28.4586 198.702 28.086 198.795 27.7227C198.882 27.354 199.012 26.9969 199.183 26.6587C199.345 26.3241 199.55 26.0115 199.792 25.7286C200.028 25.4649 200.303 25.2392 200.608 25.0595C200.851 24.9103 201.126 24.8208 201.411 24.7985C201.623 24.7923 201.832 24.8481 202.013 24.9591C202.179 25.0748 202.313 25.2316 202.401 25.4141C202.495 25.6037 202.545 25.8117 202.548 26.023C202.553 26.083 202.542 26.1431 202.515 26.197C202.492 26.245 202.458 26.2864 202.415 26.3175L201.592 26.7658C201.525 26.7992 201.478 26.7992 201.438 26.7658L201.337 26.652C201.275 26.5705 201.192 26.5079 201.096 26.4714C201.013 26.4603 200.928 26.4671 200.847 26.4913C200.766 26.5155 200.692 26.5566 200.628 26.6119Z" fill="#FAFAFA"/>
<path d="M158.271 52.8625C157.63 52.8611 156.991 52.7802 156.37 52.6216C156.193 52.579 156.04 52.4676 155.944 52.312C155.849 52.1564 155.819 51.9693 155.862 51.7918C155.904 51.6144 156.016 51.4611 156.171 51.3657C156.327 51.2703 156.514 51.2407 156.692 51.2833C157.973 51.6565 159.347 51.5465 160.554 50.9743C161.76 50.402 162.714 49.4073 163.236 48.1784C163.905 46.5457 163.965 44.1636 161.77 42.7517C161.619 42.655 161.513 42.5023 161.475 42.3272C161.437 42.1522 161.47 41.9691 161.566 41.8182C161.663 41.6674 161.816 41.5611 161.991 41.5229C162.166 41.4846 162.349 41.5174 162.5 41.6141C165.216 43.3472 165.451 46.4253 164.507 48.7071C164.001 49.943 163.137 50.9992 162.025 51.7397C160.914 52.4802 159.606 52.8713 158.271 52.8625Z" fill="#37474F"/>
<path d="M46.3354 238.356C46.0568 238.963 45.9459 239.633 46.0142 240.297C46.2529 241.157 46.3612 242.048 46.3354 242.94C46.2283 244.278 45.9406 244.686 45.8402 245.616C45.6941 246.548 45.8967 247.501 46.409 248.293C46.9845 249.156 48.2692 249.845 50.6313 249.671C52.545 249.531 53.3547 248.46 53.3547 247.329L46.3354 238.356Z" fill="#263238"/>
<path d="M47.2855 237.225C48.49 237.894 50.4572 237.111 51.9227 236.329L53.4617 227.228L46.8037 225.749L47.2855 237.225Z" fill="#FFA8A7"/>
<path d="M46.7905 235.606C46.7402 235.853 46.7111 236.103 46.7035 236.355C46.6499 236.797 46.5295 237.225 46.4425 237.694C46.4425 237.807 46.3957 237.928 46.3756 238.042C46.3187 238.934 46.3478 239.831 46.4626 240.718C46.431 241.779 46.2851 242.833 46.0276 243.863C45.6663 245.743 45.673 246.914 47.3659 248.139C48.2183 248.702 49.2406 248.951 50.2566 248.842C51.0797 248.842 52.2172 248.621 52.6321 248.172C52.977 247.879 53.2128 247.479 53.3012 247.035C53.3012 245.027 52.4916 242.786 52.2774 240.819C52.2009 240.289 52.1674 239.754 52.1771 239.219C52.2239 238.55 52.4247 237.881 52.4715 237.212C52.5163 236.965 52.4762 236.71 52.3577 236.489C52.2418 236.37 52.1022 236.276 51.9477 236.213C51.7933 236.151 51.6275 236.122 51.4611 236.128C50.5912 236.048 49.7213 235.994 48.8447 235.961C48.7417 235.944 48.6365 235.949 48.5353 235.974C48.4341 235.999 48.3391 236.045 48.2559 236.108C48.0953 236.262 48.102 236.523 48.0618 236.743C48.0217 236.964 47.8678 237.225 47.647 237.192C47.5748 237.173 47.5099 237.133 47.4609 237.077C47.4119 237.021 47.3811 236.951 47.3726 236.877C47.3726 236.73 47.2388 235.586 47.2388 235.439C47.1986 235.452 46.8908 235.412 46.7905 235.606Z" fill="#37474F"/>
<path d="M53.4552 246.694C53.4539 246.275 53.3432 245.865 53.134 245.503C52.1637 243.763 47.2923 243.883 45.8336 245.71C45.7928 246.197 45.8859 246.685 46.1029 247.123C46.32 247.561 46.6526 247.93 47.0648 248.193C47.9079 248.822 49.2395 248.908 50.3302 248.862C51.1802 248.861 52.0104 248.605 52.7124 248.126C52.9491 247.971 53.1419 247.758 53.2721 247.507C53.4022 247.256 53.4653 246.976 53.4552 246.694Z" fill="#455A64"/>
<path d="M59.8123 237.493C60.8294 239.694 62.4286 238.831 64.4963 237.399L65.5067 224.224L59.123 225.95L59.8123 237.493Z" fill="#FFA8A7"/>
<path d="M72.9136 242.518C73.033 242.874 73.0115 243.262 72.8534 243.602C72.6995 243.917 71.04 244.854 68.805 244.706C67.1433 244.586 65.5431 244.028 64.1679 243.087C63.3051 242.58 62.3176 242.325 61.3173 242.351C60.2065 242.291 58.7545 241.735 58.5069 241.213C58.3825 240.749 58.3965 240.258 58.547 239.802L72.9136 242.518Z" fill="#263238"/>
<path d="M65.0777 235.539C65.1588 235.702 65.2303 235.87 65.2918 236.041C65.5413 236.66 65.9443 237.206 66.4628 237.627C67.2141 238.195 68.0266 238.678 68.8851 239.065C69.4205 239.333 69.9959 239.427 70.5446 239.641C71.1681 239.87 71.7667 240.161 72.3312 240.511C72.5493 240.659 72.7277 240.859 72.8511 241.092C72.9744 241.325 73.0389 241.585 73.0389 241.849C73.0389 242.113 72.9744 242.373 72.8511 242.606C72.7277 242.839 72.5493 243.039 72.3312 243.187C70.5975 243.977 68.6366 244.112 66.8108 243.569C65.5127 243.201 64.074 241.816 62.3677 241.682C61.2837 241.595 59.2361 241.294 58.5402 240.471C58.3193 239.273 58.6272 238.945 58.9082 237.948C59.0597 237.384 59.1516 236.805 59.1825 236.222C59.1825 235.914 59.0286 235.024 59.6777 234.943V235.613C59.6777 235.613 59.7915 235.84 60.4606 235.987C60.6747 236.034 60.8353 236.322 60.9424 236.59C61.0495 236.857 61.1097 237.051 61.3238 237.058C61.399 237.053 61.4713 237.027 61.5327 236.983C61.5942 236.94 61.6423 236.88 61.6718 236.81C61.7286 236.671 61.7756 236.528 61.8123 236.382C61.909 236.155 62.0535 235.951 62.236 235.785C62.4184 235.619 62.6345 235.494 62.8695 235.419C63.2596 235.305 63.6616 235.238 64.0673 235.218C64.3818 235.184 64.6361 235.064 64.9037 235.332C64.9708 235.393 65.0294 235.462 65.0777 235.539Z" fill="#37474F"/>
<path d="M59.0561 237.239C59.0093 237.486 58.9624 237.727 58.8955 237.968C58.6145 238.965 58.3067 239.306 58.5275 240.491C59.0628 241.12 60.3944 241.448 61.4717 241.601C61.8397 239.554 60.5617 238.022 59.0561 237.239Z" fill="#455A64"/>
<path d="M47.7606 184.932C47.4795 193.463 47.6 196.883 47.6334 212.574C46.9079 214.98 46.5205 217.475 46.4825 219.988C46.3754 223.916 46.7903 232.033 46.7903 232.033C46.7903 232.033 50.0423 234.04 52.8126 232.448C52.8126 232.448 55.0208 220.503 55.8706 215.05C56.6134 210.239 57.3762 203.199 57.3762 203.199L58.4401 213.203C58.1368 215.725 58.0763 218.271 58.2594 220.804C58.4401 223.374 59.1427 232.434 59.1427 232.434C59.1427 232.434 62.087 234.488 65.165 232.842C65.165 232.842 66.6104 214.816 66.6572 212.48C66.7041 209.804 65.6669 182.764 65.6669 182.764L47.7606 184.932Z" fill="#455A64"/>
<path d="M57.3564 203.179L58.9691 193.865C58.9691 193.865 62.4687 193.557 64.4092 191.603C64.4092 191.603 64.0613 193.523 59.6583 194.668L58.0457 204.036L58.4204 213.156L57.3564 203.179Z" fill="#263238"/>
<path d="M72.3718 240.457C71.8678 240.185 71.339 239.96 70.7926 239.788C69.8094 239.862 68.8925 240.312 68.233 241.045C67.5736 241.778 67.2225 242.737 67.2528 243.723C68.9477 244.191 70.754 244.036 72.345 243.288C72.5692 243.127 72.7523 242.916 72.8794 242.671C73.0066 242.426 73.0742 242.155 73.0769 241.879C73.0795 241.603 73.017 241.331 72.8945 241.084C72.7719 240.837 72.5929 240.622 72.3718 240.457Z" fill="#455A64"/>
<path d="M60.0793 163.071C61.5848 163.031 64.3952 162.997 66.3491 165.526C67.7276 167.306 71.4949 171.596 73.6161 174.413C75.1216 172.92 78.7618 169.307 79.3707 168.236C79.944 167.234 80.4148 166.175 80.7759 165.078C81.011 164.438 81.1835 163.777 81.2912 163.104C81.4296 162.275 81.4701 161.433 81.4116 160.595C81.4116 159.845 82.5224 160.254 82.9239 161.458C83.1221 162.124 83.2147 162.817 83.1982 163.512L85.025 162.676C85.6941 162.388 87.7885 161.706 87.9625 162.883C87.9429 163.15 87.961 163.418 88.0161 163.68C88.0798 163.789 88.1537 163.892 88.2369 163.987C88.3753 164.179 88.4606 164.403 88.4841 164.639C88.5076 164.874 88.4685 165.111 88.3707 165.326C88.2657 165.513 88.2212 165.728 88.2436 165.941C88.2862 166.162 88.2862 166.389 88.2436 166.61C88.1678 166.779 88.076 166.941 87.9692 167.092C87.8637 167.302 87.7958 167.528 87.7685 167.761C87.7429 167.992 87.6843 168.217 87.5945 168.431C87.3536 168.946 86.7246 169.053 86.2562 169.213C85.5115 169.444 84.779 169.712 84.0614 170.016C82.8837 170.759 79.625 176.34 76.3729 179.893C75.2555 181.111 74.2651 181.867 73.2346 181.706C72.3982 181.673 71.3878 180.89 70.4175 180.007C67.3194 177.21 62.3142 171.977 62.3142 171.977C60.2265 169.441 59.7982 164.79 60.0793 163.071Z" fill="#FFA8A7"/>
<path d="M60.0794 163.071C61.5285 162.872 63.004 163.105 64.3217 163.74C65.66 164.409 65.9277 164.83 67.1924 166.316C68.4571 167.801 70.2169 170.036 70.2169 170.036C70.2169 170.036 69.2199 174.265 65.1046 175.316L59.6846 169.019L60.0794 163.071Z" fill="#455A64"/>
<path d="M84.0146 163.666C83.3455 163.874 83.1916 164.335 83.2183 165.245C83.2183 165.801 83.0778 166.831 82.4756 167.253C82.7657 167.219 83.0387 167.097 83.2585 166.905C83.5462 166.61 83.6198 166.577 83.7804 166.744C83.9021 166.852 84.046 166.932 84.202 166.979C84.1001 167.097 84.0393 167.245 84.0284 167.4C84.0176 167.556 84.0573 167.711 84.1418 167.842C84.4362 168.317 85.7343 168.317 86.8183 167.755C86.8183 167.755 85.0919 168.31 84.6838 167.755C84.2756 167.199 85.1923 166.51 85.8748 166.316C85.8748 166.316 84.202 166.731 83.941 166.189C83.68 165.647 84.3693 165.219 85.3529 164.958C85.3529 164.958 83.9745 165.219 83.7336 164.757C83.6392 164.572 83.6157 164.359 83.6675 164.158C83.7192 163.957 83.8427 163.782 84.0146 163.666Z" fill="#F28F8F"/>
<path d="M65.353 169.588C64.9783 166.851 64.6169 163.171 60.3745 163.004L54.8608 162.743C53.5225 163.091 47.5002 164.837 47.5002 164.837V173.536C47.5002 173.536 47.7009 177.17 47.9485 181.753C47.9485 181.753 47.4534 187.106 47.5002 189.187C51.4214 191.67 61.8266 190.961 65.9619 188.465C66.156 184.684 65.7478 172.298 65.353 169.588Z" fill="#4E626C"/>
<path d="M58.588 154.051L49.9628 153.602C48.3233 154.9 45.2787 157.617 45.2787 158.36V158.875C45.273 158.895 45.273 158.916 45.2787 158.935C45.5932 159.511 46.704 159.845 48.417 159.839C50.4245 159.839 53.6029 159.578 54.4393 158.848C55.6639 157.744 58.5947 154.539 58.5947 154.539H58.1598L58.588 154.051Z" fill="#4E626C"/>
<path opacity="0.2" d="M58.588 154.051L49.9628 153.602C48.3233 154.9 45.2787 157.617 45.2787 158.36V158.875C45.273 158.895 45.273 158.916 45.2787 158.935C45.5932 159.511 46.704 159.845 48.417 159.839C50.4245 159.839 53.6029 159.578 54.4393 158.848C55.6639 157.744 58.5947 154.539 58.5947 154.539H58.1598L58.588 154.051Z" fill="black"/>
<path d="M49.9627 154.084C48.243 155.422 44.991 158.36 45.3122 158.935C45.6334 159.511 46.7375 159.845 48.4505 159.839C50.4579 159.839 53.6363 159.578 54.4728 158.848C55.6973 157.744 58.6282 154.539 58.6282 154.539L49.9627 154.084Z" fill="#4E626C"/>
<path opacity="0.4" d="M49.9627 154.084C48.243 155.422 44.991 158.36 45.3122 158.935C45.6334 159.511 46.7375 159.845 48.4505 159.839C50.4579 159.839 53.6363 159.578 54.4728 158.848C55.6973 157.744 58.6282 154.539 58.6282 154.539L49.9627 154.084Z" fill="black"/>
<path d="M49.9619 154.084C49.9619 154.338 50.8318 154.84 50.8318 154.84L50.5508 153.328L49.9619 154.084Z" fill="#4E626C"/>
<path opacity="0.3" d="M49.9619 154.084C49.9619 154.338 50.8318 154.84 50.8318 154.84L50.5508 153.328L49.9619 154.084Z" fill="black"/>
<path d="M63.5791 148.423C63.1592 147.647 62.5634 146.98 61.8393 146.476C60.5612 145.593 58.9085 145.452 57.356 145.512C56.3656 145.53 55.3821 145.681 54.4319 145.961C53.531 146.235 52.7092 146.722 52.0351 147.38C51.361 148.038 50.8543 148.847 50.5575 149.741C50.1945 150.848 50.0788 152.021 50.2187 153.177C50.3586 154.333 50.7507 155.445 51.3672 156.433C51.9092 157.283 52.2571 158.206 52.7055 159.109C53.0869 159.852 53.3746 160.448 53.3746 160.448L53.2475 158.099L55.4824 157.905C56.1254 157.796 56.7786 157.76 57.4296 157.798C58.0418 157.827 58.6444 157.637 59.1293 157.262C60.1865 156.589 61.195 155.843 62.1471 155.028C62.7675 154.531 63.3149 153.95 63.7731 153.301C63.8795 153.151 63.9735 152.992 64.0542 152.826C64.2019 152.546 64.3015 152.243 64.3486 151.929C64.4264 151.488 64.4467 151.038 64.4088 150.591C64.3276 150.132 64.1952 149.683 64.014 149.253C63.8844 148.968 63.7392 148.691 63.5791 148.423Z" fill="#263238"/>
<path d="M57.778 150.364C57.2701 150.296 56.7672 150.196 56.2724 150.062H56.1319C55.9492 150.621 55.6241 151.122 55.1888 151.516C54.7534 151.91 54.2229 152.184 53.6494 152.311C53.8285 153.246 53.8512 154.205 53.7163 155.148C53.6792 155.351 53.6067 155.546 53.5022 155.723C53.4461 155.809 53.3722 155.881 53.2856 155.936C53.199 155.99 53.1017 156.025 53.0003 156.038C52.7259 156.038 52.6122 155.891 52.5252 155.677C52.4069 155.401 52.2682 155.135 52.1103 154.88C52.0448 154.767 51.9637 154.663 51.8694 154.573C51.7131 154.407 51.5171 154.284 51.3 154.215C51.0829 154.147 50.8518 154.135 50.6287 154.18C50.4056 154.226 50.1979 154.327 50.0251 154.476C49.8522 154.624 49.7201 154.814 49.6412 155.028C49.4272 155.685 49.4608 156.398 49.7356 157.033C50.0103 157.667 50.5074 158.18 51.1334 158.474C52.8531 158.949 53.2211 157.804 53.2211 157.804L53.5557 163.927C54.4858 164.897 58.0189 166.236 59.036 167.387C59.491 166.604 60.7958 164.677 59.0761 163.586L59.0092 161.719C59.7707 161.814 60.5401 161.827 61.3044 161.759C62.549 161.525 63.1646 160.474 63.4992 159.083C64.0345 156.888 63.9676 152.712 63.8003 151.053C63.7537 150.461 63.6665 149.873 63.5393 149.293C63.5929 149.46 62.3616 149.962 62.201 149.962C61.6461 150.149 61.0712 150.27 60.488 150.323C59.8211 150.39 59.1506 150.415 58.4806 150.397C58.246 150.399 58.0114 150.388 57.778 150.364Z" fill="#FFA8A7"/>
<path d="M59.009 161.665C57.7159 161.461 56.4438 161.141 55.2082 160.709C54.6261 160.426 54.1416 159.976 53.8164 159.417C53.9838 159.981 54.2613 160.507 54.6328 160.963C55.3755 161.853 59.029 162.254 59.029 162.254L59.009 161.665Z" fill="#F28F8F"/>
<path d="M57.8114 154.405C57.8114 154.508 57.7811 154.608 57.7243 154.694C57.6675 154.779 57.5868 154.846 57.4922 154.886C57.3976 154.926 57.2934 154.937 57.1925 154.918C57.0916 154.899 56.9986 154.85 56.9251 154.779C56.8516 154.707 56.8009 154.615 56.7793 154.515C56.7577 154.415 56.7661 154.31 56.8036 154.215C56.841 154.119 56.9058 154.037 56.9899 153.978C57.0739 153.919 57.1735 153.886 57.2761 153.883C57.3458 153.881 57.4151 153.894 57.48 153.919C57.5449 153.944 57.604 153.983 57.6539 154.031C57.7038 154.08 57.7434 154.138 57.7705 154.202C57.7975 154.266 57.8115 154.335 57.8114 154.405Z" fill="#263238"/>
<path d="M57.1084 151.842L55.7701 152.237C55.7198 152.06 55.7405 151.87 55.8279 151.707C55.9154 151.545 56.0627 151.423 56.2385 151.367C56.3267 151.337 56.4203 151.325 56.5133 151.333C56.6064 151.34 56.6968 151.367 56.7787 151.412C56.8606 151.457 56.9323 151.518 56.989 151.592C57.0458 151.667 57.0865 151.752 57.1084 151.842Z" fill="#263238"/>
<path d="M57.9924 158.045L59.9195 158.715C59.8814 158.843 59.818 158.962 59.7331 159.066C59.6481 159.169 59.5433 159.255 59.4248 159.317C59.3064 159.379 59.1766 159.417 59.0432 159.429C58.9098 159.44 58.7755 159.425 58.6482 159.384C58.3843 159.292 58.1672 159.1 58.0444 158.85C57.9215 158.599 57.9028 158.31 57.9924 158.045Z" fill="#B16668"/>
<path d="M58.2193 158.447C58.1351 158.447 58.0515 158.46 57.9717 158.487C57.9903 158.681 58.0628 158.866 58.181 159.021C58.2993 159.176 58.4586 159.295 58.6408 159.364C58.7781 159.412 58.9246 159.428 59.0691 159.41C59.0721 159.386 59.0721 159.361 59.0691 159.337C59.071 159.107 58.9833 158.886 58.8246 158.72C58.666 158.553 58.4488 158.456 58.2193 158.447Z" fill="#F28F8F"/>
<path d="M63.3451 152.13L62.0938 151.655C62.1581 151.495 62.2817 151.366 62.4388 151.295C62.5958 151.224 62.7743 151.216 62.9369 151.274C63.0201 151.303 63.0966 151.348 63.1622 151.407C63.2278 151.466 63.2811 151.537 63.319 151.617C63.3569 151.697 63.3788 151.783 63.3832 151.871C63.3877 151.959 63.3747 152.047 63.3451 152.13Z" fill="#263238"/>
<path d="M55.2218 152.625L50.8389 154.131C51.0836 154.132 51.3247 154.19 51.5431 154.3C51.7615 154.41 51.9511 154.57 52.0969 154.767L55.2017 153.589L55.2218 152.625Z" fill="#37474F"/>
<path d="M62.5956 154.318C62.5942 154.42 62.5629 154.52 62.5056 154.604C62.4483 154.689 62.3675 154.754 62.2732 154.793C62.1788 154.832 62.0752 154.843 61.9749 154.824C61.8747 154.804 61.7823 154.756 61.7093 154.685C61.6362 154.614 61.5856 154.522 61.5638 154.423C61.542 154.323 61.5499 154.219 61.5865 154.124C61.6232 154.029 61.687 153.946 61.77 153.887C61.853 153.827 61.9516 153.794 62.0536 153.79C62.1239 153.789 62.1937 153.802 62.2589 153.828C62.3242 153.854 62.3837 153.893 62.4341 153.942C62.4844 153.991 62.5246 154.049 62.5523 154.114C62.58 154.178 62.5947 154.248 62.5956 154.318Z" fill="#263238"/>
<path d="M64.951 152.411L64.67 152.378C63.7116 152.264 62.741 152.314 61.7993 152.525C60.8826 152.826 60.5547 153.147 60.0462 153.161C59.5376 153.174 59.1696 152.86 58.1993 152.592C57.1867 152.426 56.1539 152.426 55.1413 152.592C55.0343 152.592 54.9272 152.592 54.8335 152.632C54.7243 152.666 54.6298 152.737 54.5655 152.831C54.5011 152.926 54.4706 153.04 54.4789 153.154C54.5104 153.378 54.611 153.586 54.7666 153.749C54.8098 153.825 54.8414 153.906 54.8603 153.99C54.9277 154.55 55.0418 155.103 55.2016 155.643C55.2941 155.862 55.4231 156.063 55.583 156.239C55.6454 156.3 55.7125 156.356 55.7837 156.406L55.8975 156.486C56.0053 156.552 56.1197 156.605 56.2387 156.647H56.2923H56.3859H56.4796C56.5789 156.668 56.6795 156.681 56.7807 156.687H57.0752C57.5158 156.715 57.9544 156.607 58.3323 156.379C58.7101 156.15 59.0093 155.812 59.1897 155.409C59.5175 154.773 59.4506 153.89 60.0328 153.877H60.1398C60.5614 153.97 60.4945 154.787 60.7555 155.369C60.8546 155.601 60.9901 155.815 61.1569 156.004C61.1847 156.039 61.2162 156.07 61.2506 156.098L61.3042 156.145C61.3187 156.164 61.3369 156.18 61.3577 156.192L61.4045 156.225L61.4581 156.265H61.4982H61.5317C61.6871 156.352 61.8537 156.418 62.0268 156.46H62.0737C62.2736 156.503 62.4782 156.521 62.6826 156.513C63.0688 156.529 63.4503 156.423 63.7732 156.211C64.0961 155.998 64.3443 155.69 64.4826 155.329C64.6565 154.782 64.7863 154.223 64.8707 153.656C64.8905 153.574 64.9295 153.498 64.9844 153.435C65.1343 153.261 65.2297 153.047 65.2588 152.819C65.2789 152.665 65.1116 152.425 64.951 152.411ZM58.8752 154.874C58.8035 155.201 58.6492 155.506 58.4268 155.757C58.2472 155.937 58.0316 156.077 57.7941 156.168C57.5565 156.26 57.3024 156.299 57.0484 156.286C56.7909 156.309 56.5316 156.265 56.2967 156.157C56.0618 156.049 55.8594 155.881 55.7101 155.67L55.67 155.603C55.6366 155.543 55.6366 155.543 55.6031 155.483C55.6008 155.467 55.6008 155.451 55.603 155.436V155.389C55.6014 155.378 55.6014 155.367 55.603 155.355C55.6004 155.333 55.6004 155.311 55.603 155.289C55.603 155.228 55.5562 155.168 55.5361 155.108C55.5361 155.108 55.5361 155.034 55.5361 155.001C55.5178 154.942 55.5044 154.881 55.496 154.82V154.753C55.4023 154.318 55.3086 153.455 55.496 153.254C56.0143 152.937 56.6299 152.818 57.2291 152.92H57.3294C57.47 152.92 57.6105 152.96 57.751 152.987L57.9183 153.027C58.0592 153.06 58.1978 153.103 58.3332 153.154L58.4603 153.207L58.5941 153.274H58.6476C58.7534 153.331 58.8467 153.408 58.922 153.502C59.068 153.95 59.0515 154.436 58.8752 154.874ZM64.3421 154.586C64.3032 154.875 64.2016 155.153 64.0445 155.399C63.8873 155.645 63.6783 155.854 63.432 156.011C63.222 156.11 62.9947 156.167 62.7629 156.178C62.4926 156.207 62.2197 156.16 61.9749 156.041C61.7302 155.923 61.5234 155.739 61.3778 155.509V155.469V155.422C61.3694 155.397 61.3582 155.372 61.3443 155.349V155.268V155.228C61.3443 155.228 61.3443 155.228 61.3443 155.195C61.3073 155.091 61.2805 154.983 61.264 154.874C61.1368 154.433 61.1556 153.964 61.3175 153.535C61.7455 153.153 62.2851 152.918 62.8566 152.866L63.2915 152.826H63.6662H63.7867L64.0008 152.86H64.0476H64.0878H64.1346H64.1949L64.3019 152.9C64.3866 152.933 64.4639 152.983 64.5294 153.047C64.5696 153.274 64.4424 154.144 64.3421 154.573V154.586Z" fill="#263238"/>
<path d="M59.8721 153.957L59.9724 157.604L61.9799 157.015L60.1063 153.903C60.0251 153.903 59.9449 153.921 59.8721 153.957Z" fill="#F28F8F"/>
<path d="M49.5407 151.996C49.5725 152.724 49.7123 153.444 49.9555 154.131C50.0933 153.901 50.2647 153.694 50.4641 153.515C51.5996 152.529 52.8997 151.75 54.305 151.213C57.5019 149.859 61.0684 149.648 64.4024 150.618C64.3378 149.994 64.1892 149.382 63.9607 148.798C62.7897 145.934 60.5146 144.468 56.9414 144.91C52.7525 145.439 49.3399 147.841 49.5407 151.996Z" fill="#4E626C"/>
<path d="M57.1689 149.273C58.5256 148.878 59.9455 148.749 61.3511 148.891C61.6861 148.6 61.9749 148.259 62.2076 147.881C62.5355 147.339 62.4084 146.657 62.0805 146.543C61.7526 146.429 61.7459 146.83 60.5214 147.466C60.6774 147.068 60.7055 146.63 60.6017 146.215C60.3875 145.72 59.9794 146.63 59.076 147.232C58.1727 147.834 57.2626 148.155 57.1689 149.273Z" fill="#263238"/>
<path d="M59.0357 167.333C58.3665 166.912 56.881 166.182 56.1182 166.992C55.3554 167.802 54.9539 168.036 54.452 167.889C53.9502 167.741 52.3643 166.109 51.7754 165.212C51.1063 164.188 51.2669 163.773 51.2669 163.773L52.5182 162.127C52.8662 161.665 52.9799 161.612 53.4215 161.578L53.4818 162.796C53.5326 163.096 53.6421 163.383 53.804 163.64C53.966 163.897 54.1771 164.12 54.4253 164.295C55.6699 165.145 58.1189 165.373 59.0357 167.333Z" fill="#455A64"/>
<path d="M59.0361 167.333C59.4443 166.952 60.3744 165.995 61.0436 166.202C61.7127 166.41 62.0205 166.798 62.0339 166.436C61.8192 165.565 61.4449 164.742 60.9298 164.007C60.4811 163.3 59.8309 162.743 59.0629 162.408L59.1031 163.532C59.1031 163.532 59.906 164.549 59.8123 165.158C59.7187 165.767 59.1164 166.738 59.0361 167.333Z" fill="#455A64"/>
<path d="M76.4872 177.772L61.96 180.261L56.2188 197.505L70.0567 194.775L76.4872 177.772Z" fill="#263238"/>
<path opacity="0.15" d="M64.1215 190.566C63.9647 191.136 63.6599 191.654 63.2379 192.067C62.816 192.481 62.292 192.776 61.7192 192.921C60.4247 193.165 59.0881 193.054 57.8516 192.6L58.3333 191.161L64.1215 190.566Z" fill="black"/>
<path opacity="0.15" d="M72.1048 179.953L72.2721 179.425C72.359 179.13 71.5293 179.043 70.4118 179.231L68.2706 179.592C67.1531 179.779 66.1761 180.167 66.0825 180.462L65.9219 180.99L72.1048 179.953Z" fill="black"/>
<path d="M73.2688 177.993C73.3223 177.812 72.9944 177.732 72.526 177.819L71.6762 177.973C71.6762 177.973 72.0242 176.822 70.1506 177.069C69.6527 177.098 69.1709 177.256 68.7522 177.527C68.3335 177.798 67.9923 178.173 67.7617 178.615L66.8517 178.789C66.4575 178.823 66.0891 178.999 65.8145 179.284L65.6807 179.612L73.1617 178.334C73.1617 178.334 73.2085 178.18 73.2688 177.993Z" fill="#4E626C"/>
<path opacity="0.3" d="M73.2688 177.993C73.3223 177.812 72.9944 177.732 72.526 177.819L71.6762 177.973C71.6762 177.973 72.0242 176.822 70.1506 177.069C69.6527 177.098 69.1709 177.256 68.7522 177.527C68.3335 177.798 67.9923 178.173 67.7617 178.615L66.8517 178.789C66.4575 178.823 66.0891 178.999 65.8145 179.284L65.6807 179.612L73.1617 178.334C73.1617 178.334 73.2085 178.18 73.2688 177.993Z" fill="black"/>
<path d="M66.1687 180.515C66.2423 180.274 66.9382 179.967 67.8081 179.759V179.679C67.8817 179.418 67.8081 179.257 67.2527 179.344V179.137L72.4319 178.287L72.2044 178.494C71.5352 178.601 71.2341 178.662 71.0936 179.117L71.0601 179.217C71.8698 179.143 72.3984 179.217 72.3449 179.485L72.1776 180.013L66.0215 181.051L66.1687 180.515Z" fill="#4E626C"/>
<path opacity="0.4" d="M66.1687 180.515C66.2423 180.274 66.9382 179.967 67.8081 179.759V179.679C67.8817 179.418 67.8081 179.257 67.2527 179.344V179.137L72.4319 178.287L72.2044 178.494C71.5352 178.601 71.2341 178.662 71.0936 179.117L71.0601 179.217C71.8698 179.143 72.3984 179.217 72.3449 179.485L72.1776 180.013L66.0215 181.051L66.1687 180.515Z" fill="black"/>
<path d="M59.3906 187.983C61.1438 188.619 63.1178 188.458 64.9579 188.518C65.1319 188.518 65.346 188.518 65.4196 188.712C65.4386 188.79 65.4334 188.871 65.4047 188.945C65.3759 189.019 65.3251 189.083 65.259 189.127C65.1252 189.216 65.0037 189.321 64.8977 189.442C64.7572 189.649 64.8107 189.924 64.7705 190.171C64.6739 190.529 64.4737 190.85 64.1951 191.094C63.9286 191.414 63.6176 191.693 63.2717 191.924C61.9826 192.539 60.5264 192.711 59.1297 192.413C58.2648 192.224 57.4201 191.953 56.607 191.603C55.8308 191.295 51.1267 189.783 50.5847 189.596C46.436 188.037 40.7215 186.109 40.427 184.122C40.1326 182.135 41.8523 175.59 42.7222 170.565C43.552 165.794 45.3252 165.212 48.0152 164.724C48.9498 166.064 49.5006 167.635 49.6079 169.266C49.7152 170.897 49.375 172.526 48.6241 173.978L46.8776 181.733C49.6018 183.491 52.4185 185.102 55.3155 186.558C55.8717 186.651 56.4425 186.603 56.975 186.417C57.9615 186.123 58.9997 186.043 60.0196 186.183" fill="#FFA8A7"/>
<path d="M48.1152 164.663C45.278 164.984 43.9397 165.68 43.2706 167.955C42.6014 170.231 41.5107 175.637 41.5107 175.637C43.3576 177.344 45.8669 177.645 47.968 177.685L48.9115 173.891C49.6074 172.372 50.8788 167.989 48.1152 164.663Z" fill="#455A64"/>
</g>
<defs>
<clipPath id="clip0_107_1495">
<rect width="310.182" height="300" fill="white"/>
</clipPath>
</defs>
</svg>
